<?xml version="1.0" encoding="utf-8"?>
<!-- Generator: Adobe Illustrator 17.0.0, SVG Export Plug-In . SVG Version: 6.00 Build 0)  -->
<!DOCTYPE svg PUBLIC "-//W3C//DTD SVG 1.1//EN" "http://www.w3.org/Graphics/SVG/1.1/DTD/svg11.dtd">
<svg version="1.1" id="Layer_1" xmlns="http://www.w3.org/2000/svg" xmlns:xlink="http://www.w3.org/1999/xlink" x="0px" y="0px"
	 width="500px" height="500px" viewBox="0 0 500 500" enable-background="new 0 0 500 500" xml:space="preserve">
<g>
	<linearGradient id="SVGID_1_" gradientUnits="userSpaceOnUse" x1="149.9924" y1="211.1489" x2="350.243" y2="211.1489">
		<stop  offset="0.0056" style="stop-color:#EABF7C"/>
		<stop  offset="0.1854" style="stop-color:#DEB67C"/>
		<stop  offset="0.5955" style="stop-color:#BE822B"/>
		<stop  offset="0.8708" style="stop-color:#E9BD80"/>
		<stop  offset="1" style="stop-color:#EDDBC3"/>
	</linearGradient>
	<path fill="url(#SVGID_1_)" d="M190.861,326.918c-4.562-1.262-9.709-2.545-14.758-4.137c-2.859-0.902-5.079-2.574-3.184-6.215
		c-2.799-0.975-5.49-1.645-7.937-2.822c-5.023-2.416-5.037-2.691-3.272-7.861c-3.126-1.606-6.3-3.156-9.393-4.851
		c-2.597-1.423-2.997-3.118-1.304-5.911c17.308-28.551,34.472-57.19,51.673-85.806c4.65-7.736,9.331-15.454,13.929-23.221
		c7.08-11.959,8.643-24.485,3.935-37.724c-1.938-5.451-3.901-10.944-5.16-16.574c-2.439-10.903,0.246-21.132,6.322-30.157
		c4.179-6.207,9.577-11.596,14.471-17.316c0.481-0.562,1.254-0.875,2.496-0.932c-2.286,5.498-4.985,10.867-6.742,16.53
		c-1.724,5.557-2.49,11.412-3.797,17.716c9.488-0.288,15.999,3.824,21.848,9.887c5.784-5.79,12.168-10.2,20.961-9.849
		c0.832-12.654-4.89-23.377-9.943-34.618c1.082,0.146,1.378,0.094,1.508,0.217c10.559,9.991,20.139,20.587,22.543,35.743
		c1.027,6.472,0.056,12.715-1.866,18.86c-1.072,3.427-2.284,6.813-3.534,10.18c-4.988,13.442-3.326,26.198,3.966,38.342
		c21.54,35.873,43.112,71.726,64.669,107.589c2.874,4.781,2.866,5.139-2.023,8.009c-2.456,1.442-5.177,2.433-7.767,3.622
		c1.233,5.623,0.718,6.618-5.013,8.887c-1.916,0.759-3.962,1.191-6.312,1.878c2.339,4.565-1.176,5.815-4.215,6.798
		c-4.708,1.523-9.578,2.542-13.996,4.095c-1.54,1.155-2.917,2.777-4.649,3.385c-7.933,2.786-16.091,4.399-24.576,3.582
		c-0.573-0.055-1.427-0.306-1.686-0.03c-4.875,5.19-11.555,3.766-17.456,4.407c-11.566,1.257-23.168,0.546-34.63-1.698
		c-0.568-0.111-1.444-0.047-1.651-0.386c-2.198-3.59-5.642-1.582-8.543-2.076c-6.945-1.182-13.876-2.482-20.743-4.043
		C193.657,330.109,192.594,328.427,190.861,326.918z"/>
</g>
<linearGradient id="SVGID_2_" gradientUnits="userSpaceOnUse" x1="71.5882" y1="218.2157" x2="428.6471" y2="218.2157">
	<stop  offset="0.0056" style="stop-color:#EABF7C"/>
	<stop  offset="0.1854" style="stop-color:#DEB67C"/>
	<stop  offset="0.5955" style="stop-color:#BE822B"/>
	<stop  offset="0.8708" style="stop-color:#E9BD80"/>
	<stop  offset="1" style="stop-color:#EDDBC3"/>
</linearGradient>
<path fill="none" stroke="url(#SVGID_2_)" stroke-width="10" stroke-miterlimit="10" d="M423.647,365.039c0,6.627-5.373,12-12,12
	H88.588c-6.627,0-12-5.373-12-12V71.392c0-6.627,5.373-12,12-12h323.059c6.627,0,12,5.373,12,12V365.039z"/>
</svg>
