<?xml version="1.0" encoding="utf-8"?>
<!-- Generator: Adobe Illustrator 17.0.0, SVG Export Plug-In . SVG Version: 6.00 Build 0)  -->
<!DOCTYPE svg PUBLIC "-//W3C//DTD SVG 1.1//EN" "http://www.w3.org/Graphics/SVG/1.1/DTD/svg11.dtd">
<svg version="1.1" id="Layer_1" xmlns="http://www.w3.org/2000/svg" xmlns:xlink="http://www.w3.org/1999/xlink" x="0px" y="0px"
	 width="500px" height="500px" viewBox="0 0 500 500" enable-background="new 0 0 500 500" xml:space="preserve">
<g>
	<linearGradient id="SVGID_1_" gradientUnits="userSpaceOnUse" x1="157.2761" y1="154.6155" x2="350.6725" y2="154.6155">
		<stop  offset="0.0056" style="stop-color:#EABF7C"/>
		<stop  offset="0.1854" style="stop-color:#DEB67C"/>
		<stop  offset="0.5955" style="stop-color:#BE822B"/>
		<stop  offset="0.8708" style="stop-color:#E9BD80"/>
		<stop  offset="1" style="stop-color:#EDDBC3"/>
	</linearGradient>
	<path fill="url(#SVGID_1_)" d="M163.835,195.101c11.302,0,21.567-5.594,27.699-14.686c2.981,2.844,6.954,4.656,11.338,4.863
		c8.215,17.444,25.601,28.561,45.07,28.561h12.207c19.467,0,36.861-11.123,45.074-28.574c4.315-0.265,8.211-2.102,11.123-4.944
		c6.117,9.154,16.394,14.78,27.769,14.78c3.617,0,6.559-2.942,6.559-6.558v-45.03c0-15.309-12.452-27.761-27.761-27.761h-9.611
		c-1.629-3.827-5.427-6.517-9.842-6.517h-1.931c-1.938,0-3.815,0.54-5.442,1.504c-9.077-9.452-21.832-15.346-35.938-15.346h-12.207
		c-14.134,0-26.909,5.915-35.988,15.396c-1.644-0.996-3.552-1.554-5.533-1.554h-1.929c-4.415,0-8.213,2.69-9.842,6.517h-9.611
		c-15.307,0-27.761,12.454-27.761,27.761v45.03C157.274,192.159,160.218,195.101,163.835,195.101z M304.144,177.211
		c-0.267,0-0.569-0.027-0.952-0.081c-1.844-0.271-3.629,0.763-4.325,2.488c-6.411,15.877-21.609,26.136-38.722,26.136h-12.207
		c-17.13,0-32.334-10.273-38.734-26.174c-0.625-1.552-2.123-2.533-3.748-2.533c-0.238,0-0.479,0.021-0.719,0.062
		c-0.375,0.069-0.713,0.102-1.029,0.102c-5.279,0-9.571-4.294-9.571-9.571v-4.519c0-3.173,2.581-5.754,5.754-5.754h2.254
		c2.233,0,4.044-1.808,4.044-4.044v-0.463c7.888-10.009,20.057-15.946,32.813-15.946h30.078c12.759,0,24.926,5.938,32.815,15.946
		v0.463c0,2.233,1.81,4.044,4.044,4.044h1.004c3.638,0,6.596,2.958,6.596,6.598v3.848
		C313.542,172.994,309.326,177.211,304.144,177.211z M342.587,143.512v43.457c-9.396-0.552-17.613-6.179-21.526-14.746
		c0.367-1.41,0.567-2.888,0.567-4.411v-3.85c0-3.25-1.073-6.252-2.869-8.688c0,0-0.046-7.529-0.14-8.456
		c-0.221-2.221-2.206-3.846-4.425-3.619c-2.221,0.221-3.842,2.202-3.621,4.425c0.067,0.658,0.1,1.331,0.1,1.996v0.154
		c-0.229-0.06-0.456-0.129-0.69-0.177v-4.371c0-2.598-0.202-5.15-0.585-7.642c2.885-1.946,4.754-5.242,4.754-8.873v-4.877h8.759
		C333.76,123.835,342.587,132.662,342.587,143.512z M301.528,117.32h1.931c1.438,0,2.606,1.169,2.606,2.604v5.936
		c-1.273-3.006-2.833-5.863-4.644-8.534C301.457,117.324,301.492,117.32,301.528,117.32z M247.941,103.478h12.207
		c21.594,0,39.411,16.48,41.536,37.524c-8.979-7.746-20.569-12.173-32.601-12.173h-30.078c-12.034,0-23.623,4.427-32.603,12.173
		C208.527,119.957,226.344,103.478,247.941,103.478z M204.488,117.32h1.931c0.081,0,0.16,0.008,0.24,0.015
		c-1.877,2.769-3.479,5.738-4.775,8.863v-6.273C201.883,118.489,203.052,117.32,204.488,117.32z M165.362,143.512
		c0-10.85,8.825-19.678,19.675-19.678h8.761v4.877c0,3.711,1.917,7.04,4.877,8.963c-0.375,2.465-0.571,4.986-0.571,7.552v4.169
		c-0.279,0.035-0.554,0.083-0.827,0.135c0.002-0.635,0.033-1.271,0.096-1.896c0.223-2.221-1.398-4.202-3.619-4.425
		c-2.221-0.223-4.204,1.398-4.427,3.619c-0.092,0.921-0.14,7.529-0.14,7.529c-1.958,2.388-3.135,5.44-3.135,8.763v4.519
		c0,1.696,0.244,3.335,0.694,4.89c-3.973,8.386-12.125,13.892-21.384,14.44V143.512z"/>
	<linearGradient id="SVGID_2_" gradientUnits="userSpaceOnUse" x1="228.5528" y1="159.5229" x2="240.5823" y2="159.5229">
		<stop  offset="0.0056" style="stop-color:#EABF7C"/>
		<stop  offset="0.1854" style="stop-color:#DEB67C"/>
		<stop  offset="0.5955" style="stop-color:#BE822B"/>
		<stop  offset="0.8708" style="stop-color:#E9BD80"/>
		<stop  offset="1" style="stop-color:#EDDBC3"/>
	</linearGradient>
	<path fill="url(#SVGID_2_)" d="M240.582,159.523c0,3.323-2.692,6.015-6.015,6.015c-3.321,0-6.015-2.692-6.015-6.015
		c0-3.321,2.694-6.015,6.015-6.015C237.891,153.508,240.582,156.202,240.582,159.523z"/>
	<linearGradient id="SVGID_3_" gradientUnits="userSpaceOnUse" x1="267.5038" y1="159.5229" x2="279.5332" y2="159.5229">
		<stop  offset="0.0056" style="stop-color:#EABF7C"/>
		<stop  offset="0.1854" style="stop-color:#DEB67C"/>
		<stop  offset="0.5955" style="stop-color:#BE822B"/>
		<stop  offset="0.8708" style="stop-color:#E9BD80"/>
		<stop  offset="1" style="stop-color:#EDDBC3"/>
	</linearGradient>
	<path fill="url(#SVGID_3_)" d="M279.533,159.523c0,3.323-2.694,6.015-6.015,6.015c-3.323,0-6.015-2.692-6.015-6.015
		c0-3.321,2.692-6.015,6.015-6.015C276.839,153.508,279.533,156.202,279.533,159.523z"/>
	<linearGradient id="SVGID_4_" gradientUnits="userSpaceOnUse" x1="229.846" y1="184.212" x2="278.2415" y2="184.212">
		<stop  offset="0.0056" style="stop-color:#EABF7C"/>
		<stop  offset="0.1854" style="stop-color:#DEB67C"/>
		<stop  offset="0.5955" style="stop-color:#BE822B"/>
		<stop  offset="0.8708" style="stop-color:#E9BD80"/>
		<stop  offset="1" style="stop-color:#EDDBC3"/>
	</linearGradient>
	<path fill="url(#SVGID_4_)" d="M272.196,170.038h-36.303c-1.715,0-3.354,0.731-4.5,2.01c-1.148,1.277-1.698,2.99-1.51,4.696
		c1.348,12.34,11.736,21.642,24.161,21.642c12.427,0,22.815-9.302,24.163-21.642c0.185-1.706-0.365-3.419-1.51-4.698
		C275.55,170.769,273.908,170.038,272.196,170.038z M254.043,190.301c-7.515,0-13.913-5.096-15.715-12.177h31.432
		C267.958,185.205,261.56,190.301,254.043,190.301z"/>
	<linearGradient id="SVGID_5_" gradientUnits="userSpaceOnUse" x1="254.5951" y1="266.9911" x2="390.1714" y2="266.9911">
		<stop  offset="0.0056" style="stop-color:#EABF7C"/>
		<stop  offset="0.1854" style="stop-color:#DEB67C"/>
		<stop  offset="0.5955" style="stop-color:#BE822B"/>
		<stop  offset="0.8708" style="stop-color:#E9BD80"/>
		<stop  offset="1" style="stop-color:#EDDBC3"/>
	</linearGradient>
	<path fill="url(#SVGID_5_)" d="M378.525,261.975v-4.371c0-27.48-22.355-49.837-49.835-49.837h-12.207
		c-27.48,0-49.837,22.357-49.837,49.837v4.167c-6.79,0.881-12.052,6.7-12.052,13.727v4.517c0,9.456,7.471,17.198,16.821,17.638
		c8.213,17.444,25.599,28.561,45.068,28.561h12.207c19.467,0,36.861-11.123,45.074-28.574c9.142-0.558,16.407-8.171,16.407-17.45
		v-3.85C390.171,269.286,385.169,263.378,378.525,261.975z M316.484,215.853h12.207c21.594,0,39.411,16.482,41.536,37.526
		c-8.979-7.748-20.569-12.175-32.601-12.175h-30.078c-12.032,0-23.621,4.427-32.601,12.175
		C277.071,232.335,294.888,215.853,316.484,215.853z M382.086,280.19c0,5.181-4.215,9.396-9.398,9.396
		c-0.267,0-0.569-0.025-0.952-0.079c-1.844-0.271-3.627,0.76-4.325,2.488c-6.411,15.877-21.609,26.134-38.72,26.134h-12.207
		c-17.132,0-32.336-10.273-38.736-26.171c-0.625-1.552-2.123-2.535-3.748-2.535c-0.238,0-0.479,0.021-0.719,0.065
		c-0.375,0.069-0.71,0.1-1.029,0.1c-5.277,0-9.571-4.292-9.571-9.571v-4.517c0-3.173,2.581-5.754,5.754-5.754h2.254
		c2.233,0,4.044-1.81,4.044-4.044v-0.465c7.89-10.007,20.057-15.944,32.815-15.944h30.076c12.759,0,24.926,5.938,32.815,15.944
		v0.465c0,2.233,1.81,4.044,4.044,4.044h1.004c3.638,0,6.598,2.958,6.598,6.596V280.19z"/>
	<linearGradient id="SVGID_6_" gradientUnits="userSpaceOnUse" x1="297.0962" y1="271.9006" x2="309.1277" y2="271.9006">
		<stop  offset="0.0056" style="stop-color:#EABF7C"/>
		<stop  offset="0.1854" style="stop-color:#DEB67C"/>
		<stop  offset="0.5955" style="stop-color:#BE822B"/>
		<stop  offset="0.8708" style="stop-color:#E9BD80"/>
		<stop  offset="1" style="stop-color:#EDDBC3"/>
	</linearGradient>
	<path fill="url(#SVGID_6_)" d="M309.128,271.901c0,3.323-2.694,6.015-6.015,6.015c-3.323,0-6.017-2.692-6.017-6.015
		c0-3.321,2.694-6.015,6.017-6.015C306.434,265.886,309.128,268.58,309.128,271.901z"/>
	<linearGradient id="SVGID_7_" gradientUnits="userSpaceOnUse" x1="336.0471" y1="271.9006" x2="348.0766" y2="271.9006">
		<stop  offset="0.0056" style="stop-color:#EABF7C"/>
		<stop  offset="0.1854" style="stop-color:#DEB67C"/>
		<stop  offset="0.5955" style="stop-color:#BE822B"/>
		<stop  offset="0.8708" style="stop-color:#E9BD80"/>
		<stop  offset="1" style="stop-color:#EDDBC3"/>
	</linearGradient>
	<path fill="url(#SVGID_7_)" d="M348.077,271.901c0,3.323-2.692,6.015-6.015,6.015s-6.015-2.692-6.015-6.015
		c0-3.321,2.692-6.015,6.015-6.015S348.077,268.58,348.077,271.901z"/>
	<linearGradient id="SVGID_8_" gradientUnits="userSpaceOnUse" x1="298.3894" y1="296.5887" x2="346.7855" y2="296.5887">
		<stop  offset="0.0056" style="stop-color:#EABF7C"/>
		<stop  offset="0.1854" style="stop-color:#DEB67C"/>
		<stop  offset="0.5955" style="stop-color:#BE822B"/>
		<stop  offset="0.8708" style="stop-color:#E9BD80"/>
		<stop  offset="1" style="stop-color:#EDDBC3"/>
	</linearGradient>
	<path fill="url(#SVGID_8_)" d="M340.739,282.413h-36.303c-1.715,0-3.354,0.733-4.5,2.01c-1.146,1.279-1.698,2.992-1.51,4.698
		c1.348,12.338,11.734,21.642,24.161,21.642c12.427,0,22.815-9.304,24.163-21.64c0.188-1.708-0.362-3.421-1.508-4.698
		C344.093,283.147,342.454,282.413,340.739,282.413z M322.586,302.678c-7.517,0-13.915-5.098-15.715-12.177h31.432
		C336.501,297.58,330.103,302.678,322.586,302.678z"/>
	<linearGradient id="SVGID_9_" gradientUnits="userSpaceOnUse" x1="117.098" y1="266.9922" x2="252.6743" y2="266.9922">
		<stop  offset="0.0056" style="stop-color:#EABF7C"/>
		<stop  offset="0.1854" style="stop-color:#DEB67C"/>
		<stop  offset="0.5955" style="stop-color:#BE822B"/>
		<stop  offset="0.8708" style="stop-color:#E9BD80"/>
		<stop  offset="1" style="stop-color:#EDDBC3"/>
	</linearGradient>
	<path fill="url(#SVGID_9_)" d="M241.03,261.973v-4.369c0-27.48-22.357-49.837-49.837-49.837h-12.207
		c-27.48,0-49.837,22.357-49.837,49.837v4.169c-6.79,0.879-12.052,6.7-12.052,13.725v4.517c0,9.456,7.471,17.2,16.821,17.638
		c8.213,17.446,25.599,28.563,45.068,28.563h12.207c19.469,0,36.861-11.125,45.074-28.576c9.14-0.558,16.407-8.173,16.407-17.45
		v-3.85C252.674,269.286,247.672,263.378,241.03,261.973z M244.589,280.19c0,5.181-4.217,9.396-9.398,9.396
		c-0.267,0-0.569-0.025-0.952-0.079c-1.84-0.271-3.629,0.76-4.325,2.488c-6.411,15.877-21.609,26.134-38.722,26.134h-12.207
		c-17.13,0-32.334-10.273-38.734-26.171c-0.625-1.552-2.123-2.535-3.748-2.535c-0.238,0-0.477,0.021-0.719,0.065
		c-0.375,0.069-0.713,0.1-1.029,0.1c-5.277,0-9.571-4.292-9.571-9.571v-4.517c0-3.173,2.581-5.754,5.754-5.754h2.254
		c2.233,0,4.044-1.81,4.044-4.044v-0.465c7.89-10.007,20.057-15.944,32.815-15.944h30.078c2.748,0,5.494,0.267,8.163,0.796
		c2.19,0.435,4.317-0.99,4.752-3.179c0.433-2.19-0.99-4.319-3.181-4.752c-3.183-0.631-6.461-0.952-9.734-0.952h-30.078
		c-12.032,0-23.621,4.427-32.603,12.175c2.125-21.044,19.942-37.526,41.539-37.526h12.207c21.588,0,39.401,16.471,41.534,37.505
		c-1.863-1.613-3.842-3.094-5.94-4.427c-1.885-1.196-4.383-0.638-5.581,1.248c-1.196,1.885-0.638,4.383,1.248,5.579
		c4.027,2.556,7.544,5.75,10.488,9.492v0.45c0,2.233,1.81,4.042,4.044,4.042h1.004c3.638,0,6.598,2.961,6.598,6.598V280.19z"/>
	<linearGradient id="SVGID_10_" gradientUnits="userSpaceOnUse" x1="159.5991" y1="271.9006" x2="171.6306" y2="271.9006">
		<stop  offset="0.0056" style="stop-color:#EABF7C"/>
		<stop  offset="0.1854" style="stop-color:#DEB67C"/>
		<stop  offset="0.5955" style="stop-color:#BE822B"/>
		<stop  offset="0.8708" style="stop-color:#E9BD80"/>
		<stop  offset="1" style="stop-color:#EDDBC3"/>
	</linearGradient>
	<path fill="url(#SVGID_10_)" d="M171.631,271.901c0,3.323-2.694,6.015-6.015,6.015c-3.323,0-6.017-2.692-6.017-6.015
		c0-3.321,2.694-6.015,6.017-6.015C168.937,265.886,171.631,268.58,171.631,271.901z"/>
	<linearGradient id="SVGID_11_" gradientUnits="userSpaceOnUse" x1="198.55" y1="271.9006" x2="210.5795" y2="271.9006">
		<stop  offset="0.0056" style="stop-color:#EABF7C"/>
		<stop  offset="0.1854" style="stop-color:#DEB67C"/>
		<stop  offset="0.5955" style="stop-color:#BE822B"/>
		<stop  offset="0.8708" style="stop-color:#E9BD80"/>
		<stop  offset="1" style="stop-color:#EDDBC3"/>
	</linearGradient>
	<path fill="url(#SVGID_11_)" d="M210.579,271.901c0,3.323-2.692,6.015-6.015,6.015c-3.321,0-6.015-2.692-6.015-6.015
		c0-3.321,2.694-6.015,6.015-6.015C207.888,265.886,210.579,268.58,210.579,271.901z"/>
	<linearGradient id="SVGID_12_" gradientUnits="userSpaceOnUse" x1="160.8922" y1="296.5887" x2="209.2877" y2="296.5887">
		<stop  offset="0.0056" style="stop-color:#EABF7C"/>
		<stop  offset="0.1854" style="stop-color:#DEB67C"/>
		<stop  offset="0.5955" style="stop-color:#BE822B"/>
		<stop  offset="0.8708" style="stop-color:#E9BD80"/>
		<stop  offset="1" style="stop-color:#EDDBC3"/>
	</linearGradient>
	<path fill="url(#SVGID_12_)" d="M203.242,282.413h-36.303c-1.715,0-3.354,0.733-4.5,2.01c-1.148,1.279-1.698,2.992-1.51,4.698
		c1.348,12.338,11.736,21.642,24.161,21.642c12.427,0,22.815-9.304,24.163-21.642c0.185-1.706-0.365-3.419-1.51-4.698
		C206.596,283.147,204.956,282.413,203.242,282.413z M185.089,302.678c-7.515,0-13.913-5.098-15.715-12.177h31.432
		C199.004,297.582,192.606,302.678,185.089,302.678z"/>
</g>
<linearGradient id="SVGID_13_" gradientUnits="userSpaceOnUse" x1="71.5882" y1="218.2157" x2="428.6471" y2="218.2157">
	<stop  offset="0.0056" style="stop-color:#EABF7C"/>
	<stop  offset="0.1854" style="stop-color:#DEB67C"/>
	<stop  offset="0.5955" style="stop-color:#BE822B"/>
	<stop  offset="0.8708" style="stop-color:#E9BD80"/>
	<stop  offset="1" style="stop-color:#EDDBC3"/>
</linearGradient>
<path fill="none" stroke="url(#SVGID_13_)" stroke-width="10" stroke-miterlimit="10" d="M423.647,365.039c0,6.627-5.373,12-12,12
	H88.588c-6.627,0-12-5.373-12-12V71.392c0-6.627,5.373-12,12-12h323.059c6.627,0,12,5.373,12,12V365.039z"/>
</svg>
