<?xml version="1.0" encoding="utf-8"?>
<!-- Generator: Adobe Illustrator 17.0.0, SVG Export Plug-In . SVG Version: 6.00 Build 0)  -->
<!DOCTYPE svg PUBLIC "-//W3C//DTD SVG 1.1//EN" "http://www.w3.org/Graphics/SVG/1.1/DTD/svg11.dtd">
<svg version="1.1" id="Layer_1" xmlns="http://www.w3.org/2000/svg" xmlns:xlink="http://www.w3.org/1999/xlink" x="0px" y="0px"
	 width="500px" height="500px" viewBox="0 0 500 500" enable-background="new 0 0 500 500" xml:space="preserve">
<g>
	<linearGradient id="SVGID_1_" gradientUnits="userSpaceOnUse" x1="163.9969" y1="220.9799" x2="336.2384" y2="220.9799">
		<stop  offset="0.0056" style="stop-color:#EABF7C"/>
		<stop  offset="0.1854" style="stop-color:#DEB67C"/>
		<stop  offset="0.5955" style="stop-color:#BE822B"/>
		<stop  offset="0.8708" style="stop-color:#E9BD80"/>
		<stop  offset="1" style="stop-color:#EDDBC3"/>
	</linearGradient>
	<path fill="url(#SVGID_1_)" d="M297.368,333.493c0-9.214,0.002-17.703-0.002-26.193c-0.001-1.601-0.494-3.401,0.077-4.756
		c0.826-1.959,2.417-3.595,3.682-5.368c1.119,1.735,3.131,3.433,3.205,5.212c0.345,8.348,0.144,16.719,0.17,25.081
		c0.005,1.747,0.143,3.495,0.239,5.663c6.774,0,13.309,0.387,19.773-0.122c5.222-0.411,5.138-4.76,4.43-8.577
		c-2.073-11.185-4.378-22.328-6.577-33.49c-1.031-5.235-1.987-10.486-3.05-15.714c-1.475-7.255-5.55-12.057-12.892-14.087
		c-8.031-2.221-15.976-4.753-24.685-7.368c-1.955,5.39-3.943,10.446-5.609,15.606c-1.253,3.882-3.297,6.164-7.558,7.23
		c-2.839,0.71-5.357,3.223-7.705,5.286c-9.55,8.395-11.644,8.335-21.221,0.235c-2.99-2.529-6.94-3.895-10.109-6.252
		c-2.003-1.491-3.923-3.59-4.916-5.842c-2.211-5.011-3.817-10.29-6.026-16.453c-10.167,3.302-20.374,5.784-29.749,10.083
		c-3.591,1.647-6.594,7.13-7.603,11.4c-3.76,15.908-6.652,32.025-9.724,48.091c-1.514,7.918,0.315,10.087,8.288,10.259
		c5.122,0.111,10.247,0.021,16.098,0.021c0-7.308-0.001-14.184,0-21.06c0-3.025-0.446-6.143,0.154-9.044
		c0.454-2.192,2.092-5.699,3.475-5.834c3.621-0.353,3.525,3.088,3.527,5.799c0.01,9.754,0.004,19.509,0.004,30.231
		c4.076,0,7.777-0.352,11.355,0.156c1.656,0.235,3.074,2.148,4.6,3.3c-1.49,1.175-2.961,3.34-4.474,3.37
		c-12.627,0.248-25.271,0.409-37.889-0.026c-9.396-0.324-14.11-7.121-12.267-17.237c2.581-14.166,5.531-28.265,8.332-42.392
		c0.553-2.791,1.054-5.597,1.737-8.357c2.291-9.249,8.051-15.233,17.184-17.948c7.838-2.329,15.785-4.344,23.487-7.057
		c4.099-1.444,7.961-3.805,11.596-6.249c3.072-2.066,2.792-6.329-0.382-8.367c-13.49-8.661-20.827-20.951-22.471-36.857
		c-0.154-1.491-1.665-3.423-3.059-4.111c-10.626-5.241-12.736-11.83-7.135-22.454c0.849-1.61,0.956-3.707,1.058-5.598
		c0.391-7.268,0.406-14.568,1.125-21.8c0.159-1.6,2.619-2.971,4.02-4.447c0.919,1.801,2.615,3.601,2.619,5.404
		c0.016,6.824-0.518,13.649-0.89,21.402c3.247-2.131,5.209-3.993,7.535-4.788c2.457-0.84,5.338-0.351,7.901-0.982
		c15.671-3.859,31.434-7.437,46.891-12.031c6.848-2.035,12.348-2.005,17.756,2.797c5.243,4.656,10.709,9.061,16.219,13.696
		c0.102-0.442,0.552-1.511,0.561-2.583c0.06-7.294,0.172-14.593-0.008-21.883c-0.327-13.278-9.419-21.22-22.667-20.428
		c-2.401,0.144-5.301-0.655-7.281-2.019c-18.424-12.691-43.672-9.062-57.527,8.483c-0.661,0.837-1.119,2.089-1.972,2.466
		c-1.571,0.695-3.367,0.883-5.069,1.282c-0.113-1.863-1.031-4.257-0.209-5.504c5.423-8.229,12.829-14.289,22.057-17.807
		c15.64-5.963,30.653-4.498,45.028,4.183c1.825,1.102,4.264,1.666,6.418,1.666c16.293,0,28.093,11.362,28.348,27.619
		c0.103,6.582,0.007,13.166,0.034,19.749c0.021,5.097,0.087,9.891,2.98,14.748c3.92,6.582,0.087,14.642-7.989,18.1
		c-2.936,1.257-3.798,2.862-4.131,5.819c-1.731,15.375-8.756,27.569-22.109,35.863c-3.878,2.409-4.021,6.284-0.062,8.819
		c3.828,2.452,7.933,4.675,12.205,6.186c7.196,2.545,14.616,4.46,21.948,6.617c9.357,2.752,15.449,8.813,17.42,18.343
		c3.564,17.234,6.92,34.516,10.031,51.838c1.693,9.429-3.543,15.831-13.159,15.898c-29.712,0.21-59.426,0.153-89.137-0.047
		c-1.63-0.011-3.245-2.266-4.867-3.476c1.727-1.126,3.441-3.208,5.182-3.23c18.857-0.241,37.717-0.159,56.577-0.164
		C292.591,333.492,294.664,333.493,297.368,333.493z M210.859,166.512c0,9.918-0.568,19.699,0.121,29.391
		c1.343,18.908,16.246,34.002,34.824,36.154c18.921,2.193,36.52-8.802,41.779-27.401c2.076-7.342,0.947-15.529,2.174-23.188
		c2.012-12.56-2.291-21.389-13.416-27.521c-3.12-1.72-5.455-2.237-8.847-1.185c-12.544,3.888-25.134,7.668-37.845,10.953
		C223.687,165.257,217.41,165.579,210.859,166.512z M234.707,238.702c3.282,7.725,6.481,15.288,9.74,22.826
		c0.168,0.389,0.816,0.641,1.292,0.817c5.045,1.861,10.208-0.353,12.324-5.29c1.12-2.611,2.235-5.226,3.264-7.873
		c1.36-3.496,2.634-7.025,3.923-10.48C254.927,238.702,245.634,238.702,234.707,238.702z M260.278,272.615
		c-4.885-4.563-16.188-4.307-19.781,0.28C249.972,283.011,250.113,283.012,260.278,272.615z M268.714,268.717
		c1.703-4.587,3.064-8.999,4.965-13.166c1.984-4.35,0.741-6.564-4.021-7.578c-1.643,3.84-2.93,7.749-4.915,11.264
		C262.126,263.87,263.027,266.78,268.714,268.717z M231.588,268.433c0.596,0.251,1.191,0.503,1.787,0.754
		c1.233-2.155,3.898-4.707,3.431-6.39c-1.437-5.181-4.071-10.03-6.24-15.007c-0.621-0.13-1.241-0.261-1.862-0.391
		c-0.887,2.039-2.878,4.352-2.453,6.064C227.522,258.578,229.74,263.46,231.588,268.433z M299.067,171.341
		c-0.601,0.277-1.202,0.554-1.803,0.831c0,4.046,0,8.092,0,12.138c0.54,0.241,1.08,0.481,1.62,0.722
		c1.304-2.354,3.548-4.673,3.633-7.07C302.594,175.798,300.309,173.551,299.067,171.341z M201.41,184.973
		c0.633-0.344,1.266-0.688,1.899-1.032c0-3.944,0-7.888,0-11.832c-0.505-0.277-1.01-0.555-1.515-0.832
		c-1.376,2.058-3.884,4.141-3.841,6.169C198.007,179.978,200.162,182.466,201.41,184.973z"/>
</g>
<linearGradient id="SVGID_2_" gradientUnits="userSpaceOnUse" x1="71.5882" y1="218.2157" x2="428.6471" y2="218.2157">
	<stop  offset="0.0056" style="stop-color:#EABF7C"/>
	<stop  offset="0.1854" style="stop-color:#DEB67C"/>
	<stop  offset="0.5955" style="stop-color:#BE822B"/>
	<stop  offset="0.8708" style="stop-color:#E9BD80"/>
	<stop  offset="1" style="stop-color:#EDDBC3"/>
</linearGradient>
<path fill="none" stroke="url(#SVGID_2_)" stroke-width="10" stroke-miterlimit="10" d="M423.647,365.039c0,6.627-5.373,12-12,12
	H88.588c-6.627,0-12-5.373-12-12V71.392c0-6.627,5.373-12,12-12h323.059c6.627,0,12,5.373,12,12V365.039z"/>
</svg>
