<?xml version="1.0" encoding="utf-8"?>
<!-- Generator: Adobe Illustrator 17.0.0, SVG Export Plug-In . SVG Version: 6.00 Build 0)  -->
<!DOCTYPE svg PUBLIC "-//W3C//DTD SVG 1.1//EN" "http://www.w3.org/Graphics/SVG/1.1/DTD/svg11.dtd">
<svg version="1.1" id="Layer_1" xmlns="http://www.w3.org/2000/svg" xmlns:xlink="http://www.w3.org/1999/xlink" x="0px" y="0px"
	 width="500px" height="500px" viewBox="0 0 500 500" enable-background="new 0 0 500 500" xml:space="preserve">
<g>
	<linearGradient id="SVGID_1_" gradientUnits="userSpaceOnUse" x1="226.6052" y1="151.3053" x2="273.6302" y2="151.3053">
		<stop  offset="0.0056" style="stop-color:#EABF7C"/>
		<stop  offset="0.1854" style="stop-color:#DEB67C"/>
		<stop  offset="0.5955" style="stop-color:#BE822B"/>
		<stop  offset="0.8708" style="stop-color:#E9BD80"/>
		<stop  offset="1" style="stop-color:#EDDBC3"/>
	</linearGradient>
	<path fill="url(#SVGID_1_)" d="M250.118,163.062c2.045-2.045,21.464-21.464,23.512-23.512h-47.025
		C228.675,141.619,248.057,161,250.118,163.062z"/>
	<linearGradient id="SVGID_2_" gradientUnits="userSpaceOnUse" x1="215.1304" y1="159.3693" x2="243.4847" y2="159.3693">
		<stop  offset="0.0056" style="stop-color:#EABF7C"/>
		<stop  offset="0.1854" style="stop-color:#DEB67C"/>
		<stop  offset="0.5955" style="stop-color:#BE822B"/>
		<stop  offset="0.8708" style="stop-color:#E9BD80"/>
		<stop  offset="1" style="stop-color:#EDDBC3"/>
	</linearGradient>
	<path fill="url(#SVGID_2_)" d="M230.017,174.274l13.467-6.735c-1.895-1.898-23.073-23.075-23.073-23.075l-5.282,14.096
		L230.017,174.274z"/>
	<linearGradient id="SVGID_3_" gradientUnits="userSpaceOnUse" x1="256.7506" y1="159.3706" x2="285.1075" y2="159.3706">
		<stop  offset="0.0056" style="stop-color:#EABF7C"/>
		<stop  offset="0.1854" style="stop-color:#DEB67C"/>
		<stop  offset="0.5955" style="stop-color:#BE822B"/>
		<stop  offset="0.8708" style="stop-color:#E9BD80"/>
		<stop  offset="1" style="stop-color:#EDDBC3"/>
	</linearGradient>
	<path fill="url(#SVGID_3_)" d="M256.751,167.539l13.467,6.735l11.883-12.546c0,0,2.366-2.549,3.006-3.171
		c0,0-5.261-14.117-5.287-14.091L256.751,167.539z"/>
	<linearGradient id="SVGID_4_" gradientUnits="userSpaceOnUse" x1="242.3535" y1="179.3217" x2="257.8818" y2="179.3217">
		<stop  offset="0.0056" style="stop-color:#EABF7C"/>
		<stop  offset="0.1854" style="stop-color:#DEB67C"/>
		<stop  offset="0.5955" style="stop-color:#BE822B"/>
		<stop  offset="0.8708" style="stop-color:#E9BD80"/>
		<stop  offset="1" style="stop-color:#EDDBC3"/>
	</linearGradient>
	<path fill="url(#SVGID_4_)" d="M244.739,185.637h10.757l2.386-8.746l-7.764-3.883l-7.764,3.883L244.739,185.637z"/>
	<linearGradient id="SVGID_5_" gradientUnits="userSpaceOnUse" x1="239.5228" y1="228.1326" x2="260.7126" y2="228.1326">
		<stop  offset="0.0056" style="stop-color:#EABF7C"/>
		<stop  offset="0.1854" style="stop-color:#DEB67C"/>
		<stop  offset="0.5955" style="stop-color:#BE822B"/>
		<stop  offset="0.8708" style="stop-color:#E9BD80"/>
		<stop  offset="1" style="stop-color:#EDDBC3"/>
	</linearGradient>
	<path fill="url(#SVGID_5_)" d="M254.954,193.492h-9.673l-5.758,55.659l10.595,13.622l10.595-13.622L254.954,193.492z"/>
	<linearGradient id="SVGID_6_" gradientUnits="userSpaceOnUse" x1="191.7227" y1="216.798" x2="245.9279" y2="216.798">
		<stop  offset="0.0056" style="stop-color:#EABF7C"/>
		<stop  offset="0.1854" style="stop-color:#DEB67C"/>
		<stop  offset="0.5955" style="stop-color:#BE822B"/>
		<stop  offset="0.8708" style="stop-color:#E9BD80"/>
		<stop  offset="1" style="stop-color:#EDDBC3"/>
	</linearGradient>
	<path fill="url(#SVGID_6_)" d="M229.114,251.481l8.641-61.59l-2.569-9.419l-6.866,3.433c-5.239-5.526,10.087,10.65-22.177-23.408
		h-14.421v112.6h54.205C238.188,263.149,247.741,275.431,229.114,251.481L229.114,251.481z"/>
	<linearGradient id="SVGID_7_" gradientUnits="userSpaceOnUse" x1="254.3074" y1="216.798" x2="308.5126" y2="216.798">
		<stop  offset="0.0056" style="stop-color:#EABF7C"/>
		<stop  offset="0.1854" style="stop-color:#DEB67C"/>
		<stop  offset="0.5955" style="stop-color:#BE822B"/>
		<stop  offset="0.8708" style="stop-color:#E9BD80"/>
		<stop  offset="1" style="stop-color:#EDDBC3"/>
	</linearGradient>
	<path fill="url(#SVGID_7_)" d="M294.092,160.498c-2.424,2.558-19.754,20.852-22.177,23.408l-6.866-3.433l-2.569,9.419l8.641,61.59
		c-19.236,24.734-8.033,10.328-16.814,21.617h54.205v-112.6H294.092z"/>
</g>
<linearGradient id="SVGID_8_" gradientUnits="userSpaceOnUse" x1="71.5882" y1="218.2157" x2="428.6471" y2="218.2157">
	<stop  offset="0.0056" style="stop-color:#EABF7C"/>
	<stop  offset="0.1854" style="stop-color:#DEB67C"/>
	<stop  offset="0.5955" style="stop-color:#BE822B"/>
	<stop  offset="0.8708" style="stop-color:#E9BD80"/>
	<stop  offset="1" style="stop-color:#EDDBC3"/>
</linearGradient>
<path fill="none" stroke="url(#SVGID_8_)" stroke-width="10" stroke-miterlimit="10" d="M423.647,365.039c0,6.627-5.373,12-12,12
	H88.588c-6.627,0-12-5.373-12-12V71.392c0-6.627,5.373-12,12-12h323.059c6.627,0,12,5.373,12,12V365.039z"/>
</svg>
