<?xml version="1.0" encoding="utf-8"?>
<!-- Generator: Adobe Illustrator 17.0.0, SVG Export Plug-In . SVG Version: 6.00 Build 0)  -->
<!DOCTYPE svg PUBLIC "-//W3C//DTD SVG 1.1//EN" "http://www.w3.org/Graphics/SVG/1.1/DTD/svg11.dtd">
<svg version="1.1" id="Layer_1" xmlns="http://www.w3.org/2000/svg" xmlns:xlink="http://www.w3.org/1999/xlink" x="0px" y="0px"
	 width="397px" height="109px" viewBox="45.5 200.5 397 109" enable-background="new 45.5 200.5 397 109" xml:space="preserve">
<path fill="#A6A8AB" d="M348.975,231.673h-20.773c-1.222,0-2.444,1.222-3.055,2.444l-8.554,53.765c0,1.222,0.611,1.833,1.833,1.833
	h10.997c1.222,0,1.833-0.611,1.833-1.833l2.444-15.274c0-1.222,1.222-2.444,3.055-2.444h6.721c14.052,0,21.995-6.721,23.828-20.162
	c1.222-5.499,0-10.386-2.444-13.441C361.194,233.506,355.695,231.673,348.975,231.673 M351.418,251.835
	c-1.222,7.332-6.721,7.332-12.219,7.332h-3.666l2.444-14.052c0-0.611,0.611-1.222,1.833-1.222h1.222c3.666,0,7.332,0,9.165,2.444
	C351.418,246.947,351.418,248.78,351.418,251.835"/>
<g>
	<path fill="#6D6E70" d="M199.287,231.673h-20.773c-1.222,0-2.444,1.222-3.055,2.444l-8.554,53.765c0,1.222,0.611,1.833,1.833,1.833
		h9.776c1.222,0,2.444-1.222,3.055-2.444l2.444-14.663c0-1.222,1.222-2.444,3.055-2.444h6.721c14.052,0,21.995-6.721,23.828-20.162
		c1.222-5.499,0-10.386-2.444-13.441C211.507,233.506,206.619,231.673,199.287,231.673 M201.731,251.835
		c-1.222,7.332-6.721,7.332-12.219,7.332h-3.055l2.444-14.052c0-0.611,0.611-1.222,1.833-1.222h1.222c3.666,0,7.332,0,9.165,2.444
		C201.731,246.947,202.342,248.78,201.731,251.835"/>
	<path fill="#6D6E70" d="M262.217,251.224h-9.775c-0.611,0-1.833,0.611-1.833,1.222l-0.611,3.055l-0.611-1.222
		c-2.444-3.055-6.721-4.277-11.608-4.277c-10.997,0-20.773,8.554-22.606,20.162c-1.222,6.11,0.611,11.608,3.666,15.274
		c3.055,3.666,7.332,4.888,12.83,4.888c9.165,0,14.052-5.499,14.052-5.499l-0.611,3.055c0,1.222,0.611,1.833,1.833,1.833h9.165
		c1.222,0,2.444-1.222,3.055-2.444l5.499-34.214C264.05,252.446,262.828,251.224,262.217,251.224 M248.165,270.775
		c-1.222,5.499-5.499,9.776-11.608,9.776c-3.055,0-5.499-1.222-6.721-2.444c-1.222-1.833-1.833-4.277-1.833-7.332
		C228.614,265.276,233.502,261,239,261c3.055,0,4.888,1.222,6.721,2.444C247.554,265.276,248.165,268.331,248.165,270.775"/>
</g>
<path fill="#A6A8AB" d="M411.293,251.224h-9.776c-0.611,0-1.833,0.611-1.833,1.222l-0.611,3.055l-0.611-1.222
	c-2.444-3.055-6.721-4.277-11.608-4.277c-10.997,0-20.773,8.554-22.606,20.162c-1.222,6.11,0.611,11.608,3.666,15.274
	s7.332,4.888,12.83,4.888c9.165,0,14.052-5.499,14.052-5.499l-0.611,3.055c0,1.222,0.611,1.833,1.833,1.833h9.165
	c1.222,0,2.444-1.222,3.055-2.444l5.499-34.214C413.126,252.446,412.515,251.224,411.293,251.224 M397.241,270.775
	c-1.222,5.499-5.499,9.776-11.608,9.776c-3.055,0-5.499-1.222-6.721-2.444c-1.222-1.833-1.833-4.277-1.833-7.332
	c0.611-5.499,5.499-9.775,10.997-9.775c3.055,0,4.888,1.222,6.721,2.444C397.241,265.276,397.852,268.331,397.241,270.775"/>
<path fill="#6D6E70" d="M315.371,251.224h-10.386c-1.222,0-1.833,0.611-2.444,1.222L289.1,273.219l-6.11-19.551
	c-0.611-1.222-1.222-1.833-3.055-1.833h-9.776c-1.222,0-1.833,1.222-1.833,2.444l10.997,32.381l-10.386,14.663
	c-0.611,1.222,0,3.055,1.222,3.055h9.776c1.222,0,1.833-0.611,2.444-1.222l33.603-48.267
	C317.815,253.057,316.593,251.224,315.371,251.224"/>
<path fill="#A6A8AB" d="M422.902,233.506l-8.554,54.987c0,1.222,0.611,1.833,1.833,1.833h8.554c1.222,0,2.444-1.222,3.055-2.444
	l8.554-53.765c0-1.222-0.611-1.833-1.833-1.833h-9.775C424.124,231.673,423.513,232.284,422.902,233.506"/>
<path fill="#6D6E70" d="M121.694,213.344c-4.277-4.888-12.219-7.332-23.217-7.332H67.929c-1.833,0-3.666,1.833-4.277,3.666
	l-12.219,80.037c0,1.833,1.222,3.055,2.444,3.055h18.94l4.888-29.938v1.222c0.611-1.833,2.444-3.666,4.277-3.666h9.165
	c17.718,0,31.159-7.332,35.436-27.494c0-0.611,0-1.222,0-1.833c-0.611,0-0.611,0,0,0
	C127.193,223.12,125.971,218.232,121.694,213.344"/>
<path fill="#A6A8AB" d="M125.971,231.062L125.971,231.062c0,0.611,0,1.222,0,1.833c-4.277,20.773-17.718,27.494-35.436,27.494H81.37
	c-1.833,0-3.666,1.833-4.277,3.666l-6.11,37.269c0,1.222,0.611,2.444,2.444,2.444h15.885c1.833,0,3.666-1.222,3.666-3.055v-0.611
	l3.055-18.94v-1.222c0-1.833,1.833-3.055,3.666-3.055h2.444c15.274,0,27.494-6.11,30.548-24.439
	c1.222-7.332,0.611-14.052-3.055-18.329C129.026,232.895,127.804,231.673,125.971,231.062"/>
<path fill="#6D6E70" d="M121.694,229.229c-0.611,0-1.222-0.611-1.833-0.611s-1.222,0-1.833-0.611
	c-2.444-0.611-4.888-0.611-7.943-0.611H86.258c-0.611,0-1.222,0-1.833,0.611c-1.222,0.611-1.833,1.833-1.833,3.055l-4.888,31.77
	v1.222c0.611-1.833,2.444-3.666,4.277-3.666h9.165c17.718,0,31.159-7.332,35.436-27.494c0-0.611,0-1.222,0.611-1.833
	c-1.222-0.611-1.833-1.222-3.055-1.222C122.305,229.229,122.305,229.229,121.694,229.229"/>
</svg>
