<?xml version="1.0" encoding="utf-8"?>
<!-- Generator: Adobe Illustrator 17.0.0, SVG Export Plug-In . SVG Version: 6.00 Build 0)  -->
<!DOCTYPE svg PUBLIC "-//W3C//DTD SVG 1.1//EN" "http://www.w3.org/Graphics/SVG/1.1/DTD/svg11.dtd">
<svg version="1.1" id="Layer_1" xmlns="http://www.w3.org/2000/svg" xmlns:xlink="http://www.w3.org/1999/xlink" x="0px" y="0px"
	 width="377px" height="121px" viewBox="60.5 192.5 377 121" enable-background="new 60.5 192.5 377 121" xml:space="preserve">
<polygon fill="#A6A8AB" points="200.788,305.982 219.287,201.93 248.19,201.93 230.27,305.982 "/>
<polygon fill="#808184" points="200.788,305.982 224.489,201.93 248.19,201.93 230.27,305.982 "/>
<path fill="#A6A8AB" d="M334.9,203.086c-5.781-2.312-15.03-4.625-26.591-4.625c-28.903,0-49.714,14.452-49.714,35.262
	c0,15.608,14.452,23.701,26.013,28.903s15.03,8.671,15.03,13.296c0,6.937-9.249,10.405-17.342,10.405
	c-11.561,0-17.92-1.734-27.747-5.781l-4.046-1.734l-4.046,23.701c6.937,2.89,19.654,5.781,32.95,5.781
	c30.638,0,50.87-14.452,50.87-36.418c0-12.139-7.515-21.388-24.857-28.903c-10.405-5.203-16.764-8.093-16.764-13.296
	c0-4.625,5.203-9.249,16.764-9.249c9.827,0,16.764,1.734,21.967,4.046l2.89,1.156L334.9,203.086L334.9,203.086z"/>
<path fill="#808184" d="M334.9,203.086c-5.781-2.312-15.03-4.625-26.591-4.625c-28.903,0-44.511,14.452-44.511,35.262
	c0,15.608,9.249,23.701,20.81,28.903s15.03,8.671,15.03,13.296c0,6.937-9.249,10.405-17.342,10.405
	c-11.561,0-17.92-1.734-27.747-5.781l-4.046-1.734l-4.046,23.701c6.937,2.89,19.654,5.781,32.95,5.781
	c30.638,0,50.87-14.452,50.87-36.418c0-12.139-7.515-21.388-24.857-28.903c-10.405-5.203-16.764-8.093-16.764-13.296
	c0-4.625,5.203-9.249,16.764-9.249c9.827,0,16.764,1.734,21.967,4.046l2.89,1.156L334.9,203.086L334.9,203.086z"/>
<path fill="#A6A8AB" d="M384.614,201.93c-6.937,0-12.139,0.578-15.03,7.515l-43.355,96.537h31.216l5.781-17.342h36.996l3.468,17.342
	h27.747L407.158,201.93H384.614z M371.318,271.298c1.734-5.203,11.561-30.638,11.561-30.638s2.312-6.359,4.046-10.405l1.734,9.827
	c0,0,5.781,26.013,6.937,31.794h-24.279L371.318,271.298L371.318,271.298z"/>
<path fill="#808184" d="M391.551,201.93c-6.937,0-12.139,0.578-15.03,7.515l-50.292,96.537h31.216l5.781-17.342h36.996l3.468,17.342
	h27.747L407.158,201.93H391.551z M371.318,271.298c2.312-5.781,11.561-30.638,11.561-30.638s2.312-6.359,4.046-10.405l1.734,9.827
	c0,0,5.781,26.013,6.937,31.794h-24.279L371.318,271.298L371.318,271.298z"/>
<path fill="#A6A8AB" d="M147.606,274.766l-2.89-15.03c-5.203-17.342-21.967-36.418-40.465-45.667l26.013,92.491h31.216
	l46.823-104.052h-31.216L147.606,274.766z"/>
<path fill="#808184" d="M147.606,274.766l-2.89-15.03c-5.203-17.342-21.967-36.418-40.465-45.667l26.013,92.491h31.216
	l46.823-104.052h-25.435L147.606,274.766z"/>
<path fill="#D0D2D3" d="M67.255,201.93l5.203,1.156c36.996,8.671,62.431,30.638,72.258,56.651l-10.405-49.136
	c-1.734-6.937-6.937-8.671-13.296-8.671H67.255z"/>
<path fill="#BBBDBF" d="M67.255,201.93L67.255,201.93c36.996,8.671,67.634,31.216,77.461,57.229l-9.827-41.043
	c-1.734-6.937-7.515-10.983-13.874-10.983L67.255,201.93z"/>
<path fill="#A6A8AB" d="M67.255,201.93L67.255,201.93c36.996,8.671,67.634,31.216,77.461,57.229l-6.937-22.545
	c-1.734-6.937-4.046-13.874-12.139-16.764L67.255,201.93z"/>
<g>
	<path fill="#58595B" d="M176.51,271.298l-19.654-19.654l-9.249,21.967l-2.312-14.452c-5.203-17.342-21.967-36.418-40.465-45.667
		l26.013,92.491h31.216L176.51,271.298z"/>
	<polygon fill="#58595B" points="230.27,305.982 205.413,280.547 200.788,305.982 	"/>
	<path fill="#58595B" d="M296.748,270.142L296.748,270.142c2.312,2.312,3.468,4.046,2.89,6.359c0,6.937-9.249,10.405-17.342,10.405
		c-11.561,0-17.92-1.734-27.747-5.781l-4.046-1.734l-4.046,23.701c6.937,2.89,19.654,5.781,32.95,5.781
		c18.498,0,33.528-5.203,42.199-14.452L296.748,270.142z"/>
	<path fill="#58595B" d="M330.275,305.982h27.169l5.781-17.342h36.996l3.468,17.342h27.747l-9.827-42.199l-34.684-33.528
		l1.734,9.249c0,0,5.781,26.013,6.937,31.794h-24.279c2.312-5.781,11.561-30.638,11.561-30.638s2.312-6.359,4.046-10.405"/>
</g>
</svg>
