<?xml version="1.0" encoding="utf-8"?>
<!-- Generator: Adobe Illustrator 25.0.1, SVG Export Plug-In . SVG Version: 6.00 Build 0)  -->
<svg version="1.1" id="Layer_1" xmlns="http://www.w3.org/2000/svg" xmlns:xlink="http://www.w3.org/1999/xlink" x="0px" y="0px"
	 viewBox="0 0 154.9 154.9" style="enable-background:new 0 0 154.9 154.9;" xml:space="preserve">
<g>
	<g>
		<path d="M133.2,21.7C119.2,7.7,100.5,0,80.7,0S42.2,7.7,28.2,21.7S6.5,54.4,6.5,74.2c0,12.6,3.2,24.9,9.2,35.8L0,154.9l44.9-15.7
			c10.9,6,23.3,9.2,35.8,9.2c19.8,0,38.5-7.7,52.5-21.7s21.7-32.6,21.7-52.5S147.2,35.7,133.2,21.7z M117.4,101.8l-8.6,8.6
			c-7.1,7.1-27.2-1.5-45-19.3c-17.7-17.7-26.4-37.9-19.3-45l8.6-8.6c1.8-1.8,4.7-1.8,6.4,0l10.7,10.7c1.8,1.8,1.8,4.7,0,6.4
			l-6.4,6.4c6.2,13.2,16.8,23.8,30,30l6.4-6.4c1.8-1.8,4.7-1.8,6.4,0l10.7,10.7C119.2,97.1,119.2,100,117.4,101.8z"/>
	</g>
</g>
</svg>
