<?xml version="1.0" encoding="utf-8"?>
<!-- Generator: Adobe Illustrator 21.0.0, SVG Export Plug-In . SVG Version: 6.00 Build 0)  -->
<svg version="1.1" id="Layer_1" xmlns="http://www.w3.org/2000/svg" xmlns:xlink="http://www.w3.org/1999/xlink" x="0px" y="0px"
	 viewBox="0 0 250 250" style="enable-background:new 0 0 250 250;" xml:space="preserve">
<style type="text/css">
	.st0{fill:#055864;}
	.st1{fill:#FF9D3A;}
</style>
<path class="st0" d="M427.3,13.4l-9.9-146.6H285l-9.9,146.6h-7.4v19.4h6.2h154.7h4.6V13.4H427.3z M387.3-117.9c3.8,0,6.8,3,6.8,6.8
	s-3,6.8-6.8,6.8c-3.8,0-6.8-3-6.8-6.8C380.5-114.8,383.5-117.9,387.3-117.9z M315.2-117.9c3.8,0,6.8,3,6.8,6.8s-3,6.8-6.8,6.8
	c-3.8,0-6.8-3-6.8-6.8C308.4-114.8,311.4-117.9,315.2-117.9z"/>
<path class="st1" d="M324.8-140.2c5.8-18,15.6-30.1,26.4-30.1c10.8,0,20.6,12.1,26.4,30.1h8.4c-6.8-22.9-19.7-38-34.8-38
	s-28,15.2-34.8,38H324.8z"/>
<g id="CsvTYd.tif">
	<g>
		<path class="st0" d="M125.1,226.6c-23.2,0-46.3-0.1-69.5,0.1c-6.7,0.1-8.9-4.2-8.3-9.6c2-18.3,3.6-36.7,5.3-55.1
			c1.9-20.3,3.9-40.6,5.8-60.9c0.9-8.9,1.7-17.8,2.5-26.7c0.5-5.7,2.7-7.8,8.5-7.9c5.1-0.1,10.2,0,15.2-0.2c1.9-0.1,2.7,0.4,2.5,2.4
			c-0.2,2.9-0.1,5.7,0,8.6c0,1.4-0.4,2.4-1.2,3.6c-4.5,6.5-3.6,14.8,2.1,19.8c5.8,5.1,14.2,5.1,20,0c5.7-5.1,6.6-13.4,2-19.8
			c-0.8-1.1-1.2-2.2-1.2-3.6c0.1-3,0.1-6.1,0-9.1c0-1.4,0.4-2,1.9-2c8.9,0.1,17.9,0.1,26.8,0c1.6,0,1.8,0.7,1.8,2
			c-0.1,3.1-0.1,6.3,0,9.4c0,1.2-0.5,2.1-1.2,3c-4.2,5.6-4.4,12.3-0.6,17.8c3.5,5.1,9.9,7.5,15.8,6c6.3-1.6,10.7-6.7,11.3-13.5
			c0.3-3-0.3-6-2-8.4c-1.4-2-1.7-4-1.6-6.2c0.1-2.7,0.1-5.4,0-8c0-1.3,0.5-1.8,1.8-1.8c6.5,0,12.9-0.1,19.4,0.1
			c3.9,0.1,6.2,2.6,6.6,6.5c3,31.3,5.9,62.6,8.9,93.9c1.6,16.3,3.2,32.7,4.7,49c0.1,1.1,0.2,2.2,0.2,3.3c0.1,4.6-2.5,7.3-7.1,7.3
			c-14.8,0-29.5,0-44.3,0C142.7,226.6,133.9,226.6,125.1,226.6z"/>
		<path class="st1" d="M154.7,62.1c0,6.3,0,12.5,0,18.8c0,1.5,0.3,2.8,1.3,4c2.8,3.4,2.3,8.1-0.8,11c-3.3,3-8,2.9-11.2-0.2
			c-3-2.9-3.3-7.7-0.4-11c1.1-1.2,1.4-2.4,1.4-4c0-11.5,0-23.1,0-34.6c0-13.1-9.2-22.6-21.5-22.3c-10.9,0.2-20.1,8.9-20.3,19.8
			c-0.3,12.8-0.1,25.6-0.2,38.5c0,1.1,0.5,1.9,1.1,2.7c2.9,3.8,2.4,8.6-0.9,11.4c-3.2,2.7-8.1,2.5-11.1-0.5c-3-3.1-3.2-7.9-0.2-11.3
			c1-1.1,1.2-2.1,1.2-3.4c0-12.1,0-24.2,0-36.2c0.1-17.1,13.8-30.8,30.8-30.8c17,0,30.8,13.7,30.9,30.8
			C154.7,50.5,154.7,56.3,154.7,62.1z"/>
	</g>
</g>
</svg>
