<?xml version="1.0" encoding="utf-8"?>
<!-- Generator: Adobe Illustrator 17.0.0, SVG Export Plug-In . SVG Version: 6.00 Build 0)  -->
<!DOCTYPE svg PUBLIC "-//W3C//DTD SVG 1.1//EN" "http://www.w3.org/Graphics/SVG/1.1/DTD/svg11.dtd">
<svg version="1.1" id="Layer_1" xmlns="http://www.w3.org/2000/svg" xmlns:xlink="http://www.w3.org/1999/xlink" x="0px" y="0px"
	 width="500px" height="500px" viewBox="0 0 500 500" enable-background="new 0 0 500 500" xml:space="preserve">
<linearGradient id="SVGID_1_" gradientUnits="userSpaceOnUse" x1="104.6496" y1="249.7183" x2="393.6357" y2="249.7183">
	<stop  offset="0.0056" style="stop-color:#EBC17D"/>
	<stop  offset="0.1854" style="stop-color:#DFB77C"/>
	<stop  offset="0.5955" style="stop-color:#C08329"/>
	<stop  offset="0.8708" style="stop-color:#EABE81"/>
	<stop  offset="1" style="stop-color:#EEDCC3"/>
</linearGradient>
<path fill="#FFFFFF" stroke="url(#SVGID_1_)" stroke-width="10" stroke-miterlimit="10" d="M388.636,377.622
	c0,6.627-4.851,12-10.835,12H120.485c-5.984,0-10.835-5.373-10.835-12V121.814c0-6.627,4.851-12,10.835-12h257.316
	c5.984,0,10.835,5.373,10.835,12V377.622z"/>
<g>
	<g>
		<path fill="none" stroke="#FFFFFF" stroke-width="0.9221" stroke-miterlimit="10" d="M344.359,301.944l-22.572-22.572
			c0.406-0.616,0.78-1.26,1.11-1.943c1.825-3.782,1.933-7.95,2.039-11.981c0.068-2.591,0.131-5.039,0.636-7.257
			c0.477-2.099,1.457-4.266,2.494-6.56c1.684-3.724,3.425-7.573,3.425-11.931c0-4.358-1.741-8.208-3.425-11.931
			c-1.037-2.294-2.017-4.461-2.494-6.56c-0.504-2.218-0.568-4.666-0.636-7.257c-0.105-4.031-0.214-8.199-2.039-11.981
			c-1.858-3.852-5.078-6.547-8.192-9.154c-1.96-1.641-3.811-3.191-5.191-4.918c-1.393-1.744-2.501-3.905-3.675-6.192
			c-1.848-3.601-3.759-7.325-7.077-9.975c-3.302-2.636-7.35-3.674-11.265-4.678l-0.627-0.161c-1.547-0.399-3.122,0.532-3.52,2.078
			c-0.398,1.546,0.532,3.122,2.078,3.52l0.633,0.163c3.477,0.891,6.761,1.733,9.094,3.595c2.349,1.876,3.899,4.898,5.54,8.097
			c1.252,2.44,2.546,4.963,4.301,7.16c1.741,2.181,3.905,3.992,5.997,5.744c2.766,2.315,5.379,4.502,6.696,7.233
			c1.285,2.663,1.373,6.042,1.466,9.62c0.072,2.759,0.146,5.611,0.778,8.387c0.606,2.668,1.754,5.206,2.864,7.661
			c1.497,3.311,2.911,6.438,2.911,9.55s-1.414,6.239-2.911,9.549c-1.11,2.455-2.258,4.993-2.864,7.661
			c-0.631,2.776-0.705,5.628-0.778,8.387c-0.093,3.577-0.181,6.957-1.466,9.62c-1.317,2.73-3.93,4.918-6.696,7.233
			c-2.093,1.751-4.256,3.563-5.998,5.743c-1.754,2.197-3.048,4.72-4.3,7.16c-1.641,3.199-3.192,6.222-5.54,8.097
			c-2.333,1.863-5.617,2.705-9.094,3.595c-2.663,0.682-5.417,1.388-7.962,2.616c-2.487,1.2-4.718,2.894-6.876,4.532
			c-2.885,2.19-5.611,4.26-8.603,4.94c-2.836,0.644-6.127-0.017-9.611-0.718c-2.734-0.55-5.561-1.118-8.454-1.118
			c-2.893,0-5.72,0.569-8.454,1.118c-3.483,0.701-6.773,1.362-9.61,0.718c-2.993-0.68-5.718-2.749-8.603-4.94
			c-2.157-1.638-4.388-3.331-6.876-4.532c-2.545-1.228-5.299-1.933-7.962-2.616c-3.477-0.891-6.761-1.733-9.094-3.595
			c-2.349-1.876-3.899-4.898-5.54-8.097c-1.252-2.44-2.546-4.963-4.3-7.16c-1.741-2.181-3.905-3.992-5.998-5.744
			c-2.766-2.315-5.379-4.502-6.696-7.233c-1.285-2.663-1.373-6.042-1.466-9.62c-0.072-2.758-0.146-5.611-0.777-8.387
			c-0.606-2.668-1.754-5.207-2.864-7.661c-1.497-3.31-2.911-6.437-2.911-9.549s1.414-6.239,2.911-9.549
			c1.11-2.455,2.258-4.993,2.864-7.661c0.631-2.776,0.705-5.628,0.777-8.387c0.093-3.577,0.182-6.957,1.466-9.62
			c1.317-2.73,3.93-4.917,6.696-7.233c2.093-1.751,4.257-3.563,5.998-5.744c1.754-2.197,3.049-4.72,4.301-7.16
			c1.641-3.199,3.192-6.221,5.541-8.097c2.333-1.863,5.617-2.705,9.094-3.595c2.663-0.683,5.417-1.389,7.962-2.616
			c2.487-1.2,4.718-2.894,6.876-4.532c2.885-2.19,5.611-4.26,8.603-4.94c2.837-0.644,6.127,0.017,9.61,0.718
			c2.734,0.55,5.561,1.118,8.454,1.118s5.719-0.569,8.454-1.118c3.483-0.7,6.772-1.362,9.611-0.718
			c2.992,0.68,5.718,2.749,8.603,4.94c0.603,0.458,1.205,0.914,1.809,1.359c1.287,0.947,3.095,0.67,4.041-0.615
			c0.946-1.286,0.67-3.095-0.615-4.041c-0.581-0.427-1.16-0.867-1.738-1.306c-3.248-2.466-6.607-5.016-10.817-5.973
			c-4.045-0.919-8.105-0.102-12.031,0.687c-2.57,0.517-4.997,1.005-7.314,1.005s-4.744-0.488-7.314-1.005
			c-3.927-0.79-7.987-1.607-12.031-0.687c-4.211,0.957-7.569,3.507-10.817,5.973c-2.019,1.533-3.927,2.981-5.892,3.93
			c-2.026,0.977-4.386,1.582-6.885,2.223c-3.915,1.004-7.963,2.041-11.265,4.678c-3.319,2.65-5.229,6.374-7.077,9.975
			c-1.174,2.288-2.282,4.448-3.675,6.192c-1.379,1.727-3.231,3.277-5.191,4.918c-3.114,2.607-6.334,5.302-8.192,9.154
			c-1.825,3.782-1.933,7.95-2.039,11.981c-0.068,2.591-0.131,5.039-0.636,7.257c-0.477,2.099-1.457,4.266-2.494,6.56
			c-1.684,3.724-3.425,7.573-3.425,11.931c0,4.358,1.741,8.207,3.425,11.931c1.037,2.294,2.017,4.461,2.494,6.56
			c0.504,2.218,0.568,4.666,0.636,7.257c0.105,4.031,0.214,8.199,2.038,11.981c0.717,1.487,1.639,2.8,2.678,4.004l-20.51,20.51
			c-1.187,1.187-1.659,2.869-1.264,4.5c0.395,1.631,1.586,2.911,3.184,3.423l25.852,8.279c0.732,0.234,1.309,0.812,1.544,1.544
			l8.279,25.852c0.512,1.599,1.791,2.789,3.422,3.184c1.606,0.393,3.313-0.071,4.5-1.264l25.46-25.46
			c1.795,1.087,3.712,1.984,5.85,2.47c1.275,0.29,2.551,0.407,3.824,0.407c2.766,0,5.518-0.554,8.207-1.094
			c2.57-0.517,4.997-1.005,7.314-1.005c2.317,0,4.744,0.488,7.314,1.005c3.927,0.79,7.988,1.606,12.031,0.687
			c3.028-0.688,5.614-2.201,8.036-3.913l26.902,26.902c1.188,1.193,2.895,1.657,4.5,1.264c1.631-0.396,2.911-1.586,3.422-3.184
			l8.279-25.852c0.234-0.732,0.812-1.309,1.544-1.544l9.012-2.887c1.52-0.487,2.358-2.114,1.871-3.634
			c-0.487-1.52-2.116-2.358-3.634-1.871l-9.012,2.887c-2.508,0.803-4.484,2.779-5.287,5.286l-7.776,24.281l-25.136-25.136
			c1.337-0.978,2.649-1.857,3.986-2.502c2.026-0.977,4.386-1.582,6.885-2.223c3.915-1.004,7.963-2.041,11.265-4.678
			c3.319-2.65,5.23-6.374,7.077-9.976c1.173-2.287,2.282-4.448,3.674-6.192c1.379-1.727,3.231-3.277,5.191-4.917
			c1.1-0.921,2.213-1.854,3.274-2.844l21.126,21.125l-3.359,1.076c-1.52,0.487-2.358,2.114-1.871,3.634
			c0.393,1.227,1.529,2.009,2.752,2.009c0.292,0,5.812-1.718,5.812-1.718c1.599-0.512,2.789-1.791,3.184-3.422
			C346.018,304.814,345.545,303.131,344.359,301.944L344.359,301.944z M190.981,342.209l-7.776-24.281
			c-0.803-2.507-2.779-4.483-5.286-5.285l-24.281-7.776l19.42-19.42c0.45,0.383,0.901,0.762,1.351,1.138
			c1.96,1.641,3.812,3.191,5.191,4.918c1.393,1.744,2.501,3.905,3.675,6.192c1.848,3.601,3.758,7.326,7.077,9.976
			c3.302,2.637,7.35,3.675,11.265,4.678c2.499,0.641,4.859,1.245,6.885,2.223c1.965,0.948,3.873,2.397,5.892,3.93
			c0.056,0.042,0.112,0.085,0.168,0.127L190.981,342.209z"/>
		<path fill="none" stroke="#FFFFFF" stroke-width="0.9221" stroke-miterlimit="10" d="M215.66,295.655
			c8.861,4.585,18.853,7.009,28.897,7.009c34.718,0,62.963-28.245,62.963-62.962c0-34.717-28.245-62.962-62.963-62.962
			c-34.717,0-62.962,28.245-62.962,62.962c0,18.693,8.23,36.3,22.58,48.308c1.224,1.024,3.047,0.863,4.071-0.362
			c1.025-1.224,0.862-3.047-0.362-4.071c-13.033-10.907-20.509-26.898-20.509-43.875c0-31.53,25.652-57.182,57.182-57.182
			c31.53,0,57.182,25.652,57.182,57.182s-25.652,57.182-57.182,57.182c-9.254,0-18.082-2.141-26.24-6.362
			c-1.417-0.733-3.161-0.179-3.895,1.238C213.688,293.177,214.242,294.921,215.66,295.655L215.66,295.655z"/>
		<g>
			<path fill="none" stroke="#FFFFFF" stroke-width="0.9221" stroke-miterlimit="10" d="M244.508,288.549
				c-26.778,0-48.564-21.786-48.564-48.564c0-26.779,21.786-48.565,48.564-48.565c26.778,0,48.564,21.786,48.564,48.565
				C293.072,266.762,271.287,288.549,244.508,288.549L244.508,288.549z M244.508,197.048c-23.675,0-42.936,19.261-42.936,42.936
				s19.261,42.936,42.936,42.936s42.936-19.261,42.936-42.936C287.444,216.309,268.183,197.048,244.508,197.048L244.508,197.048z"/>
		</g>
		<g>
			<g>
				<g>
					<path fill="none" stroke="#FFFFFF" stroke-width="0.9221" stroke-miterlimit="10" d="M260.342,266.596h-38.038
						c-2.633,0-4.768-2.135-4.768-4.768v-21.367c0-2.633,2.135-4.768,4.768-4.768h5.026c0.304-0.962,0.692-1.898,1.158-2.791
						c0.993-1.904,6.18-11.757,7.742-14.793c0.068-0.132,0.151-0.52,0.122-0.966c-0.199-3.024-0.511-6.05-0.789-8.613
						c-0.105-0.964-0.045-3.314,2.758-4.309c4.974-1.766,9.843,0.023,12.705,4.665c2.562,4.154,2.523,8.715,2.202,12.224
						c-0.107,1.176-0.257,2.355-0.413,3.513l13.45,0.022c3.802,0.117,7.242,2.702,8.286,6.36c0.21,0.736,0.324,1.498,0.324,2.269
						c0,1.563-0.426,3.083-1.209,4.404c0.987,1.38,1.54,3.052,1.54,4.784c0,2.31-0.952,4.455-2.58,5.983
						c0.16,0.644,0.241,1.308,0.241,1.977c0,3.046-1.669,5.758-4.209,7.176c0.046,0.481,0.05,0.968,0.01,1.453
						C268.326,263.283,264.669,266.596,260.342,266.596L260.342,266.596z M223.36,260.772h36.982c1.315,0,2.423-0.962,2.522-2.19
						c0.034-0.415-0.034-0.812-0.2-1.181c-0.422-0.938-0.391-1.996,0.085-2.904c0.476-0.907,1.327-1.534,2.337-1.72
						c1.135-0.208,1.957-1.198,1.957-2.353c0-0.429-0.109-0.833-0.324-1.202c-0.458-0.785-0.574-1.734-0.319-2.605
						c0.255-0.871,0.866-1.608,1.675-2.02c0.806-0.412,1.307-1.229,1.307-2.133c0-0.777-0.363-1.485-0.995-1.942
						c-0.818-0.593-1.317-1.508-1.369-2.513c-0.053-1.004,0.347-1.964,1.096-2.637c0.605-0.542,0.938-1.287,0.938-2.096
						c0-1.529-1.197-2.764-2.726-2.811l-0.099-0.003l-15.69-0.016c-1.107-0.001-2.16-0.48-2.888-1.315
						c-0.729-0.835-1.061-1.945-0.912-3.044c0,0,0.563-4.069,0.694-5.505c0.363-3.98-0.031-6.483-1.36-8.638
						c-1.184-1.92-2.712-2.769-4.556-2.538c0.238,2.27,0.481,4.803,0.65,7.355c0.056,0.843,0.031,2.485-0.754,4.012
						c-1.575,3.06-6.768,12.925-7.758,14.823c-0.408,0.782-0.727,1.615-0.946,2.475c-0.518,2.029-2.347,3.445-4.45,3.445h-4.895
						L223.36,260.772z M270.728,249.782c-0.002,0.001-0.003,0.002-0.005,0.002C270.725,249.784,270.726,249.783,270.728,249.782z"/>
				</g>
			</g>
		</g>
	</g>
	<g>
		<linearGradient id="SVGID_2_" gradientUnits="userSpaceOnUse" x1="151.6472" y1="251.5061" x2="350.4221" y2="251.5061">
			<stop  offset="0.0056" style="stop-color:#EBC17D"/>
			<stop  offset="0.1854" style="stop-color:#DFB77C"/>
			<stop  offset="0.5955" style="stop-color:#C08329"/>
			<stop  offset="0.8708" style="stop-color:#EABE81"/>
			<stop  offset="1" style="stop-color:#EEDCC3"/>
		</linearGradient>
		<path fill="url(#SVGID_2_)" d="M349.021,301.759l-22.572-22.572c0.406-0.616,0.78-1.26,1.11-1.943
			c1.825-3.782,1.933-7.95,2.039-11.981c0.068-2.591,0.131-5.038,0.636-7.257c0.477-2.099,1.457-4.266,2.494-6.56
			c1.684-3.724,3.425-7.573,3.425-11.931c0-4.358-1.741-8.208-3.425-11.931c-1.037-2.294-2.017-4.461-2.494-6.56
			c-0.504-2.218-0.568-4.666-0.636-7.257c-0.105-4.031-0.214-8.199-2.039-11.981c-1.858-3.852-5.078-6.547-8.192-9.154
			c-1.96-1.641-3.811-3.191-5.191-4.918c-1.393-1.744-2.501-3.905-3.675-6.192c-1.848-3.601-3.758-7.325-7.077-9.975
			c-3.302-2.637-7.35-3.674-11.265-4.678l-0.627-0.161c-1.547-0.399-3.122,0.532-3.52,2.078c-0.398,1.546,0.532,3.122,2.078,3.52
			l0.633,0.163c3.477,0.891,6.761,1.733,9.094,3.595c2.349,1.876,3.899,4.898,5.54,8.097c1.252,2.44,2.546,4.963,4.301,7.16
			c1.741,2.181,3.905,3.992,5.997,5.744c2.766,2.315,5.379,4.502,6.696,7.233c1.285,2.663,1.373,6.042,1.466,9.62
			c0.072,2.759,0.146,5.611,0.778,8.387c0.606,2.668,1.754,5.206,2.864,7.661c1.497,3.311,2.911,6.438,2.911,9.55
			s-1.414,6.239-2.911,9.549c-1.11,2.455-2.258,4.993-2.864,7.661c-0.631,2.776-0.705,5.628-0.778,8.387
			c-0.093,3.577-0.181,6.957-1.466,9.62c-1.317,2.73-3.93,4.918-6.696,7.233c-2.093,1.751-4.256,3.563-5.998,5.743
			c-1.754,2.197-3.048,4.72-4.3,7.16c-1.641,3.199-3.192,6.222-5.54,8.097c-2.333,1.863-5.617,2.705-9.094,3.595
			c-2.663,0.683-5.417,1.388-7.962,2.616c-2.487,1.2-4.718,2.894-6.876,4.532c-2.885,2.19-5.611,4.26-8.603,4.94
			c-2.836,0.644-6.127-0.017-9.611-0.718c-2.734-0.55-5.561-1.119-8.454-1.119s-5.72,0.569-8.454,1.119
			c-3.483,0.701-6.773,1.362-9.61,0.718c-2.993-0.68-5.718-2.749-8.603-4.94c-2.157-1.638-4.388-3.331-6.876-4.532
			c-2.545-1.228-5.299-1.933-7.962-2.616c-3.477-0.891-6.761-1.733-9.094-3.595c-2.349-1.876-3.899-4.898-5.54-8.097
			c-1.252-2.44-2.546-4.963-4.3-7.16c-1.741-2.181-3.905-3.992-5.998-5.744c-2.766-2.315-5.379-4.502-6.696-7.233
			c-1.285-2.663-1.373-6.042-1.466-9.62c-0.072-2.758-0.146-5.611-0.777-8.387c-0.606-2.668-1.754-5.207-2.864-7.661
			c-1.497-3.31-2.911-6.437-2.911-9.549c0-3.112,1.414-6.239,2.911-9.549c1.11-2.455,2.258-4.993,2.864-7.661
			c0.631-2.776,0.705-5.628,0.777-8.387c0.093-3.577,0.182-6.957,1.466-9.62c1.317-2.73,3.93-4.917,6.696-7.233
			c2.093-1.751,4.257-3.563,5.998-5.744c1.754-2.197,3.049-4.72,4.301-7.16c1.641-3.199,3.192-6.221,5.541-8.097
			c2.333-1.863,5.617-2.705,9.094-3.595c2.663-0.683,5.417-1.389,7.962-2.616c2.487-1.2,4.718-2.894,6.876-4.532
			c2.885-2.19,5.611-4.26,8.603-4.94c2.837-0.644,6.127,0.017,9.61,0.718c2.734,0.55,5.561,1.119,8.454,1.119
			c2.893,0,5.719-0.569,8.454-1.119c3.483-0.7,6.772-1.362,9.611-0.718c2.992,0.68,5.718,2.749,8.603,4.94
			c0.603,0.458,1.205,0.914,1.809,1.359c1.287,0.947,3.095,0.67,4.041-0.615c0.946-1.286,0.67-3.095-0.615-4.041
			c-0.581-0.427-1.16-0.867-1.739-1.306c-3.248-2.466-6.607-5.016-10.817-5.973c-4.045-0.919-8.105-0.102-12.031,0.687
			c-2.57,0.517-4.997,1.005-7.314,1.005s-4.744-0.488-7.314-1.005c-3.927-0.79-7.987-1.607-12.031-0.687
			c-4.211,0.957-7.569,3.507-10.817,5.973c-2.019,1.533-3.927,2.981-5.892,3.93c-2.026,0.977-4.386,1.582-6.885,2.223
			c-3.915,1.004-7.963,2.041-11.265,4.678c-3.319,2.65-5.229,6.374-7.077,9.975c-1.174,2.288-2.282,4.448-3.675,6.192
			c-1.379,1.727-3.231,3.277-5.191,4.918c-3.114,2.607-6.334,5.302-8.192,9.154c-1.825,3.782-1.933,7.95-2.039,11.981
			c-0.068,2.591-0.131,5.039-0.636,7.257c-0.477,2.099-1.457,4.266-2.494,6.56c-1.684,3.724-3.425,7.573-3.425,11.931
			c0,4.358,1.741,8.207,3.425,11.931c1.037,2.294,2.017,4.461,2.494,6.56c0.504,2.218,0.568,4.666,0.636,7.257
			c0.105,4.031,0.214,8.199,2.038,11.981c0.717,1.487,1.639,2.8,2.678,4.004l-20.51,20.51c-1.187,1.187-1.659,2.869-1.264,4.5
			c0.395,1.631,1.586,2.911,3.184,3.423l25.852,8.28c0.732,0.234,1.309,0.812,1.544,1.544l8.279,25.852
			c0.512,1.599,1.791,2.789,3.422,3.184c1.606,0.393,3.313-0.071,4.5-1.264l25.46-25.46c1.795,1.087,3.712,1.984,5.85,2.47
			c1.275,0.29,2.551,0.407,3.824,0.407c2.766,0,5.518-0.554,8.206-1.094c2.57-0.517,4.997-1.005,7.314-1.005
			c2.317,0,4.744,0.488,7.314,1.005c3.927,0.79,7.988,1.606,12.031,0.687c3.028-0.688,5.614-2.201,8.036-3.913l26.902,26.902
			c1.188,1.193,2.895,1.657,4.5,1.264c1.631-0.396,2.911-1.586,3.422-3.184l8.279-25.852c0.234-0.732,0.812-1.309,1.544-1.544
			l9.012-2.887c1.52-0.487,2.358-2.114,1.871-3.634c-0.487-1.52-2.116-2.358-3.634-1.871l-9.012,2.887
			c-2.508,0.803-4.484,2.779-5.287,5.286l-7.776,24.281l-25.136-25.136c1.337-0.978,2.649-1.857,3.986-2.502
			c2.026-0.977,4.386-1.582,6.885-2.223c3.915-1.004,7.963-2.041,11.265-4.678c3.319-2.65,5.23-6.374,7.077-9.976
			c1.173-2.287,2.282-4.448,3.674-6.192c1.379-1.727,3.231-3.277,5.191-4.917c1.1-0.921,2.213-1.854,3.274-2.844l21.126,21.125
			l-3.359,1.076c-1.52,0.487-2.358,2.114-1.871,3.634c0.393,1.227,1.528,2.009,2.752,2.009c0.292,0,5.812-1.718,5.812-1.718
			c1.599-0.512,2.789-1.791,3.184-3.422C350.68,304.628,350.207,302.946,349.021,301.759L349.021,301.759z M195.643,342.023
			l-7.776-24.281c-0.803-2.507-2.779-4.483-5.286-5.285L158.3,304.68l19.42-19.42c0.45,0.383,0.901,0.762,1.351,1.138
			c1.96,1.641,3.812,3.191,5.191,4.918c1.393,1.744,2.501,3.905,3.675,6.192c1.848,3.601,3.758,7.326,7.077,9.976
			c3.302,2.637,7.35,3.675,11.265,4.678c2.499,0.641,4.859,1.245,6.885,2.223c1.965,0.948,3.873,2.397,5.892,3.93
			c0.056,0.042,0.112,0.085,0.168,0.127L195.643,342.023z"/>
		<linearGradient id="SVGID_3_" gradientUnits="userSpaceOnUse" x1="186.2565" y1="239.5161" x2="312.1816" y2="239.5161">
			<stop  offset="0.0056" style="stop-color:#EBC17D"/>
			<stop  offset="0.1854" style="stop-color:#DFB77C"/>
			<stop  offset="0.5955" style="stop-color:#C08329"/>
			<stop  offset="0.8708" style="stop-color:#EABE81"/>
			<stop  offset="1" style="stop-color:#EEDCC3"/>
		</linearGradient>
		<path fill="url(#SVGID_3_)" d="M220.322,295.469c8.861,4.585,18.853,7.009,28.897,7.009c34.718,0,62.963-28.245,62.963-62.962
			c0-34.717-28.245-62.962-62.963-62.962c-34.717,0-62.962,28.245-62.962,62.962c0,18.693,8.23,36.3,22.58,48.308
			c1.224,1.024,3.047,0.863,4.071-0.362c1.025-1.224,0.862-3.047-0.362-4.071c-13.033-10.907-20.509-26.898-20.509-43.875
			c0-31.53,25.652-57.182,57.182-57.182c31.53,0,57.182,25.652,57.182,57.182s-25.652,57.182-57.182,57.182
			c-9.254,0-18.082-2.141-26.24-6.362c-1.417-0.733-3.161-0.179-3.895,1.238C218.35,292.992,218.904,294.736,220.322,295.469
			L220.322,295.469z"/>
		<g>
			<linearGradient id="SVGID_4_" gradientUnits="userSpaceOnUse" x1="200.6061" y1="239.7987" x2="297.7346" y2="239.7987">
				<stop  offset="0.0056" style="stop-color:#EBC17D"/>
				<stop  offset="0.1854" style="stop-color:#DFB77C"/>
				<stop  offset="0.5955" style="stop-color:#C08329"/>
				<stop  offset="0.8708" style="stop-color:#EABE81"/>
				<stop  offset="1" style="stop-color:#EEDCC3"/>
			</linearGradient>
			<path fill="url(#SVGID_4_)" d="M249.17,288.363c-26.778,0-48.564-21.786-48.564-48.564c0-26.779,21.786-48.565,48.564-48.565
				s48.564,21.786,48.564,48.565C297.735,266.577,275.949,288.363,249.17,288.363L249.17,288.363z M249.17,196.863
				c-23.675,0-42.936,19.261-42.936,42.936s19.261,42.936,42.936,42.936s42.936-19.261,42.936-42.936
				S272.845,196.863,249.17,196.863L249.17,196.863z"/>
		</g>
		<g>
			<g>
				<g>
					<linearGradient id="SVGID_5_" gradientUnits="userSpaceOnUse" x1="222.1989" y1="234.8894" x2="279.8684" y2="234.8894">
						<stop  offset="0.0056" style="stop-color:#EBC17D"/>
						<stop  offset="0.1854" style="stop-color:#DFB77C"/>
						<stop  offset="0.5955" style="stop-color:#C08329"/>
						<stop  offset="0.8708" style="stop-color:#EABE81"/>
						<stop  offset="1" style="stop-color:#EEDCC3"/>
					</linearGradient>
					<path fill="url(#SVGID_5_)" d="M265.004,266.41h-38.038c-2.633,0-4.768-2.135-4.768-4.768v-21.367
						c0-2.633,2.135-4.768,4.768-4.768h5.026c0.304-0.962,0.692-1.898,1.158-2.791c0.993-1.904,6.18-11.757,7.742-14.793
						c0.068-0.132,0.151-0.52,0.122-0.966c-0.199-3.024-0.511-6.05-0.788-8.613c-0.105-0.964-0.045-3.314,2.758-4.309
						c4.974-1.766,9.843,0.023,12.705,4.665c2.562,4.155,2.523,8.715,2.202,12.224c-0.107,1.176-0.257,2.355-0.413,3.513
						l13.45,0.022c3.802,0.117,7.243,2.702,8.286,6.36c0.21,0.736,0.324,1.498,0.324,2.269c0,1.563-0.426,3.083-1.209,4.404
						c0.987,1.38,1.54,3.052,1.54,4.784c0,2.31-0.952,4.455-2.58,5.983c0.16,0.644,0.241,1.308,0.241,1.977
						c0,3.046-1.669,5.758-4.209,7.176c0.046,0.481,0.05,0.968,0.01,1.453C272.989,263.098,269.331,266.41,265.004,266.41
						L265.004,266.41z M228.022,260.587h36.982c1.315,0,2.423-0.962,2.522-2.19c0.034-0.415-0.034-0.812-0.2-1.181
						c-0.422-0.938-0.391-1.996,0.085-2.904c0.476-0.907,1.327-1.534,2.337-1.72c1.135-0.208,1.957-1.198,1.957-2.353
						c0-0.429-0.109-0.833-0.324-1.202c-0.458-0.785-0.574-1.734-0.319-2.605c0.255-0.871,0.866-1.608,1.675-2.02
						c0.806-0.412,1.307-1.229,1.307-2.133c0-0.777-0.363-1.485-0.995-1.942c-0.818-0.593-1.317-1.508-1.369-2.513
						c-0.053-1.004,0.347-1.964,1.096-2.637c0.605-0.542,0.938-1.287,0.938-2.096c0-1.529-1.197-2.764-2.726-2.811l-0.099-0.003
						l-15.69-0.016c-1.107-0.001-2.16-0.48-2.888-1.315c-0.729-0.835-1.061-1.945-0.912-3.044c0,0,0.563-4.069,0.694-5.505
						c0.363-3.98-0.031-6.483-1.36-8.638c-1.184-1.92-2.712-2.769-4.556-2.538c0.238,2.27,0.481,4.803,0.65,7.355
						c0.056,0.843,0.031,2.485-0.754,4.012c-1.575,3.06-6.768,12.925-7.758,14.823c-0.408,0.782-0.727,1.615-0.946,2.475
						c-0.518,2.029-2.347,3.445-4.45,3.445h-4.895L228.022,260.587z M275.391,249.597c-0.002,0.001-0.003,0.002-0.005,0.002
						C275.387,249.598,275.389,249.598,275.391,249.597z"/>
				</g>
			</g>
		</g>
	</g>
</g>
</svg>
