<?xml version="1.0" encoding="utf-8"?>
<!-- Generator: Adobe Illustrator 17.0.0, SVG Export Plug-In . SVG Version: 6.00 Build 0)  -->
<!DOCTYPE svg PUBLIC "-//W3C//DTD SVG 1.1//EN" "http://www.w3.org/Graphics/SVG/1.1/DTD/svg11.dtd">
<svg version="1.1" id="Layer_1" xmlns="http://www.w3.org/2000/svg" xmlns:xlink="http://www.w3.org/1999/xlink" x="0px" y="0px"
	 width="500px" height="500px" viewBox="0 0 500 500" enable-background="new 0 0 500 500" xml:space="preserve">
<linearGradient id="SVGID_1_" gradientUnits="userSpaceOnUse" x1="104.6496" y1="249.7183" x2="393.6357" y2="249.7183">
	<stop  offset="0.0056" style="stop-color:#EBC17D"/>
	<stop  offset="0.1854" style="stop-color:#DFB77C"/>
	<stop  offset="0.5955" style="stop-color:#C08329"/>
	<stop  offset="0.8708" style="stop-color:#EABE81"/>
	<stop  offset="1" style="stop-color:#EEDCC3"/>
</linearGradient>
<path fill="#FFFFFF" stroke="url(#SVGID_1_)" stroke-width="10" stroke-miterlimit="10" d="M388.636,377.622
	c0,6.627-4.851,12-10.835,12H120.485c-5.984,0-10.835-5.373-10.835-12V121.814c0-6.627,4.851-12,10.835-12h257.316
	c5.984,0,10.835,5.373,10.835,12V377.622z"/>
<g>
	<linearGradient id="SVGID_2_" gradientUnits="userSpaceOnUse" x1="138.786" y1="230.4311" x2="330.3651" y2="230.4311">
		<stop  offset="0.0056" style="stop-color:#EBC17D"/>
		<stop  offset="0.1854" style="stop-color:#DFB77C"/>
		<stop  offset="0.5955" style="stop-color:#C08329"/>
		<stop  offset="0.8708" style="stop-color:#EABE81"/>
		<stop  offset="1" style="stop-color:#EEDCC3"/>
	</linearGradient>
	<linearGradient id="SVGID_3_" gradientUnits="userSpaceOnUse" x1="135.9599" y1="230.3703" x2="332.5178" y2="230.3703">
		<stop  offset="0.0056" style="stop-color:#EBC17D"/>
		<stop  offset="0.1854" style="stop-color:#DFB77C"/>
		<stop  offset="0.5955" style="stop-color:#C08329"/>
		<stop  offset="0.8708" style="stop-color:#EABE81"/>
		<stop  offset="1" style="stop-color:#EEDCC3"/>
	</linearGradient>
	<path fill="url(#SVGID_2_)" stroke="url(#SVGID_3_)" stroke-width="3" stroke-miterlimit="10" d="M248.702,257.403
		c-1.154,2.769-2.097,5.031-3.188,7.648c0.987,1.484,1.857,3.157,3.063,4.535c2.858,3.263,3.548,6.325,0.845,10.251
		c-1.305,1.896-1.222,4.748-1.758,7.121c5.083,0.526,9.68-0.147,12.842,1.673c2.78,1.6,3.953,5.99,6.352,10.014
		c1.392-0.665,3.38-1.272,4.955-2.437c3.77-2.787,7.744-2.811,11.576-0.772c2.584,1.375,4.943,4.607,7.902,2.464
		c3.158-2.288,5.798-5.501,8.107-8.71c5.933-8.246,2.316-16.38-1.682-23.759c-4.176-7.708-6.063-15.449-5.507-24.156
		c0.446-6.98,2.973-12.881,8.386-16.853c3.928-2.882,4.811-6.164,4.838-10.489c0.117-18.631,0.352-37.262,0.582-55.892
		c0.038-3.124,0.264-6.246,0.402-9.368c0.629-0.065,1.259-0.13,1.888-0.195c0.434,1.537,1.218,3.068,1.247,4.613
		c0.194,10.41-0.013,20.831,0.377,31.231c0.431,11.488,1.245,22.967,2.192,34.425c0.155,1.873,1.534,3.923,2.897,5.375
		c11.504,12.25,14.716,26.22,9.412,42.226c-1.715,5.175-3.338,10.441-4.292,15.792c-1.515,8.501,1.499,16.133,5.827,23.277
		c1.203,1.987,2.803,3.733,4.395,5.816c-3.598,2.455-5.233,0.571-6.984-1.812c-7.704-10.484-8.8-22.085-5.837-34.317
		c1.411-5.826,3.708-11.47,4.751-17.347c1.809-10.2-2.454-18.959-7.632-28.827c-2.536,4.345-4.398,7.535-6.192,10.61
		c-4.905-1.999-0.382-10.332-8.111-9.185c-6.939,10.766-5.523,21.391,0.611,32.049c3.423,5.947,5.776,12.147,5.128,19.334
		c-0.854,9.466-5.285,16.105-13.704,20.491c-2.773,1.445-5.039,3.933-7.392,6.103c-5.357,4.94-7.929,5.013-13.223,0.113
		c-0.795-0.736-1.609-1.487-2.241-2.358c-2.893-3.984-6.255-4.452-10.731-2.398c-5.143,2.361-9.556,0.056-11.237-5.311
		c-0.568-1.815-0.619-3.794-1.205-5.6c-0.578-1.782-1.534-3.442-2.372-5.257c-4.947-0.496-6.709,2.164-6.754,6.238
		c-0.039,3.507-0.871,6.432-3.758,8.646c-2.762,2.117-5.53,3.625-8.944,1.379c-4.381-2.881-7.676-1.085-10.649,2.428
		c-1.211,1.43-2.619,2.7-3.99,3.987c-2.936,2.755-5.874,2.417-8.775-0.086c-1.244-1.073-2.612-2.034-3.706-3.243
		c-3.469-3.836-6.93-5.418-12.241-2.688c-4.315,2.218-10.001-1.283-11.402-7.489c-1.447-6.408-4.853-10.259-10.129-13.749
		c-6.658-4.404-6.691-10.077-0.236-15.278c4.429-3.569,5.571-8.542,7.556-13.229c0.363-0.857,0.143-2.077-0.099-3.057
		c-2.094-8.488,1.154-13.061,9.906-13.941c1.332-0.134,2.634-0.56,4.466-0.966c0.12-2.157,0.272-4.263,0.348-6.371
		c0.218-6.011,1.837-8.122,7.632-9.866c6.762-2.035,6.697-2.008,3.733-9.106c-1.567-3.754-1.667-7.58,1.232-10.786
		c1.658-1.834,2.832-3.909,1.12-5.735c-1.245-1.328-3.864-2.478-5.523-2.116c-7.028,1.536-10.497-1.691-13.296-7.691
		c-3.311-7.099-5.537-7.246-11.52-2.135c-4.722,4.033-6.269,4.091-15.029,0.561c-5.19,1.946-6.471,6.025-6.233,11.084
		c0.295,6.292,0.972,12.641,0.425,18.872c-0.389,4.437-2.324,8.803-4.019,13.02c-0.452,1.126-2.557,1.588-5.322,3.162
		c1.412-3.838,2.023-6.38,3.226-8.602c3.798-7.019,3.538-14.339,1.19-21.485c-2.39-7.274,0.196-12.534,5.001-17.589
		c2.219-2.335,4.084-5.077,5.757-7.848c4.214-6.982,9.617-8.046,15.058-2.237c4.583,4.893,10.375,4.579,15.879,4.058
		c9.387-0.888,11.799,0.027,14.22,8.969c1.013,3.743,2.927,6.18,7.156,8.717c0.532-2.927,1.17-5.142,1.301-7.386
		c0.545-9.304,5.511-12.993,13.974-9.65c5.696,2.25,9.31-0.579,12.77-4.093c5.543-5.629,9.118-5.803,14.921-0.022
		c3.328,3.315,6.629,4.999,11.664,3.584c7.374-2.072,11.894,0.549,13.203,8.027c1.171,6.69,4.388,11.381,9.595,15.378
		c5.993,4.6,5.734,10.068-0.329,14.777c-1.072,0.833-2.46,1.283-3.461,2.179c-2.756,2.466-4.383,5.057-3.144,9.291
		c2.398,8.194-0.02,11.148-8.89,12.092c-5.33,0.568-6.087,1.35-6.226,6.432c-0.267,9.773-0.456,10.003-10.223,12.613
		C250.641,256.78,249.87,257.044,248.702,257.403z M193.812,298.789c3.962-1.717,7.567-4.461,11.227-4.536
		c3.705-0.076,7.464,2.489,11.365,3.959c0.525-0.32,1.386-0.606,1.872-1.2c0.668-0.817,1.15-1.828,1.541-2.823
		c2.541-6.467,3.728-7.569,10.533-6.738c3.558,0.434,5.029-0.969,6.298-3.905c-3.124-4.075-4.33-8.591-2.061-13.551
		c4.208-9.197,3.756-10.258-6.247-14.221c-5.247-2.079-7.38-6.149-6.954-11.983c0.151-2.069-0.949-4.23-1.418-6.11
		c-12.943-0.277-13.639-1.037-12.941-13.337c0.134-2.372,0.397-4.758-3.27-6.581c-0.538,2.891-1.543,5.221-1.275,7.394
		c1.116,9.067-0.314,11.29-8.823,12.456c-5.07,0.695-7.269,2.681-6.999,7.643c0.314,5.768-1.826,9.01-7.395,10.827
		c-7.37,2.404-8.677,6.158-4.847,12.799c2.27,3.935,2.542,8.048,0.445,11.666c-1.189,2.051-2.855,3.807-0.928,5.519
		c1.337,1.188,3.894,1.57,5.834,1.416c7.867-0.627,9.63,0.368,12.598,8.022C192.738,296.458,193.19,297.381,193.812,298.789z
		 M253.391,180.33c-2.233,1.297-4.135,2.241-5.86,3.439c-3.796,2.636-7.355,2.7-11.31,0.068c-6.284-4.183-7.69-3.933-11.11,2.915
		c-2.122,4.25-4.727,6.447-9.527,5.959c-1.54-0.157-3.135,0.217-5.913,0.45c0.776,3.045,0.842,5.813,2.123,7.8
		c2.555,3.964,2.51,7.368,0.041,11.318c-1.102,1.762-1.055,4.243-1.315,5.427c4.645,2.604,9.259,3.778,11.33,6.733
		c2.225,3.175,2.063,8.022,2.93,12.082c1.007,0.265,1.788,0.565,2.593,0.669c9.592,1.227,11.612,3.849,10.438,13.888
		c-0.491,4.203,1.526,6.513,6.143,8.457c0.402-3.493,1.096-6.358,0.992-9.194c-0.337-9.201,1.098-11.203,10.524-12.954
		c3.463-0.643,5.374-2.053,5.086-5.966c-0.488-6.641,1.278-8.897,7.359-11.314c2.252-0.895,4.185-2.594,6.167-3.864
		c-1.985-3.89-3.446-6.753-4.985-9.768c1.91-3.372,3.742-6.607,5.498-9.708c-1.431-3.401-3.62-4.924-7.2-4.2
		c-6.241,1.261-9.732-1.969-11.832-7.413C255.004,183.7,254.288,182.306,253.391,180.33z M167.788,280.711
		c1.924-2.469,3.942-3.994,4.4-5.895c0.683-2.836-1.94-3.538-4.182-3.66c-2.815-0.153-5.162,1.134-4.592,4.173
		C163.73,277.014,165.798,278.369,167.788,280.711z M210.324,301.556c-0.911-0.758-2.193-2.547-3.863-3.052
		c-2.737-0.827-5.189,0.831-5.208,3.555c-0.01,1.521,2.065,4.038,3.568,4.353C206.96,306.861,209.808,306.228,210.324,301.556z
		 M247.301,176.991c-2.189-1.902-3.711-4.207-5.527-4.467c-1.264-0.181-3.562,2.185-4.263,3.881c-0.98,2.374,2.231,6.002,4.6,5.236
		C243.852,181.078,245.115,179.038,247.301,176.991z M194.494,224.71c-4.332,1.432-6.501,3.855-4.194,7.415
		c0.687,1.059,4.957,1.26,6.214,0.212C200.272,229.202,197.492,226.801,194.494,224.71z M215.048,224.287
		c-2.076,1.864-5.569,2.186-4.435,5.905c0.384,1.261,1.7,2.762,2.91,3.149c3.813,1.219,5.027-1.716,6.606-4.683
		C218.406,227.176,216.867,225.852,215.048,224.287z M210.351,207.828c-3.655-5.429-6.47-6.738-8.596-4.308
		c-0.971,1.109-1.084,3.465-0.72,5.059c0.216,0.946,2.261,2.268,3.229,2.084C206.205,210.291,207.972,209.004,210.351,207.828z
		 M217.002,179.418c-3.114-0.349-3.765,2.113-3.782,4.096c-0.018,2.179-0.101,5.186,3.462,5.264c2.752,0.06,3.74-1.815,3.891-4.157
		C220.738,182.041,220.211,179.749,217.002,179.418z M195.117,184.041c-2.445-1.977-3.947-4.104-5.797-4.471
		c-2.743-0.544-3.514,2.083-3.511,4.348c0.003,2.636,0.934,5.291,4.126,4.661C191.552,188.26,192.815,186.147,195.117,184.041z
		 M253.596,241.533c-2.216,2.253-4.392,3.443-4.731,5.026c-0.67,3.125,1.974,4.109,4.549,4.114c2.11,0.004,4.894-0.353,4.314-3.314
		C257.37,245.541,255.445,244.03,253.596,241.533z M278.671,296.089c-2.219,2.956-3.801,4.286-4.33,5.951
		c-0.786,2.474,0.721,4.339,3.246,4.506c2.622,0.174,5.134-0.841,4.654-4.077C281.99,300.777,280.514,299.267,278.671,296.089z
		 M270.07,225.065c-4.976,1.722-6.672,3.871-4.758,6.665c0.791,1.154,3.171,1.978,4.64,1.748
		C272.771,233.036,272.747,229.794,270.07,225.065z M232.767,296.271c-1.134-4.441-3.735-6.032-7.24-4.078
		c-1.082,0.603-1.774,4.511-0.97,5.416C227.231,300.613,230.217,299.802,232.767,296.271z M270.013,183.907
		c-2.181-1.915-3.437-3.869-5.072-4.266c-2.855-0.694-3.703,1.875-3.735,4.084c-0.036,2.471,0.507,5.446,3.885,4.792
		C266.658,188.214,267.858,186.017,270.013,183.907z M278.588,202.458c-3.121,0.053-4.131,2.121-3.501,4.372
		c0.386,1.376,2.259,3.051,3.668,3.266c2.388,0.365,4.15-1.14,3.965-3.924C282.543,203.548,281.136,202.221,278.588,202.458z
		 M261.218,295.694c-2.754-1.855-4.373-3.544-6.313-4.091c-2.146-0.604-3.312,1.009-3.527,3.31
		c-0.317,3.395,1.839,4.518,4.428,4.305C257.287,299.097,258.642,297.448,261.218,295.694z M167.546,177.102
		c-2.246-2.05-3.699-4.397-5.076-4.353c-1.442,0.046-3.634,2.189-4.018,3.774c-0.59,2.434,0.629,5.235,3.742,4.841
		C163.807,181.161,165.181,179.074,167.546,177.102z M242.481,281.064c1.566-3.062,2.971-4.661,3.118-6.37
		c0.216-2.506-1.505-3.785-4.162-3.575c-2.473,0.195-4.547,1.33-3.867,3.867C238.058,276.806,240.084,278.215,242.481,281.064z
		 M181.525,250.927c0.482-0.491,0.965-0.982,1.447-1.473c-0.69-1.937-0.903-4.392-2.241-5.626c-0.865-0.797-3.667-0.279-5.044,0.561
		c-0.828,0.505-1.197,3.771-0.724,4.055C176.934,249.631,179.302,250.158,181.525,250.927z M179.065,296.514
		c0.658,0.503,1.95,2.204,3.53,2.538c2.566,0.543,4.159-1.32,3.621-3.8c-0.307-1.413-1.74-3.238-3.043-3.634
		C180.842,290.911,179.053,292.134,179.065,296.514z M233.889,250.116c0.17-3.407,1.287-6.61-3.574-6.765
		c-2.83-0.09-4.047,1.561-3.613,4.124C227.521,252.31,230.765,250.282,233.889,250.116z"/>
</g>
</svg>
