<?xml version="1.0" encoding="utf-8"?>
<!-- Generator: Adobe Illustrator 21.0.0, SVG Export Plug-In . SVG Version: 6.00 Build 0)  -->
<svg version="1.1" id="Layer_1" xmlns="http://www.w3.org/2000/svg" xmlns:xlink="http://www.w3.org/1999/xlink" x="0px" y="0px"
	 viewBox="0 0 250 250" style="enable-background:new 0 0 250 250;" xml:space="preserve">
<style type="text/css">
	.st0{fill:#FF9D3A;}
</style>
<g id="D605gH.tif">
	<g>
		<path class="st0" d="M234,96.9c-0.6,17.6-6.4,33.4-16.8,47.5c-11.3,15.3-24.9,28.3-39.4,40.5c-16,13.5-33,25.8-50.6,37.1
			c-1.4,0.9-2.4,1.1-4,0.1c-27.2-17.6-53.1-36.9-75.5-60.5c-10.1-10.7-19.5-22-25.3-35.8C9.3,94.8,17.6,64.2,41.3,45.5
			C64.7,27.1,100,27.7,122.8,47c1.6,1.4,2.6,1.6,4.4,0.2c37-30.3,94.9-13.4,105.6,37.2C233.6,88.5,234,92.7,234,96.9z M82.2,47.9
			c-9.8,0.2-17.8,2.2-25.1,6.4c-20.3,11.5-31.9,36.9-20,64.8c4.1,9.6,10.2,17.8,17,25.6c20.2,23,44.3,41.4,69.5,58.6
			c1.2,0.9,2.1,0.7,3.2-0.1c24.7-16.9,48.3-34.9,68.4-57.3c10.2-11.3,18.5-23.6,21.6-38.9c4-19.6-4.2-40.1-21.2-51.1
			c-16.9-10.9-40-10.1-55.9,1.9c-5.1,3.9-9.2,8.7-13.2,13.7c-1.1,1.4-1.8,1.5-2.9,0c-1.2-1.7-2.6-3.2-3.9-4.8
			C109.7,54.5,96.8,48.2,82.2,47.9z"/>
	</g>
</g>
<g id="D605gH.tif_1_">
	<g>
		<path class="st0" d="M525,96.9c-0.6,17.6-6.4,33.4-16.8,47.5c-11.3,15.3-24.9,28.3-39.4,40.5c-16,13.5-33,25.8-50.6,37.1
			c-1.4,0.9-2.4,1.1-4,0.1c-27.2-17.6-53.1-36.9-75.5-60.5c-10.1-10.7-19.5-22-25.3-35.8c-13.1-31.1-4.8-61.7,18.9-80.4
			c23.4-18.5,58.7-17.8,81.5,1.5c1.6,1.4,2.6,1.6,4.4,0.2c37-30.3,94.9-13.4,105.6,37.2C524.6,88.5,525,92.7,525,96.9z M373.2,47.9
			c-9.8,0.2-17.8,2.2-25.1,6.4c-20.3,11.5-31.9,36.9-20,64.8c4.1,9.6,10.2,17.8,17,25.6c20.2,23,44.3,41.4,69.5,58.6
			c1.2,0.9,2.1,0.7,3.2-0.1c24.7-16.9,48.3-34.9,68.4-57.3c10.2-11.3,18.5-23.6,21.6-38.9c4-19.6-4.2-40.1-21.2-51.1
			c-16.9-10.9-40-10.1-55.9,1.9c-5.1,3.9-9.2,8.7-13.2,13.7c-1.1,1.4-1.8,1.5-2.9,0c-1.2-1.7-2.6-3.2-3.9-4.8
			C400.6,54.5,387.7,48.2,373.2,47.9z"/>
		<path class="st0" d="M500.8,95.7c-0.1,5.2-0.6,9.1-1.8,12.8c-0.9,2.8-2.6,4-4.9,3.4c-2.4-0.6-3.5-2.6-2.7-5.5
			c2.3-8.6,1.9-16.9-2.4-24.7c-5.7-10.6-14.7-16.4-26.7-17.5c-0.7-0.1-1.5-0.1-2.2-0.2c-2.6-0.4-4.1-2-3.9-4.2
			c0.1-2.3,1.8-3.7,4.4-3.7c5.2,0,10.3,0.9,15,3.1C491.7,66.5,499.9,79.3,500.8,95.7z"/>
	</g>
</g>
</svg>
