<?xml version="1.0" encoding="utf-8"?>
<!-- Generator: Adobe Illustrator 17.0.0, SVG Export Plug-In . SVG Version: 6.00 Build 0)  -->
<!DOCTYPE svg PUBLIC "-//W3C//DTD SVG 1.1//EN" "http://www.w3.org/Graphics/SVG/1.1/DTD/svg11.dtd">
<svg version="1.1" id="Layer_1" xmlns="http://www.w3.org/2000/svg" xmlns:xlink="http://www.w3.org/1999/xlink" x="0px" y="0px"
	 width="500px" height="500px" viewBox="0 0 500 500" enable-background="new 0 0 500 500" xml:space="preserve">
<linearGradient id="SVGID_1_" gradientUnits="userSpaceOnUse" x1="104.6496" y1="249.7183" x2="393.6357" y2="249.7183">
	<stop  offset="0.0056" style="stop-color:#EBC17D"/>
	<stop  offset="0.1854" style="stop-color:#DFB77C"/>
	<stop  offset="0.5955" style="stop-color:#C08329"/>
	<stop  offset="0.8708" style="stop-color:#EABE81"/>
	<stop  offset="1" style="stop-color:#EEDCC3"/>
</linearGradient>
<path fill="#FFFFFF" stroke="url(#SVGID_1_)" stroke-width="10" stroke-miterlimit="10" d="M388.636,377.622
	c0,6.627-4.851,12-10.835,12H120.485c-5.984,0-10.835-5.373-10.835-12V121.814c0-6.627,4.851-12,10.835-12h257.316
	c5.984,0,10.835,5.373,10.835,12V377.622z"/>
<g>
	<linearGradient id="SVGID_2_" gradientUnits="userSpaceOnUse" x1="182.1129" y1="234.9938" x2="310.6427" y2="234.9938">
		<stop  offset="0.0056" style="stop-color:#EBC17D"/>
		<stop  offset="0.1854" style="stop-color:#DFB77C"/>
		<stop  offset="0.5955" style="stop-color:#C08329"/>
		<stop  offset="0.8708" style="stop-color:#EABE81"/>
		<stop  offset="1" style="stop-color:#EEDCC3"/>
	</linearGradient>
	<path fill="url(#SVGID_2_)" d="M310.643,299.259v-128.53h-128.53v128.53H310.643z M216.128,270.569l9.76,9.76l-11.212,11.399
		h-19.706L216.128,270.569z M216.128,210.069l9.862,9.862l-24.924,24.925l-9.862-9.862L216.128,210.069z M271.302,204.744
		l-9.862,9.862l-24.924-24.924l9.862-9.862L271.302,204.744z M276.628,259.918l-9.862-9.862l24.924-24.924l9.862,9.862
		L276.628,259.918z M261.565,274.98l-24.924-24.924l9.737-9.737l24.924,24.925L261.565,274.98z M261.44,244.731l-9.737-9.737
		l24.924-24.924l9.737,9.737L261.44,244.731z M231.19,195.007l24.924,24.924l-9.737,9.737l-24.924-24.924L231.19,195.007z
		 M231.316,225.257l9.737,9.737l-24.924,24.924l-9.737-9.737L231.316,225.257z M231.316,255.381l24.924,24.924l-9.862,9.862
		l-24.924-24.924L231.316,255.381z M231.213,285.654l6.074,6.074h-12.048L231.213,285.654z M276.628,270.569l9.633,9.633
		l-11.337,11.526h-19.455L276.628,270.569z M291.586,285.527l6.2,6.2h-12.299L291.586,285.527z M281.953,265.244l9.76-9.76
		l11.399,11.212v19.707L281.953,265.244z M303.112,256.133l-6.074-5.974l6.074-6.074V256.133z M281.953,204.744l9.633-9.633
		l11.526,11.337v19.455L281.953,204.744z M303.112,195.884l-6.2-6.099l6.2-6.2V195.884z M276.628,199.419l-9.76-9.76l11.212-11.399
		h19.706L276.628,199.419z M261.542,184.334l-6.074-6.074h12.048L261.542,184.334z M216.128,199.419l-9.633-9.633l11.337-11.526
		h19.455L216.128,199.419z M201.169,184.46l-6.2-6.2h12.299L201.169,184.46z M210.803,204.744l-9.76,9.76l-11.399-11.212v-19.706
		L210.803,204.744z M189.644,213.855l6.074,5.974l-6.074,6.074V213.855z M210.803,265.244l-9.633,9.633l-11.526-11.337v-19.455
		L210.803,265.244z M189.644,274.104l6.2,6.099l-6.2,6.2V274.104z"/>
</g>
</svg>
