<?xml version="1.0" encoding="utf-8"?>
<!-- Generator: Adobe Illustrator 17.0.0, SVG Export Plug-In . SVG Version: 6.00 Build 0)  -->
<!DOCTYPE svg PUBLIC "-//W3C//DTD SVG 1.1//EN" "http://www.w3.org/Graphics/SVG/1.1/DTD/svg11.dtd">
<svg version="1.1" id="Layer_1" xmlns="http://www.w3.org/2000/svg" xmlns:xlink="http://www.w3.org/1999/xlink" x="0px" y="0px"
	 width="500px" height="500px" viewBox="0 0 500 500" enable-background="new 0 0 500 500" xml:space="preserve">
<linearGradient id="SVGID_1_" gradientUnits="userSpaceOnUse" x1="104.6496" y1="249.7183" x2="393.6357" y2="249.7183">
	<stop  offset="0.0056" style="stop-color:#EBC17D"/>
	<stop  offset="0.1854" style="stop-color:#DFB77C"/>
	<stop  offset="0.5955" style="stop-color:#C08329"/>
	<stop  offset="0.8708" style="stop-color:#EABE81"/>
	<stop  offset="1" style="stop-color:#EEDCC3"/>
</linearGradient>
<path fill="#FFFFFF" stroke="url(#SVGID_1_)" stroke-width="10" stroke-miterlimit="10" d="M388.636,377.622
	c0,6.627-4.851,12-10.835,12H120.485c-5.984,0-10.835-5.373-10.835-12V121.814c0-6.627,4.851-12,10.835-12h257.316
	c5.984,0,10.835,5.373,10.835,12V377.622z"/>
<g>
	<linearGradient id="SVGID_2_" gradientUnits="userSpaceOnUse" x1="215.4165" y1="186.3975" x2="339.1429" y2="186.3975">
		<stop  offset="0.0056" style="stop-color:#EBC17D"/>
		<stop  offset="0.1854" style="stop-color:#DFB77C"/>
		<stop  offset="0.5955" style="stop-color:#C08329"/>
		<stop  offset="0.8708" style="stop-color:#EABE81"/>
		<stop  offset="1" style="stop-color:#EEDCC3"/>
	</linearGradient>
	<path fill="url(#SVGID_2_)" d="M339.143,221.146c-2.363-2.475-6.047-4.573-6.878-7.485c-6.528-22.853-22.229-35.92-44.037-42.974
		c-5.04-1.63-10.145-3.306-14.847-5.696c-16.219-8.245-32.225-8.296-48.531-0.201c-2.661,1.321-6.265,0.741-9.433,1.04
		c17.96-17.579,44.232-18.838,64.189-3.637c3.925,2.99,9.201,5.207,14.084,5.766c20.973,2.4,39.019,19.544,41.997,40.486
		C336.299,212.754,337.963,216.916,339.143,221.146z"/>
	<linearGradient id="SVGID_3_" gradientUnits="userSpaceOnUse" x1="160.2294" y1="193.9494" x2="215.8006" y2="193.9494">
		<stop  offset="0.0056" style="stop-color:#EBC17D"/>
		<stop  offset="0.1854" style="stop-color:#DFB77C"/>
		<stop  offset="0.5955" style="stop-color:#C08329"/>
		<stop  offset="0.8708" style="stop-color:#EABE81"/>
		<stop  offset="1" style="stop-color:#EEDCC3"/>
	</linearGradient>
	<path fill="url(#SVGID_3_)" d="M215.801,165.523c-1.983,1.723-3.691,4.292-5.991,5.037c-22.133,7.166-37.679,20.724-44.263,43.676
		c-0.854,2.977-3.501,5.439-5.318,8.139c2-21.809,8.439-41.257,30.49-50.623C198.549,168.427,207.41,167.529,215.801,165.523z"/>
	<linearGradient id="SVGID_4_" gradientUnits="userSpaceOnUse" x1="340.0968" y1="257.407" x2="352.1668" y2="257.407">
		<stop  offset="0.0056" style="stop-color:#EBC17D"/>
		<stop  offset="0.1854" style="stop-color:#DFB77C"/>
		<stop  offset="0.5955" style="stop-color:#C08329"/>
		<stop  offset="0.8708" style="stop-color:#EABE81"/>
		<stop  offset="1" style="stop-color:#EEDCC3"/>
	</linearGradient>
	<path fill="url(#SVGID_4_)" d="M342.394,284.63c-0.78-2.321-2.9-5.3-2.133-6.863c7.764-15.819,4.393-31.669,0.867-47.584
		c2.69,2.566,6.754,4.654,7.841,7.779C354.717,254.47,352.828,270.236,342.394,284.63z"/>
	<linearGradient id="SVGID_5_" gradientUnits="userSpaceOnUse" x1="146.0207" y1="256.804" x2="156.2633" y2="256.804">
		<stop  offset="0.0056" style="stop-color:#EBC17D"/>
		<stop  offset="0.1854" style="stop-color:#DFB77C"/>
		<stop  offset="0.5955" style="stop-color:#C08329"/>
		<stop  offset="0.8708" style="stop-color:#EABE81"/>
		<stop  offset="1" style="stop-color:#EEDCC3"/>
	</linearGradient>
	<path fill="url(#SVGID_5_)" d="M155.819,228.988c-0.354,4.078-1.095,8.166-0.985,12.231c0.288,10.729,1.034,21.444,1.406,32.172
		c0.13,3.733-0.301,7.486-0.476,11.229c-11.083-14.534-11.85-30.641-6.599-47.334C150.156,234.134,153.539,231.735,155.819,228.988z
		"/>
	<linearGradient id="SVGID_6_" gradientUnits="userSpaceOnUse" x1="220.0909" y1="352.228" x2="268.765" y2="352.228">
		<stop  offset="0.0056" style="stop-color:#EBC17D"/>
		<stop  offset="0.1854" style="stop-color:#DFB77C"/>
		<stop  offset="0.5955" style="stop-color:#C08329"/>
		<stop  offset="0.8708" style="stop-color:#EABE81"/>
		<stop  offset="1" style="stop-color:#EEDCC3"/>
	</linearGradient>
	<path fill="url(#SVGID_6_)" d="M220.091,347.21c2.417-0.388,4.86-1.227,7.247-1.089c13.816,0.8,27.619,1.831,41.427,2.784
		c-1.109,2.03-1.702,5.032-3.408,5.937C252.339,361.753,231.512,358.061,220.091,347.21z"/>
	<linearGradient id="SVGID_7_" gradientUnits="userSpaceOnUse" x1="302.083" y1="322.1873" x2="331.0522" y2="322.1873">
		<stop  offset="0.0056" style="stop-color:#EBC17D"/>
		<stop  offset="0.1854" style="stop-color:#DFB77C"/>
		<stop  offset="0.5955" style="stop-color:#C08329"/>
		<stop  offset="0.8708" style="stop-color:#EABE81"/>
		<stop  offset="1" style="stop-color:#EEDCC3"/>
	</linearGradient>
	<path fill="url(#SVGID_7_)" d="M302.083,336.434c9.656-9.498,19.313-18.996,28.969-28.494
		C330.508,324.324,318.364,336.269,302.083,336.434z"/>
	<linearGradient id="SVGID_8_" gradientUnits="userSpaceOnUse" x1="171.7484" y1="327.6667" x2="195.9439" y2="327.6667">
		<stop  offset="0.0056" style="stop-color:#EBC17D"/>
		<stop  offset="0.1854" style="stop-color:#DFB77C"/>
		<stop  offset="0.5955" style="stop-color:#C08329"/>
		<stop  offset="0.8708" style="stop-color:#EABE81"/>
		<stop  offset="1" style="stop-color:#EEDCC3"/>
	</linearGradient>
	<path fill="url(#SVGID_8_)" d="M171.748,318.878c8.065,5.859,16.13,11.718,24.196,17.576
		C182.399,336.183,175.055,330.848,171.748,318.878z"/>
	<linearGradient id="SVGID_9_" gradientUnits="userSpaceOnUse" x1="156.7502" y1="255.1283" x2="341.0859" y2="255.1283">
		<stop  offset="0.0056" style="stop-color:#EBC17D"/>
		<stop  offset="0.1854" style="stop-color:#DFB77C"/>
		<stop  offset="0.5955" style="stop-color:#C08329"/>
		<stop  offset="0.8708" style="stop-color:#EABE81"/>
		<stop  offset="1" style="stop-color:#EEDCC3"/>
	</linearGradient>
	<path fill="url(#SVGID_9_)" d="M182.569,319.047c2.481-2.982,4.961-5.963,8.609-10.348c-5.412,1.711-9.447,2.987-13.483,4.263
		c-0.424-0.831-0.848-1.663-1.273-2.494c4.209-2.44,8.419-4.88,14.384-8.337c-7.257,0.601-12.454,1.032-17.651,1.463
		c-0.106-0.997-0.212-1.995-0.318-2.993c4.379-0.89,8.758-1.78,13.137-2.67c-0.033-0.599-0.066-1.198-0.099-1.797
		c-4.83-0.73-9.66-1.46-14.49-2.19c0.035-1.085,0.07-2.17,0.105-3.255c4.356,0.252,8.712,0.504,16.321,0.944
		c-2.221-6.78-4.091-12.49-6.777-20.689c-5.852,6.432-9.136,10.042-12.42,13.651c-0.875-0.718-1.751-1.436-2.627-2.154
		c3.193-4.139,6.385-8.278,9.578-12.417c-0.306-0.399-0.612-0.798-0.918-1.197c-3.977,2.554-7.955,5.108-11.932,7.662
		c-0.684-0.942-1.369-1.884-2.053-2.826c4.184-3.22,8.369-6.441,15.035-11.571c-7.641,2.189-12.337,3.534-17.032,4.879
		c-0.374-1.061-0.749-2.121-1.123-3.182c4.467-1.719,8.934-3.438,15.878-6.109c-7.142-0.473-11.854-0.785-16.565-1.097
		c-0.035-0.844-0.07-1.687-0.105-2.531c4.466,0,8.933,0,13.399,0c0.195-0.764,0.39-1.528,0.585-2.292
		c-4.397-2.024-8.794-4.049-13.19-6.073c0.357-0.947,0.714-1.893,1.071-2.84c4.381,1.245,8.763,2.491,15.923,4.526
		c-5.904-4.913-9.822-8.174-13.739-11.434c0.587-0.852,1.174-1.704,1.761-2.556c3.938,2.508,7.876,5.016,14.274,9.091
		c-4.467-6.437-7.436-10.716-10.405-14.994c0.726-0.693,1.453-1.385,2.179-2.078c2.964,3.247,5.929,6.493,11.102,12.16
		c3.18-6.197,5.871-11.439,9.756-19.008c-8.519,0-13.142,0-17.765,0c-0.099-0.856-0.198-1.711-0.297-2.567
		c4.838-0.845,9.676-1.691,16.718-2.922c-6.393-1.65-10.822-2.793-15.25-3.937c8.083-4.262,20.859,3.338,23.086-13.36
		c-1.119-2.444-3.285-7.176-5.451-11.908c0.96-0.496,1.921-0.992,2.881-1.489c2.272,3.952,4.545,7.904,8.14,14.156
		c-0.555-7.381-0.925-12.291-1.294-17.201c0.962-0.116,1.924-0.233,2.886-0.349c1.04,4.304,2.08,8.608,3.12,12.913
		c0.51-0.037,1.021-0.074,1.531-0.111c0.725-4.822,1.45-9.643,2.174-14.464c0.783,0.069,1.566,0.138,2.348,0.207
		c0,4.49,0,8.98,0,17.049c7.236-2.937,12.746-5.173,20.014-8.123c-5.989-5.513-9.414-8.665-12.838-11.816
		c0.648-0.831,1.295-1.662,1.943-2.492c4.167,3.09,8.334,6.18,12.501,9.27c0.411-0.337,0.823-0.673,1.234-1.01
		c-2.634-3.726-5.268-7.453-7.902-11.179c0.718-0.68,1.436-1.361,2.155-2.041c3.561,3.763,7.122,7.526,11.793,12.462
		c-1.691-5.925-2.969-10.403-4.247-14.881c0.986-0.415,1.971-0.83,2.957-1.246c1.865,4.57,3.73,9.14,5.595,13.71
		c0.577-0.044,1.154-0.088,1.732-0.132c0-4.719,0-9.439,0-14.158c0.919-0.033,1.837-0.065,2.756-0.098c0,4.703,0,9.406,0,13.619
		c12.244,7.838,11.583-7.923,21.555-9.483c-3.538,5.595-6.039,9.55-10.118,15.999c6.471-4.567,10.776-7.607,15.082-10.646
		c0.687,0.709,1.374,1.418,2.061,2.127c-3.224,3.036-6.448,6.073-12.045,11.343c6.123,3.142,11.344,5.821,18.743,9.618
		c0-8.53,0-13.228,0-17.926c0.919-0.127,1.839-0.254,2.758-0.381c0.727,4.831,1.455,9.661,2.182,14.492
		c0.49,0.146,0.98,0.292,1.47,0.438c1.011-4.305,2.022-8.611,3.032-12.916c0.948,0.037,1.897,0.075,2.845,0.112
		c-0.283,5.019-0.566,10.038-0.971,17.221c3.291-5.868,5.559-9.913,9.115-16.255c0,9.532-2.448,18.005,0.729,22.504
		c2.841,4.023,11.888,3.663,20.481,5.807c-6.028,1.545-10.377,2.66-17.579,4.505c7.529,1.254,12.217,2.035,16.904,2.816
		c-0.103,0.799-0.206,1.599-0.31,2.398c-4.244,0-8.488,0-16.184,0c2.609,7.211,4.558,12.595,7.292,20.153
		c5.599-5.945,8.847-9.395,12.096-12.845c0.725,0.449,1.449,0.898,2.174,1.347c-2.824,4.453-5.649,8.906-10.256,16.17
		c6.317-4.558,10.033-7.24,13.748-9.921c0.707,0.761,1.415,1.521,2.122,2.282c-3.818,3.504-7.637,7.008-13.006,11.936
		c6.367-1.925,10.819-3.271,15.272-4.617c0.44,0.97,0.881,1.941,1.321,2.911c-4.47,2.022-8.94,4.044-15.023,6.796
		c6.534,0.457,11.071,0.774,15.608,1.091c-0.002,0.982-0.005,1.964-0.007,2.946c-4.505,0.299-9.01,0.597-15.656,1.038
		c6.107,2.669,10.6,4.632,15.093,6.595c-0.364,0.977-0.729,1.954-1.093,2.93c-4.691-1.375-9.382-2.75-16.995-4.981
		c6.584,5.143,10.723,8.377,14.862,11.61c-0.716,0.963-1.432,1.925-2.148,2.888c-3.765-2.557-7.53-5.114-11.294-7.671
		c-0.385,0.296-0.771,0.591-1.156,0.887c2.997,4.219,5.993,8.437,8.99,12.656c-0.698,0.672-1.397,1.345-2.095,2.017
		c-2.741-3.952-5.483-7.903-8.224-11.855c-1.531,0.227-3.062,0.454-4.594,0.681c-2.184,5.564-4.368,11.127-7.157,18.233
		c7.814-0.352,12.184-0.548,16.554-0.745c0.164,1.008,0.328,2.016,0.491,3.023c-4.844,0.761-9.689,1.522-14.533,2.283
		c-0.019,0.625-0.038,1.251-0.057,1.876c4.248,0.768,8.496,1.535,12.743,2.303c0.024,0.673,0.047,1.346,0.071,2.019
		c-5.179,0-10.357,0-17.517,0c5.838,3.316,9.941,5.646,14.044,7.977c-0.395,0.932-0.79,1.865-1.185,2.797
		c-4.838-2.014-9.677-4.027-14.516-6.041c-0.836,0.935-1.673,1.87-2.509,2.805c4.56,2.514,9.119,5.027,13.679,7.541
		c-1.162,1.274-2.324,2.547-3.486,3.821c-3.626-3.15-7.251-6.3-11.217-9.746c-12.241,3.074-0.415,14.02-6.858,20.855
		c-1.335-5.508-2.384-9.835-3.433-14.162c-0.528-0.048-1.056-0.095-1.585-0.143c-0.771,4.998-1.541,9.997-2.312,14.995
		c-1.102-0.148-2.204-0.296-3.306-0.444c0.285-4.298,0.569-8.596,1.076-16.258c-6.799,2.168-12.462,3.975-20.611,6.574
		c6.421,5.875,10.014,9.162,13.606,12.449c-0.706,0.848-1.412,1.697-2.118,2.545c-4.151-3.116-8.302-6.231-12.453-9.347
		c-0.356,0.394-0.711,0.789-1.067,1.183c2.524,3.755,5.049,7.51,7.573,11.266c-0.801,0.689-1.601,1.378-2.402,2.066
		c-3.309-3.836-6.618-7.673-11.537-13.375c1.867,6.423,3.124,10.749,4.381,15.075c-0.859,0.423-1.718,0.847-2.577,1.27
		c-2.084-4.431-4.169-8.863-7.149-15.199c-0.313,6.755-0.542,11.708-0.771,16.661c-0.966-0.022-1.931-0.044-2.897-0.066
		c0-4.901,0-9.802,0-14.703c-0.638-0.128-1.276-0.256-1.914-0.383c-1.968,4.66-3.936,9.32-5.903,13.979
		c-0.991-0.38-1.982-0.76-2.973-1.14c1.271-4.37,2.542-8.741,4.645-15.972c-5.057,6.106-8.329,10.057-11.602,14.009
		c-0.893-0.629-1.786-1.258-2.68-1.887c2.304-3.631,4.608-7.262,6.912-10.892c-0.328-0.365-0.655-0.731-0.983-1.096
		c-3.959,2.793-7.918,5.585-11.877,8.378c-0.704-0.836-1.408-1.672-2.112-2.509c3.374-2.939,6.749-5.877,12.717-11.074
		c-6.686-3.241-12.061-5.847-19.129-9.273c0,8.187,0,12.94,0,17.693c-0.847,0.15-1.693,0.299-2.54,0.449
		c-0.872-4.984-1.744-9.968-3.229-18.455c-1.824,7.746-2.854,12.119-3.884,16.492c-0.958-0.065-1.916-0.13-2.873-0.195
		c0.381-5.125,0.763-10.25,1.289-17.318c-3.378,5.768-5.736,9.796-8.095,13.824c-0.928-0.388-1.856-0.776-2.784-1.164
		c1.44-3.987,2.88-7.974,5.01-13.871c-4.725,3.936-7.784,6.484-10.843,9.032C184.112,320.537,183.34,319.792,182.569,319.047z
		 M264.246,202.802c0.654-3.717,1.309-7.434,2.298-13.053c-3.235,2.083-6.224,4.008-10.657,6.863c0-4.596,0-7.853,0-13.978
		c-3.177,5.118-4.74,7.636-6.899,11.115c-2.382-3.564-4.094-6.124-5.806-8.685c-0.647,0.272-1.294,0.544-1.942,0.816
		c0.368,3.08,0.736,6.16,1.296,10.852c-4.81-2.932-7.839-4.777-10.867-6.623c-0.381,0.722-0.763,1.443-1.144,2.165
		c1.749,2.729,3.498,5.458,5.247,8.188c-0.543,0.674-1.086,1.349-1.629,2.023c-2.909-1.316-5.817-2.632-8.566-3.875
		c-1.146,2.992-2.209,5.766-3.272,8.54c-0.901-0.096-1.802-0.192-2.703-0.288c-0.661-3.183-1.322-6.366-1.983-9.549
		c-0.828-0.125-1.655-0.25-2.483-0.374c-0.674,3.423-1.349,6.847-2.023,10.27c-1.118,0.811-2.235,1.621-3.353,2.432
		c-0.923-3.682-1.846-7.364-2.768-11.047c-1.271,1.071-2.542,2.142-3.813,3.213c0.723,2.987,1.447,5.975,2.378,9.823
		c-4.393-0.824-7.315-1.371-10.237-1.919c-0.179,0.603-0.358,1.206-0.536,1.809c2.417,2.033,4.833,4.066,7.948,6.687
		c-5.042,1.491-8.488,2.51-11.935,3.529c0.343,0.971,0.686,1.942,1.029,2.913c4.12-0.357,8.24-0.714,12.36-1.072
		c2.307,2.272,4.614,4.545,6.921,6.817c0.002,7.308,0.011,14.616,0.002,21.924c-0.002,1.783,0.289,3.658-0.15,5.336
		c-5.202,19.889,0.989,28.347,20.891,28.371l-0.376-0.38c7.354,15.473,21.409,17.938,32.598,6.108
		c2.537-2.682,6.461-4.697,10.095-5.578c11.961-2.897,18.139-13.446,14.407-25.397c-0.849-2.717-1.502-5.599-1.6-8.427
		c-0.251-7.3-0.141-14.613-0.175-21.92c2.434-2.444,4.869-4.889,7.303-7.333c4.22,0.467,8.441,0.934,12.661,1.402
		c0.145-1.088,0.29-2.177,0.435-3.265c-3.518-0.708-7.036-1.417-12.312-2.479c3.63-3.452,5.977-5.684,10.618-10.097
		c-6.371,1.283-9.437,1.901-13.101,2.639c0.871-4.277,1.455-7.145,2.039-10.013c-0.632-0.193-1.263-0.386-1.895-0.579
		c-2.213,2.393-4.426,4.786-7.641,8.264c-0.871-5.664-1.357-8.829-1.844-11.994c-0.879,0.111-1.759,0.222-2.638,0.334
		c-0.824,3.247-1.649,6.493-2.473,9.74c-0.956-0.096-1.913-0.191-2.869-0.287c-0.854-2.832-1.708-5.664-2.54-8.421
		c-3.416,1.641-6.048,2.906-8.681,4.171L264.246,202.802z M271.737,311.87c1.734-3.429,3.133-6.193,4.531-8.958
		c0.786,0.204,1.573,0.408,2.359,0.612c0.638,3.126,1.277,6.252,1.915,9.378c0.867,0.031,1.733,0.061,2.6,0.092
		c0.738-3.621,1.476-7.242,2.566-12.585c3.347,4.144,5.25,6.502,7.154,8.86c0.659-0.406,1.318-0.813,1.977-1.219
		c-0.693-3.023-1.386-6.045-2.313-10.085c4.287,1.098,7.077,1.812,9.866,2.526c0.299-0.575,0.598-1.15,0.897-1.725
		c-2.394-2.111-4.789-4.222-8.03-7.08c4.96-1.456,8.448-2.48,11.936-3.504c-0.393-1.205-0.785-2.409-1.178-3.614
		c-11.232,3.759-22.464,7.517-36.134,12.091c-0.464,0.941-2.449,4.972-4.687,9.514C267.267,307.975,269.432,309.861,271.737,311.87z
		 M226.048,312.2c3.184-2.545,5.466-4.369,7.133-5.701c-2.823-5.458-4.884-9.442-6.945-13.426c-0.486,0.965-0.972,1.93-1.458,2.895
		c-10.988-3.831-21.975-7.661-32.963-11.492c-0.408,1.309-0.817,2.617-1.225,3.926c3.707,1.02,7.414,2.039,12.403,3.411
		c-3.529,3.086-5.854,5.119-8.179,7.152c0.343,0.533,0.685,1.066,1.028,1.599c3.069-0.647,6.138-1.294,10.174-2.145
		c-1.173,4.331-1.923,7.102-2.673,9.872c0.634,0.321,1.268,0.642,1.901,0.964c2.032-2.452,4.064-4.903,7.263-8.763
		c1.156,5.406,1.924,8.999,2.692,12.592c0.78-0.142,1.56-0.284,2.34-0.426c0.734-3.159,1.468-6.317,2.201-9.476
		c0.829-0.051,1.657-0.102,2.486-0.153C223.355,305.74,224.485,308.452,226.048,312.2z M206.226,254.833
		c-7.217-7.18-13.31-13.241-19.403-19.303c-0.932,0.715-1.864,1.43-2.797,2.145c1.947,2.983,3.895,5.966,6.794,10.408
		c-4.874-0.281-8.029-0.463-14.089-0.812c4.816,3.717,7.32,5.65,10.097,7.794c-3.256,2.362-5.638,4.09-8.02,5.818
		c0.38,0.556,0.761,1.111,1.142,1.667c3.133-0.321,6.266-0.641,10.761-1.101c-2.873,4.844-4.674,7.882-6.476,10.92
		c1.003,0.696,2.007,1.393,3.01,2.089C193.118,268.385,198.992,262.312,206.226,254.833z M310.782,274.564
		c1.205-0.993,2.41-1.986,3.616-2.978c-2.125-2.672-4.25-5.343-7.614-9.571c5.143,0,8.459,0,14.925,0
		c-5.214-3.517-7.775-5.246-11.074-7.471c3.606-2.27,6.027-3.793,11.249-7.08c-6.741,0-10.095,0-14.363,0
		c2.698-4.214,4.538-7.087,6.378-9.961c-1.071-0.778-2.141-1.556-3.212-2.333c-5.995,6.331-11.99,12.663-18.738,19.789
		C298.702,261.986,304.742,268.275,310.782,274.564z M255.746,312.546c4.948,3.562,7.607,5.476,10.266,7.391
		c0.566-0.965,1.131-1.931,1.697-2.896c-2.426-2.638-4.851-5.275-7.764-8.442c-8.34,7.598-23.15-6.403-28.19,11.236
		c2.924-1.909,5.848-3.817,10.716-6.995c-0.493,4.863-0.826,8.149-1.16,11.436c0.598,0.229,1.197,0.459,1.795,0.688
		c1.779-2.573,3.557-5.145,5.888-8.516c2.443,3.341,4.262,5.829,7.794,10.66C256.339,320.825,256.112,317.663,255.746,312.546z"/>
	<linearGradient id="SVGID_10_" gradientUnits="userSpaceOnUse" x1="204.1865" y1="215.4463" x2="294.1033" y2="215.4463">
		<stop  offset="0.0056" style="stop-color:#EBC17D"/>
		<stop  offset="0.1854" style="stop-color:#DFB77C"/>
		<stop  offset="0.5955" style="stop-color:#C08329"/>
		<stop  offset="0.8708" style="stop-color:#EABE81"/>
		<stop  offset="1" style="stop-color:#EEDCC3"/>
	</linearGradient>
	<path fill="url(#SVGID_10_)" d="M286.8,230.431c-9.68-5.822-18.971-12.513-29.208-17.086c-4.891-2.185-12.38-2.152-17.285,0.035
		c-10.229,4.559-19.522,11.218-29.2,17.014c-2.307-2.272-4.614-4.545-6.922-6.817c6.915-3.515,13.83-7.029,20.745-10.543
		c0.495,0.995,0.99,1.99,1.486,2.985c2.575-4.511,5.151-9.022,7.727-13.533c0.543-0.674,1.086-1.349,1.628-2.023
		c9.491,0.78,18.982,1.56,28.473,2.34l-0.383-0.29c2.63,4.57,5.261,9.141,7.891,13.711c0.47-0.951,0.939-1.903,1.409-2.854
		c6.98,3.243,13.96,6.486,20.941,9.729C291.669,225.542,289.235,227.987,286.8,230.431z"/>
	<linearGradient id="SVGID_11_" gradientUnits="userSpaceOnUse" x1="216.0463" y1="254.6996" x2="282.2284" y2="254.6996">
		<stop  offset="0.0056" style="stop-color:#EBC17D"/>
		<stop  offset="0.1854" style="stop-color:#DFB77C"/>
		<stop  offset="0.5955" style="stop-color:#C08329"/>
		<stop  offset="0.8708" style="stop-color:#EABE81"/>
		<stop  offset="1" style="stop-color:#EEDCC3"/>
	</linearGradient>
	<path fill="url(#SVGID_11_)" d="M231.851,286.024c-1.344-1.957-2.337-4.331-4.088-5.804c-11.854-9.971-15.548-30.24-7.199-42.194
		c11.697-16.749,27.24-19.545,43.225-12.955c15.281,6.299,23.141,28.174,15.449,43.491c-7.191,14.319-20.028,22.24-38.838,17.851
		c-2.877-0.671-5.943-0.538-8.923-0.773C231.475,285.644,231.851,286.024,231.851,286.024z M248.723,282.184
		c14.481,2.273,28.706-9.436,28.508-29.381c-0.145-14.571-12.57-25.603-29.865-25.658c-15.388-0.05-26.044,11.817-26.192,26.119
		C220.98,272.001,230.969,282.177,248.723,282.184z"/>
	<linearGradient id="SVGID_12_" gradientUnits="userSpaceOnUse" x1="229.7088" y1="254.931" x2="268.303" y2="254.931">
		<stop  offset="0.0056" style="stop-color:#EBC17D"/>
		<stop  offset="0.1854" style="stop-color:#DFB77C"/>
		<stop  offset="0.5955" style="stop-color:#C08329"/>
		<stop  offset="0.8708" style="stop-color:#EABE81"/>
		<stop  offset="1" style="stop-color:#EEDCC3"/>
	</linearGradient>
	<path fill="url(#SVGID_12_)" d="M248.466,272.484c-10.114-0.02-18.917-8.352-18.755-17.752c0.165-9.551,8.853-17.356,19.317-17.354
		c10.426,0.002,19.1,7.817,19.272,17.366C268.479,264.628,259.671,272.506,248.466,272.484z M251.749,267.778
		c5.072-0.005,13.226-6.304,11.786-12.597c-1.494-6.527-3.329-14.377-13.641-13.543c-8.602,0.696-16.963,6.835-15.245,13.784
		C236.328,262.215,239.148,269.908,251.749,267.778z"/>
</g>
</svg>
