<?xml version="1.0" encoding="utf-8"?>
<!-- Generator: Adobe Illustrator 17.0.0, SVG Export Plug-In . SVG Version: 6.00 Build 0)  -->
<!DOCTYPE svg PUBLIC "-//W3C//DTD SVG 1.1//EN" "http://www.w3.org/Graphics/SVG/1.1/DTD/svg11.dtd">
<svg version="1.1" id="Layer_1" xmlns="http://www.w3.org/2000/svg" xmlns:xlink="http://www.w3.org/1999/xlink" x="0px" y="0px"
	 width="500px" height="500px" viewBox="0 0 500 500" enable-background="new 0 0 500 500" xml:space="preserve">
<linearGradient id="SVGID_1_" gradientUnits="userSpaceOnUse" x1="104.6496" y1="249.7183" x2="393.6357" y2="249.7183">
	<stop  offset="0.0056" style="stop-color:#EBC17D"/>
	<stop  offset="0.1854" style="stop-color:#DFB77C"/>
	<stop  offset="0.5955" style="stop-color:#C08329"/>
	<stop  offset="0.8708" style="stop-color:#EABE81"/>
	<stop  offset="1" style="stop-color:#EEDCC3"/>
</linearGradient>
<path fill="#FFFFFF" stroke="url(#SVGID_1_)" stroke-width="10" stroke-miterlimit="10" d="M388.636,377.622
	c0,6.627-4.851,12-10.835,12H120.485c-5.984,0-10.835-5.373-10.835-12V121.814c0-6.627,4.851-12,10.835-12h257.316
	c5.984,0,10.835,5.373,10.835,12V377.622z"/>
<linearGradient id="SVGID_2_" gradientUnits="userSpaceOnUse" x1="167.2848" y1="247.0706" x2="307.2471" y2="247.0706">
	<stop  offset="0.0056" style="stop-color:#EBC17D"/>
	<stop  offset="0.1854" style="stop-color:#DFB77C"/>
	<stop  offset="0.5955" style="stop-color:#C08329"/>
	<stop  offset="0.8708" style="stop-color:#EABE81"/>
	<stop  offset="1" style="stop-color:#EEDCC3"/>
</linearGradient>
<linearGradient id="SVGID_3_" gradientUnits="userSpaceOnUse" x1="165.7848" y1="247.0706" x2="308.7471" y2="247.0706">
	<stop  offset="0.0056" style="stop-color:#EBC17D"/>
	<stop  offset="0.1854" style="stop-color:#DFB77C"/>
	<stop  offset="0.5955" style="stop-color:#C08329"/>
	<stop  offset="0.8708" style="stop-color:#EABE81"/>
	<stop  offset="1" style="stop-color:#EEDCC3"/>
</linearGradient>
<path fill="url(#SVGID_2_)" stroke="url(#SVGID_3_)" stroke-width="3" stroke-miterlimit="10" d="M266.402,205.588
	c1.677-0.569,3.209-1.096,4.746-1.61c3.14-1.05,6.306-1.878,9.665-1.946c6.707-0.136,11.741,2.643,14.77,8.594
	c1.722,3.383,3.006,6.994,4.409,10.534c1.685,4.252,3.269,8.543,4.929,12.805c1.36,3.49,2.49,7.115,2.306,10.829
	c-0.276,5.559-3.32,9.678-7.978,12.592c-3.371,2.109-6.939,3.799-10.821,4.776c-1.517,0.382-1.717,1.053-0.709,2.368
	c2.415,3.15,4.842,6.306,6.266,10.053c0.67,1.763,1.271,3.619,1.475,5.481c0.544,4.948-1.244,9.173-4.753,12.596
	c-2.283,2.226-4.761,4.259-7.228,6.287c-3.924,3.224-7.89,6.399-11.88,9.541c-2.503,1.972-5.058,3.815-8.127,4.953
	c-4.251,1.577-8.313,1.383-12.287-0.63c-3.61-1.829-6.395-4.68-8.971-7.73c-1.268-1.502-2.43-3.093-3.86-4.925
	c-0.383,0.325-0.977,0.639-1.299,1.131c-2.184,3.336-4.631,6.418-7.709,9.003c-5.318,4.466-11.167,5.36-17.352,2.339
	c-3.39-1.655-6.485-3.921-9.683-5.959c-4.415-2.814-8.826-5.637-13.191-8.527c-2.604-1.725-4.882-3.797-6.705-6.399
	c-2.972-4.243-2.932-8.784-1.556-13.456c1.229-4.174,3.612-7.793,6.001-11.457c-0.735-1.085-1.813-1.269-2.903-1.606
	c-4.289-1.327-8.437-2.959-11.753-6.173c-4.218-4.088-5.74-9.082-4.504-14.728c0.98-4.477,2.501-8.832,3.681-13.269
	c0.888-3.339,1.54-6.741,2.436-10.078c1.052-3.922,2.383-7.747,5.191-10.835c2.555-2.811,5.744-4.367,9.538-4.629
	c4.822-0.333,9.511,0.271,14.055,1.981c0.703,0.264,1.515,0.239,2.614,0.396c0-1.145,0.012-2.07-0.002-2.995
	c-0.061-4.092-0.108-8.169,1.087-12.164c1.657-5.54,6.026-10.039,12.568-11.261c4.757-0.889,9.509-0.74,14.275-0.933
	c3.472-0.141,6.938-0.456,10.402-0.754c4.487-0.386,8.89,0.078,12.978,1.936c3.991,1.814,6.37,5.202,7.633,9.347
	c1.273,4.176,1.641,8.5,1.943,12.83C266.133,204.388,266.272,204.878,266.402,205.588z M240.143,259.875l0.084,0.088
	c-0.575-2.323-1.132-4.651-1.752-6.961c-0.06-0.223-0.51-0.341-0.927-0.6c-0.186,0.461-0.38,0.751-0.418,1.061
	c-0.457,3.787-1.047,7.567-1.3,11.368c-0.575,8.643,0.013,17.167,3.176,25.362c2.752,7.13,7.286,12.922,13.414,17.383
	c2.982,2.171,6.504,3.195,10.088,1.459c2.386-1.156,4.675-2.612,6.781-4.229c4.984-3.825,9.898-7.748,14.705-11.793
	c2.101-1.768,4.089-3.766,5.735-5.955c1.987-2.643,2.077-5.746,1.099-8.909c-1.571-5.081-4.706-9.158-8.098-13.112
	c-0.891-1.038-1.869-1.393-3.141-1.44c-4.416-0.161-8.86-0.058-13.151-1.422c-3.283-1.043-6.552-2.157-9.892-2.975
	c-1.316-0.322-2.393-1.793-4.158-0.997c2.096,3.098,2.814,6.571,3.612,10.001c0.136,0.584-0.048,1.378-0.365,1.907
	c-0.862,1.437-1.681,1.625-3.571,0.743c-4.687-2.189-8.267-5.6-10.874-10.062C240.969,260.413,240.498,260.178,240.143,259.875z
	 M248.912,233.564c0.632-0.52,0.829-0.64,0.972-0.806c3.185-3.683,5.511-7.939,7.424-12.337c2.397-5.513,4.132-11.299,3.601-17.446
	c-0.268-3.108-0.606-6.248-1.349-9.267c-0.933-3.787-2.798-7.231-6.722-8.633c-3.011-1.075-6.216-1.474-9.493-1.134
	c-3.969,0.412-7.958,0.684-11.945,0.86c-4.073,0.18-8.157-0.066-12.191,0.886c-3.086,0.728-5.59,2.147-7.327,4.849
	c-1.849,2.876-2.265,6.116-2.553,9.417c-0.66,7.54,0.613,14.74,4.192,21.389c4.283,7.956,9.379,15.273,17.555,19.847
	c1.15,0.643,2.102,1.642,3.146,2.477c0.23-0.733,0.123-1.192-0.061-1.619c-3.137-7.289-3.117-14.479,0.55-21.608
	c0.604-1.174,1.228-2.066,2.674-2.072c1.374-0.006,2.067,1.024,2.487,1.977c0.9,2.045,1.91,4.161,2.187,6.336
	c0.642,5.049,1.112,10.169-1.627,14.905c-0.256,0.442-0.124,1.109-0.186,1.834c2.784-1.95,5.787-5.394,6.483-7.511
	c-1.152,0.479-2.149,0.894-3.196,1.329c-0.929-2.535,0.164-4.302,1.369-5.821c1.216-1.532,2.805-2.781,4.319-4.05
	c0.23-0.193,1.094,0.034,1.375,0.336c0.277,0.297,0.371,1.004,0.223,1.415C250.336,230.458,249.708,231.745,248.912,233.564z
	 M219.054,252.531c-0.817-0.04-1.267-0.188-1.617-0.061c-4.961,1.798-9.894,3.658-14.428,6.426
	c-9.065,5.534-15.202,13.304-17.955,23.611c-0.301,1.125-0.231,2.458,0.04,3.606c0.715,3.034,2.332,5.583,4.934,7.359
	c3.201,2.185,6.482,4.255,9.723,6.381c4.316,2.831,8.553,5.792,12.963,8.468c4.226,2.564,9.176,2.678,13.553-0.884
	c3.816-3.106,6.635-7,9.144-11.171c0.57-0.947,0.412-1.781,0.097-2.725c-0.603-1.806-1.231-3.615-1.669-5.464
	c-1.601-6.764-1.599-13.63-1.143-20.514c0.066-0.992,0.211-1.979,0.32-2.969c-0.913,0.183-1.408,0.58-1.867,1.015
	c-2.333,2.21-4.748,4.304-7.821,5.446c-2.122,0.789-3.865-0.597-3.444-2.849c1.086-5.819,3.245-11.094,7.973-14.997
	c1.076-0.889,2.098-1.844,3.432-3.022c-3.553-0.606-6.362,0.494-9.474,1.533c1.515,0.683,3.065-0.122,4.216,1.062
	c-2.463,3.158-5.622,4.698-9.443,4.866c-0.581,0.026-1.525-0.334-1.687-0.753c-0.177-0.457,0.193-1.373,0.621-1.766
	C216.489,254.239,217.639,253.548,219.054,252.531z M250.93,236.388c0.103,0.22,0.207,0.441,0.31,0.661
	c0.841-0.077,1.731-0.003,2.514-0.257c3.015-0.981,5.967-0.716,8.974,0.061c2.56,0.662,3.201,2.332,1.357,4.263
	c-2.406,2.519-5.156,4.595-8.465,5.832c-1.36,0.508-2.719,1.019-4.388,1.644c7.436,2.349,7.436,2.349,8.391,4.43
	c-3.019,2.099-7.859,1.12-11.664-2.38c0.19-0.423,0.386-0.857,0.591-1.313c-3.002-0.698-4.065-0.632-5.591,0.506
	c2.729,1.38,5.287,2.749,7.909,3.983c5.124,2.412,10.547,4.112,16.106,4.839c6.267,0.82,12.648,1.124,18.867-0.833
	c4.746-1.493,9.269-3.405,13.057-6.725c2.392-2.097,3.627-4.677,3.641-7.976c0.017-4.055-1.635-7.568-3.013-11.2
	c-1.686-4.446-3.289-8.925-5.039-13.346c-0.979-2.475-1.945-5.01-3.348-7.248c-1.576-2.514-3.828-4.442-7.013-4.794
	c-5.576-0.616-10.776,0.743-15.924,2.766c-2.497,0.981-3.771,2.552-4.079,5.099c-0.041,0.342-0.124,0.689-0.25,1.009
	c-2.553,6.469-5.918,12.46-10.43,17.783C252.568,234.224,251.766,235.32,250.93,236.388z M220.202,236.63
	c0.586-1.106,0.02-1.436-0.494-1.975c-5.093-5.34-9.395-11.243-12.043-18.181c-0.635-1.663-1.684-2.681-3.14-3.213
	c-4.998-1.826-10.133-2.84-15.519-2.559c-4.259,0.222-7.065,2.331-9.022,5.943c-2.132,3.936-2.644,8.364-3.899,12.563
	c-1.406,4.705-2.672,9.453-3.908,14.207c-1.458,5.604-0.431,10.482,4.561,14.009c3.148,2.224,6.724,3.449,10.33,4.537
	c1.53,0.462,3.213,1.124,4.894-0.342c7.062-6.159,15.42-9.672,24.496-11.655c1.714-0.375,3.392-0.909,5.526-1.489
	c-2.134-1.022-3.938-1.659-5.487-2.682c-2.148-1.419-4.24-2.984-6.102-4.754c-1.733-1.647-0.974-3.583,1.314-4.172
	C214.515,236.144,217.311,235.758,220.202,236.63z M260.944,239.502c-7.073-1.313-13.035-0.363-17.889,4.68
	c-0.426,0.443-0.89,1.146-0.842,1.684c0.092,1.04,1.119,0.876,1.868,0.934c3.135,0.242,6.267,0.242,9.196-1.077
	C256.208,244.402,258.846,242.66,260.944,239.502z M235.306,251.424c-5.377-0.096-11.668,8.264-11.863,15.524
	C228.313,267.726,234.951,259.141,235.306,251.424z M214.141,239.396c0,0.511-0.089,0.814,0.019,1.004
	c0.203,0.358,0.504,0.667,0.794,0.967c4.344,4.492,9.672,6.158,15.797,5.401c0.579-0.072,1.457-0.529,1.554-0.954
	c0.109-0.479-0.392-1.24-0.829-1.678C226.653,239.302,220.797,238.152,214.141,239.396z M252.534,267.443
	c-0.276-1.983-0.275-3.654-0.763-5.167c-1.586-4.919-4.913-8.406-9.481-10.723c-0.519-0.263-1.198-0.21-1.888-0.317
	C241.146,258.275,244.368,264.422,252.534,267.443z M237.455,242.611c4.38-5.612,3.565-16.233-0.166-19.619
	C232.677,227.862,232.893,238.067,237.455,242.611z"/>
</svg>
