<?xml version="1.0" encoding="utf-8"?>
<!-- Generator: Adobe Illustrator 17.0.0, SVG Export Plug-In . SVG Version: 6.00 Build 0)  -->
<!DOCTYPE svg PUBLIC "-//W3C//DTD SVG 1.1//EN" "http://www.w3.org/Graphics/SVG/1.1/DTD/svg11.dtd">
<svg version="1.1" id="Layer_1" xmlns="http://www.w3.org/2000/svg" xmlns:xlink="http://www.w3.org/1999/xlink" x="0px" y="0px"
	 width="500px" height="500px" viewBox="0 0 500 500" enable-background="new 0 0 500 500" xml:space="preserve">
<linearGradient id="SVGID_1_" gradientUnits="userSpaceOnUse" x1="104.6496" y1="249.7183" x2="393.6357" y2="249.7183">
	<stop  offset="0.0056" style="stop-color:#EBC17D"/>
	<stop  offset="0.1854" style="stop-color:#DFB77C"/>
	<stop  offset="0.5955" style="stop-color:#C08329"/>
	<stop  offset="0.8708" style="stop-color:#EABE81"/>
	<stop  offset="1" style="stop-color:#EEDCC3"/>
</linearGradient>
<path fill="#FFFFFF" stroke="url(#SVGID_1_)" stroke-width="10" stroke-miterlimit="10" d="M388.636,377.622
	c0,6.627-4.851,12-10.835,12H120.485c-5.984,0-10.835-5.373-10.835-12V121.814c0-6.627,4.851-12,10.835-12h257.316
	c5.984,0,10.835,5.373,10.835,12V377.622z"/>
<g>
	<linearGradient id="SVGID_2_" gradientUnits="userSpaceOnUse" x1="187.4216" y1="253.7095" x2="321.9928" y2="253.7095">
		<stop  offset="0.0056" style="stop-color:#EBC17D"/>
		<stop  offset="0.1854" style="stop-color:#DFB77C"/>
		<stop  offset="0.5955" style="stop-color:#C08329"/>
		<stop  offset="0.8708" style="stop-color:#EABE81"/>
		<stop  offset="1" style="stop-color:#EEDCC3"/>
	</linearGradient>
	<linearGradient id="SVGID_3_" gradientUnits="userSpaceOnUse" x1="185.9216" y1="253.7095" x2="323.4928" y2="253.7095">
		<stop  offset="0.0056" style="stop-color:#EBC17D"/>
		<stop  offset="0.1854" style="stop-color:#DFB77C"/>
		<stop  offset="0.5955" style="stop-color:#C08329"/>
		<stop  offset="0.8708" style="stop-color:#EABE81"/>
		<stop  offset="1" style="stop-color:#EEDCC3"/>
	</linearGradient>
	<path fill="url(#SVGID_2_)" stroke="url(#SVGID_3_)" stroke-width="3" stroke-miterlimit="10" d="M234.736,169.735
		c14.52,0,27.438,0,41.241,0c0,22.532-0.558,44.406,0.307,66.224c0.297,7.484,2.692,15.747,6.664,22.059
		c11.29,17.942,24.424,34.728,35.626,52.72c3.146,5.053,4.603,13.87,2.272,18.806c-2.055,4.352-10.45,7.94-16.088,8.004
		c-34.042,0.382-68.105-0.058-102.138-1.024c-4.943-0.14-12.48-3.497-13.979-7.281c-2.046-5.165-1.505-13.51,1.521-18.147
		c11.982-18.365,25.738-35.565,37.998-53.762c3.612-5.362,6.072-12.531,6.285-18.965
		C235.195,215.785,234.736,193.161,234.736,169.735z M239.174,173.932c0,22.404,0.411,44.244-0.265,66.051
		c-0.188,6.078-2.337,12.902-5.737,17.929c-12.682,18.753-26.558,36.699-39.231,55.456c-2.39,3.538-2.81,9.939-1.343,14.012
		c0.977,2.712,6.893,5.075,10.639,5.137c34,0.563,68.011,0.771,102.014,0.522c4.119-0.03,10.37-2.394,11.764-5.444
		c1.681-3.68,0.629-10.116-1.685-13.84c-8.09-13.019-16.295-26.182-26.194-37.812c-15.158-17.81-20.925-37.294-18.083-60.483
		c1.659-13.541,0.302-27.452,0.302-41.529C260.513,173.932,250.78,173.932,239.174,173.932z"/>
	<g>
		<linearGradient id="SVGID_4_" gradientUnits="userSpaceOnUse" x1="248.2475" y1="267.2484" x2="257.5713" y2="267.2484">
			<stop  offset="0.0056" style="stop-color:#EBC17D"/>
			<stop  offset="0.1854" style="stop-color:#DFB77C"/>
			<stop  offset="0.5955" style="stop-color:#C08329"/>
			<stop  offset="0.8708" style="stop-color:#EABE81"/>
			<stop  offset="1" style="stop-color:#EEDCC3"/>
		</linearGradient>
		<linearGradient id="SVGID_5_" gradientUnits="userSpaceOnUse" x1="246.7475" y1="267.2484" x2="259.0713" y2="267.2484">
			<stop  offset="0.0056" style="stop-color:#EBC17D"/>
			<stop  offset="0.1854" style="stop-color:#DFB77C"/>
			<stop  offset="0.5955" style="stop-color:#C08329"/>
			<stop  offset="0.8708" style="stop-color:#EABE81"/>
			<stop  offset="1" style="stop-color:#EEDCC3"/>
		</linearGradient>
		
			<circle fill="url(#SVGID_4_)" stroke="url(#SVGID_5_)" stroke-width="3" stroke-miterlimit="10" cx="252.909" cy="267.248" r="4.662"/>
		<linearGradient id="SVGID_6_" gradientUnits="userSpaceOnUse" x1="265.3666" y1="280.0327" x2="274.6904" y2="280.0327">
			<stop  offset="0.0056" style="stop-color:#EBC17D"/>
			<stop  offset="0.1854" style="stop-color:#DFB77C"/>
			<stop  offset="0.5955" style="stop-color:#C08329"/>
			<stop  offset="0.8708" style="stop-color:#EABE81"/>
			<stop  offset="1" style="stop-color:#EEDCC3"/>
		</linearGradient>
		<linearGradient id="SVGID_7_" gradientUnits="userSpaceOnUse" x1="263.8666" y1="280.0327" x2="276.1904" y2="280.0327">
			<stop  offset="0.0056" style="stop-color:#EBC17D"/>
			<stop  offset="0.1854" style="stop-color:#DFB77C"/>
			<stop  offset="0.5955" style="stop-color:#C08329"/>
			<stop  offset="0.8708" style="stop-color:#EABE81"/>
			<stop  offset="1" style="stop-color:#EEDCC3"/>
		</linearGradient>
		
			<circle fill="url(#SVGID_6_)" stroke="url(#SVGID_7_)" stroke-width="3" stroke-miterlimit="10" cx="270.029" cy="280.033" r="4.662"/>
		<linearGradient id="SVGID_8_" gradientUnits="userSpaceOnUse" x1="248.2475" y1="297.7119" x2="257.5713" y2="297.7119">
			<stop  offset="0.0056" style="stop-color:#EBC17D"/>
			<stop  offset="0.1854" style="stop-color:#DFB77C"/>
			<stop  offset="0.5955" style="stop-color:#C08329"/>
			<stop  offset="0.8708" style="stop-color:#EABE81"/>
			<stop  offset="1" style="stop-color:#EEDCC3"/>
		</linearGradient>
		<linearGradient id="SVGID_9_" gradientUnits="userSpaceOnUse" x1="246.7475" y1="297.7119" x2="259.0713" y2="297.7119">
			<stop  offset="0.0056" style="stop-color:#EBC17D"/>
			<stop  offset="0.1854" style="stop-color:#DFB77C"/>
			<stop  offset="0.5955" style="stop-color:#C08329"/>
			<stop  offset="0.8708" style="stop-color:#EABE81"/>
			<stop  offset="1" style="stop-color:#EEDCC3"/>
		</linearGradient>
		
			<circle fill="url(#SVGID_8_)" stroke="url(#SVGID_9_)" stroke-width="3" stroke-miterlimit="10" cx="252.909" cy="297.712" r="4.662"/>
		<linearGradient id="SVGID_10_" gradientUnits="userSpaceOnUse" x1="228.34" y1="316.2705" x2="237.6638" y2="316.2705">
			<stop  offset="0.0056" style="stop-color:#EBC17D"/>
			<stop  offset="0.1854" style="stop-color:#DFB77C"/>
			<stop  offset="0.5955" style="stop-color:#C08329"/>
			<stop  offset="0.8708" style="stop-color:#EABE81"/>
			<stop  offset="1" style="stop-color:#EEDCC3"/>
		</linearGradient>
		<linearGradient id="SVGID_11_" gradientUnits="userSpaceOnUse" x1="226.84" y1="316.2705" x2="239.1638" y2="316.2705">
			<stop  offset="0.0056" style="stop-color:#EBC17D"/>
			<stop  offset="0.1854" style="stop-color:#DFB77C"/>
			<stop  offset="0.5955" style="stop-color:#C08329"/>
			<stop  offset="0.8708" style="stop-color:#EABE81"/>
			<stop  offset="1" style="stop-color:#EEDCC3"/>
		</linearGradient>
		
			<circle fill="url(#SVGID_10_)" stroke="url(#SVGID_11_)" stroke-width="3" stroke-miterlimit="10" cx="233.002" cy="316.271" r="4.662"/>
		<linearGradient id="SVGID_12_" gradientUnits="userSpaceOnUse" x1="252.9094" y1="320.9324" x2="262.2332" y2="320.9324">
			<stop  offset="0.0056" style="stop-color:#EBC17D"/>
			<stop  offset="0.1854" style="stop-color:#DFB77C"/>
			<stop  offset="0.5955" style="stop-color:#C08329"/>
			<stop  offset="0.8708" style="stop-color:#EABE81"/>
			<stop  offset="1" style="stop-color:#EEDCC3"/>
		</linearGradient>
		<linearGradient id="SVGID_13_" gradientUnits="userSpaceOnUse" x1="251.4094" y1="320.9324" x2="263.7332" y2="320.9324">
			<stop  offset="0.0056" style="stop-color:#EBC17D"/>
			<stop  offset="0.1854" style="stop-color:#DFB77C"/>
			<stop  offset="0.5955" style="stop-color:#C08329"/>
			<stop  offset="0.8708" style="stop-color:#EABE81"/>
			<stop  offset="1" style="stop-color:#EEDCC3"/>
		</linearGradient>
		
			<circle fill="url(#SVGID_12_)" stroke="url(#SVGID_13_)" stroke-width="3" stroke-miterlimit="10" cx="257.571" cy="320.932" r="4.662"/>
		<linearGradient id="SVGID_14_" gradientUnits="userSpaceOnUse" x1="231.1336" y1="293.05" x2="267.8611" y2="293.05">
			<stop  offset="0.0056" style="stop-color:#EBC17D"/>
			<stop  offset="0.1854" style="stop-color:#DFB77C"/>
			<stop  offset="0.5955" style="stop-color:#C08329"/>
			<stop  offset="0.8708" style="stop-color:#EABE81"/>
			<stop  offset="1" style="stop-color:#EEDCC3"/>
		</linearGradient>
		<linearGradient id="SVGID_15_" gradientUnits="userSpaceOnUse" x1="228.4771" y1="292.5704" x2="269.9824" y2="292.5704">
			<stop  offset="0.0056" style="stop-color:#EBC17D"/>
			<stop  offset="0.1854" style="stop-color:#DFB77C"/>
			<stop  offset="0.5955" style="stop-color:#C08329"/>
			<stop  offset="0.8708" style="stop-color:#EABE81"/>
			<stop  offset="1" style="stop-color:#EEDCC3"/>
		</linearGradient>
		<polygon fill="url(#SVGID_14_)" stroke="url(#SVGID_15_)" stroke-width="3" stroke-miterlimit="10" points="252.909,267.248 
			267.861,282.2 251.521,298.54 233.396,318.217 257.571,318.217 257.571,318.852 231.134,318.852 231.754,317.823 266.679,281.966 
			252.345,268.253 		"/>
	</g>
</g>
</svg>
