<?xml version="1.0" encoding="utf-8"?>
<!-- Generator: Adobe Illustrator 17.0.0, SVG Export Plug-In . SVG Version: 6.00 Build 0)  -->
<!DOCTYPE svg PUBLIC "-//W3C//DTD SVG 1.1//EN" "http://www.w3.org/Graphics/SVG/1.1/DTD/svg11.dtd">
<svg version="1.1" id="Layer_1" xmlns="http://www.w3.org/2000/svg" xmlns:xlink="http://www.w3.org/1999/xlink" x="0px" y="0px"
	 width="500px" height="500px" viewBox="0 0 500 500" enable-background="new 0 0 500 500" xml:space="preserve">
<linearGradient id="SVGID_1_" gradientUnits="userSpaceOnUse" x1="104.6496" y1="249.7183" x2="393.6357" y2="249.7183">
	<stop  offset="0.0056" style="stop-color:#EBC17D"/>
	<stop  offset="0.1854" style="stop-color:#DFB77C"/>
	<stop  offset="0.5955" style="stop-color:#C08329"/>
	<stop  offset="0.8708" style="stop-color:#EABE81"/>
	<stop  offset="1" style="stop-color:#EEDCC3"/>
</linearGradient>
<path fill="#FFFFFF" stroke="url(#SVGID_1_)" stroke-width="10" stroke-miterlimit="10" d="M388.636,377.622
	c0,6.627-4.851,12-10.835,12H120.485c-5.984,0-10.835-5.373-10.835-12V121.814c0-6.627,4.851-12,10.835-12h257.316
	c5.984,0,10.835,5.373,10.835,12V377.622z"/>
<g>
	<linearGradient id="SVGID_2_" gradientUnits="userSpaceOnUse" x1="140.7133" y1="272.8935" x2="354.5222" y2="272.8935">
		<stop  offset="0.0056" style="stop-color:#EBC17D"/>
		<stop  offset="0.1854" style="stop-color:#DFB77C"/>
		<stop  offset="0.5955" style="stop-color:#C08329"/>
		<stop  offset="0.8708" style="stop-color:#EABE81"/>
		<stop  offset="1" style="stop-color:#EEDCC3"/>
	</linearGradient>
	<path fill="url(#SVGID_2_)" d="M340.357,269.674c1.208,0.712,1.918,1.123,2.621,1.546c3.323,2.001,3.613,3.893,0.342,5.844
		c-4.504,2.688-9.258,4.99-14.026,7.198c-16.529,7.656-33.231,14.952-49.594,22.945c-4.55,2.223-8.712,1.682-12.999,0.989
		c-6.701-1.084-13.271-2.956-19.951-4.201c-11.746-2.191-23.548-4.074-35.297-6.246c-12.787-2.364-25.53-4.969-38.314-7.352
		c-6.901-1.287-13.837-2.389-20.775-3.461c-4.112-0.635-7.833-1.762-10.002-5.743c-3.804-6.981-0.871-15.441,7.203-19.683
		c5.425-2.851,11.107-5.213,16.669-7.804c10.505-4.892,21.048-9.706,31.486-14.738c3.196-1.541,6.327-2.234,9.862-1.902
		c15.734,1.478,31.48,2.832,47.222,4.232c0.426,0.038,0.85,0.096,1.277,0.123c17.682,1.139,35.366,2.239,53.044,3.424
		c11.924,0.799,23.844,1.678,35.759,2.6c4.68,0.362,8.425,3.063,9.314,6.501c1.216,4.703-1.125,7.826-4.774,10.222
		C346.608,266.017,343.666,267.675,340.357,269.674z M321.009,279.208c1.985-0.024,4.137,0.445,5.653-1.779
		c-3.59-0.33-3.59-0.33-5.506,1.943c-2.173-0.057-4.767-0.947-5.132,2.585c-3.723-1.195-6.368,1.528-9.299,2.805
		c-4.8,2.091-9.339,4.783-13.988,7.222c-2.181,0.784-4.417,1.442-6.528,2.383c-2.45,1.092-4.793,1.524-7.308,0.109
		c-1.194-5.448,3.687-5.791,6.399-7.089c19.162-9.175,38.501-17.98,57.731-27.015c1.87-0.879,3.385-2.515,5.064-3.8
		c-0.24-0.423-0.479-0.846-0.719-1.268c-1.342,0.232-2.813,0.183-4.005,0.737c-16.596,7.705-33.169,15.46-49.711,23.278
		c-4.929,2.329-9.931,4.592-14.573,7.421c-5.704,3.477-6.811,7.628-4.408,14.468c6.746-0.871,12.185-4.731,17.797-8.161
		c0.211-0.129,0.084-0.809,0.126-1.219c1.615,0.004,3.415,0.476,4.812-0.075c4.198-1.655,8.626-3.183,12.193-5.808
		c2.033-1.496,5.936-0.299,6.263-4.153C317.878,281.518,320.611,282.686,321.009,279.208z M330.266,254.553
		c-0.233-0.412-0.465-0.824-0.698-1.236c-12.071-1.083-24.13-2.337-36.217-3.207c-18.093-1.303-36.205-2.335-54.309-3.486
		c-0.639-0.041-1.275-0.143-1.914-0.19c-10.215-0.751-20.424-1.617-30.65-2.158c-2.454-0.13-5.172,0.355-7.415,1.352
		c-11.179,4.974-22.264,10.163-33.331,15.383c-4.598,2.168-9.264,4.295-13.549,6.995c-4.912,3.095-5.161,4.703-3.165,11.539
		c38.427,7.092,77.238,14.256,116.446,21.492c0.278-2.081,0.373-3.315,0.615-4.52c1.53-7.624,5.198-13.815,12.439-17.225
		c13.786-6.491,27.673-12.765,41.472-19.228C323.505,258.419,326.846,256.401,330.266,254.553z"/>
	<linearGradient id="SVGID_3_" gradientUnits="userSpaceOnUse" x1="200.5066" y1="210.0129" x2="294.7289" y2="210.0129">
		<stop  offset="0.0056" style="stop-color:#EBC17D"/>
		<stop  offset="0.1854" style="stop-color:#DFB77C"/>
		<stop  offset="0.5955" style="stop-color:#C08329"/>
		<stop  offset="0.8708" style="stop-color:#EABE81"/>
		<stop  offset="1" style="stop-color:#EEDCC3"/>
	</linearGradient>
	<path fill="url(#SVGID_3_)" d="M236.382,217.742c-0.945-2.315-1.841-4.651-2.844-6.94c-7.244-16.52,0.371-35.447,14.26-43.497
		c10.802,6.428,16.436,16.454,17.142,28.647c0.551,9.499-2.642,18.355-9.845,25.325c-4.608,4.459-5.403,12.104-1.614,18.682
		c0.494-2.236,1.044-3.703,1.112-5.191c0.614-13.611,12.751-28.62,30.22-28.683c3.103-0.011,6.209,0.808,9.009,1.201
		c4.247,15.455-7.021,31.744-21.003,35.122c-3.885,0.939-7.937,1.172-11.858,1.988c-1.772,0.369-3.539,1.171-5.075,2.145
		c-1.595,1.011-2.879,2.501-4.348,3.723c-3.871,3.221-4.278,3.377-7.914-0.128c-4.118-3.97-8.563-5.577-14.492-6.12
		c-12.631-1.158-22.408-7.904-26.873-20.146c-1.752-4.803-1.21-10.444-1.751-16.108c10.353-3.434,19.065-1.424,27.18,4.037
		c2.231,1.501,3.939,3.762,6.06,5.455c0.626,0.499,1.848,0.25,2.789,0.351c-0.074,1.218-0.454,2.514-0.154,3.627
		c1.516,5.633,3.178,11.228,4.884,16.806c0.185,0.606,0.989,1.022,1.68,1.695C246.153,229.013,244.74,224.493,236.382,217.742z
		 M252.865,212.648c8.9-11.173,6.209-29.186-5.42-36.566c-11.188,9.539-13.515,29.903-3.811,36.476
		c0.187-1.593,0.466-3.003,0.498-4.419c0.076-3.406,0.022-6.816,0.05-10.223c0.017-2.108,0.708-3.913,3.053-4.172
		c2.535-0.28,3.368,1.889,3.611,3.668c0.429,3.142,0.188,6.37,0.412,9.549C251.396,208.924,250.394,211.303,252.865,212.648z
		 M267.829,234.535c0.426,0.623,0.852,1.246,1.278,1.87c5.77-0.288,9.84-3.863,13.513-7.889c3.859-4.23,5.586-9.277,4.978-14.983
		c-11.066-2.352-23.899,6.256-23.909,16.425c3.978-3.302,7.603-6.312,11.449-9.506c1.38,1.582,2.438,2.794,4.431,5.077
		C275.478,228.668,271.654,231.601,267.829,234.535z M227.584,235.892c-2.502-2.36-4.158-3.934-5.826-5.493
		c-1.091-1.02-2.266-1.957-3.285-3.043c-1.449-1.545-2.065-3.365-0.524-5.148c1.664-1.926,3.263-1.235,4.861,0.357
		c1.629,1.622,3.386,3.133,5.2,4.547c1.165,0.908,2.534,1.554,4.467,2.708c-4.245-12.516-14.679-18.911-25.117-16.239
		C206.336,224.111,216.636,236.337,227.584,235.892z"/>
</g>
</svg>
