<?xml version="1.0" encoding="utf-8"?>
<!-- Generator: Adobe Illustrator 17.0.0, SVG Export Plug-In . SVG Version: 6.00 Build 0)  -->
<!DOCTYPE svg PUBLIC "-//W3C//DTD SVG 1.1//EN" "http://www.w3.org/Graphics/SVG/1.1/DTD/svg11.dtd">
<svg version="1.1" id="Layer_1" xmlns="http://www.w3.org/2000/svg" xmlns:xlink="http://www.w3.org/1999/xlink" x="0px" y="0px"
	 width="500px" height="500px" viewBox="0 0 500 500" enable-background="new 0 0 500 500" xml:space="preserve">
<g>
	<g>
		<path d="M186.901,99.025h-52.269c-9.016,0-16.334,7.318-16.334,16.334v111.072c0,9.016,7.318,16.334,16.334,16.334h52.269
			c9.016,0,16.334-7.318,16.334-16.334V115.359C203.235,106.343,195.918,99.025,186.901,99.025z M160.767,236.232
			c-5.423,0-9.8-4.377-9.8-9.801c0-5.423,4.377-9.8,9.8-9.8s9.8,4.377,9.8,9.8S166.189,236.232,160.767,236.232z M190.168,210.097
			h-58.803v-91.471h58.803V210.097z"/>
	</g>
</g>
</svg>
