<?xml version="1.0" encoding="utf-8"?>
<!-- Generator: Adobe Illustrator 17.0.0, SVG Export Plug-In . SVG Version: 6.00 Build 0)  -->
<!DOCTYPE svg PUBLIC "-//W3C//DTD SVG 1.1//EN" "http://www.w3.org/Graphics/SVG/1.1/DTD/svg11.dtd">
<svg version="1.1" id="Layer_1" xmlns="http://www.w3.org/2000/svg" xmlns:xlink="http://www.w3.org/1999/xlink" x="0px" y="0px"
	 width="500px" height="500px" viewBox="0 0 500 500" enable-background="new 0 0 500 500" xml:space="preserve">
<linearGradient id="SVGID_1_" gradientUnits="userSpaceOnUse" x1="104.6496" y1="249.7183" x2="393.6357" y2="249.7183">
	<stop  offset="0.0056" style="stop-color:#EBC17D"/>
	<stop  offset="0.1854" style="stop-color:#DFB77C"/>
	<stop  offset="0.5955" style="stop-color:#C08329"/>
	<stop  offset="0.8708" style="stop-color:#EABE81"/>
	<stop  offset="1" style="stop-color:#EEDCC3"/>
</linearGradient>
<path fill="#FFFFFF" stroke="url(#SVGID_1_)" stroke-width="10" stroke-miterlimit="10" d="M388.636,377.622
	c0,6.627-4.851,12-10.835,12H120.485c-5.984,0-10.835-5.373-10.835-12V121.814c0-6.627,4.851-12,10.835-12h257.316
	c5.984,0,10.835,5.373,10.835,12V377.622z"/>
<g>
	<linearGradient id="SVGID_2_" gradientUnits="userSpaceOnUse" x1="171.0014" y1="253.6554" x2="300.5588" y2="253.6554">
		<stop  offset="0.0056" style="stop-color:#EBC17D"/>
		<stop  offset="0.1854" style="stop-color:#DFB77C"/>
		<stop  offset="0.5955" style="stop-color:#C08329"/>
		<stop  offset="0.8708" style="stop-color:#EABE81"/>
		<stop  offset="1" style="stop-color:#EEDCC3"/>
	</linearGradient>
	<path fill="url(#SVGID_2_)" d="M171.001,308.061c1.134-1.127,2.228-2.299,3.417-3.364c0.667-0.598,1.426-1.217,2.255-1.491
		c6.275-2.07,12.653-3.735,19.228-4.557c5.289-0.661,10.541-0.785,15.704,0.875c4.057,1.305,7.503,3.579,10.698,6.361
		c7.659,6.67,16.436,11.104,26.497,12.83c8.398,1.441,16.677,1.209,24.645-2.162c6.999-2.961,12.622-7.674,16.831-13.969
		c5.741-8.585,4.698-18.585-2.636-25.93c-5.305-5.313-11.74-8.713-18.912-10.794c-0.805-0.234-1.588-0.546-2.39-0.791
		c-0.207-0.063-0.449-0.009-0.675-0.009c-0.011,0.069-0.022,0.138-0.034,0.207c0.095,0.059,0.183,0.133,0.285,0.174
		c1.17,0.469,2.032,1.29,2.685,2.348c2.432,3.939,4.877,7.87,7.281,11.827c0.487,0.802,0.926,1.667,1.194,2.561
		c0.75,2.501-0.441,4.555-2.983,5.157c-0.937,0.222-1.928,0.306-2.894,0.307c-18.326,0.017-36.652,0.022-54.978,0
		c-2.152-0.003-4.311-0.108-6.454-0.302c-0.807-0.073-1.629-0.439-2.356-0.834c-1.596-0.865-2.192-2.169-1.695-3.911
		c0.342-1.2,0.817-2.401,1.449-3.473c2.246-3.805,4.57-7.564,6.896-11.321c1.142-1.846,2.841-2.745,5.019-2.742
		c3.632,0.005,7.264,0.001,10.917-0.114c-1.285-0.214-2.57-0.431-3.855-0.643c-2.128-0.35-4.264-0.654-6.382-1.055
		c-2.195-0.415-3.636-1.849-3.792-4.042c-0.158-2.216-0.035-4.453-0.035-6.723c0.335,0.043,0.616,0.079,1.052,0.135
		c-1.239-1.466-1.106-3.132-1.11-4.769c-0.003-1.416-0.001-2.832-0.001-4.273c0.41,0,0.718,0,1.194,0
		c-1.762-1.994-0.793-4.31-0.917-6.473c-0.112-1.943,0.148-3.905,0.188-5.86c0.039-1.947,0.009-3.896,0.009-5.889
		c0.266,0,0.509,0,0.857,0c-1.348-1.331-1.318-2.967-1.128-4.598c0.182-1.566,0.316-3.153,0.778-4.872
		c-1.215-1.473-0.958-3.409-0.615-5.349c0.101-0.569,0.26-1.127,0.402-1.688c0.23-0.903,0.447-1.703-0.203-2.646
		c-0.695-1.008-0.284-2.233,0.144-3.431c-2.076-0.673-3.042-2.429-4.083-4.099c-1.961-3.147-3.917-6.298-5.834-9.472
		c-0.444-0.735-0.82-1.54-1.063-2.361c-0.717-2.424,0.425-4.431,2.848-5.142c0.418-0.123,0.841-0.23,1.262-0.345
		c20.961,0,41.922,0,62.883,0c0.555,0.136,1.115,0.25,1.663,0.411c2.396,0.705,3.479,2.586,2.823,4.996
		c-0.205,0.753-0.497,1.512-0.902,2.174c-2.376,3.879-4.756,7.757-7.222,11.579c-1.055,1.634-2.674,2.53-4.654,2.556
		c-4.263,0.056-8.528,0.061-12.791,0.087c-0.266,0.002-0.533,0-0.799,0c-0.001,0.037-0.002,0.073-0.003,0.11
		c5.278,0.905,10.557,1.81,15.842,2.717c0,9.341,0,18.624,0,27.936c-0.344-0.031-0.645-0.059-1.085-0.099
		c1.392,1.316,1.55,2.872,1.298,4.521c-0.171,1.116-0.39,2.226-0.577,3.34c-0.034,0.202-0.062,0.42-0.021,0.616
		c0.09,0.427,0.326,0.844,0.33,1.267c0.042,4.711,0.063,9.423,0.052,14.134c-0.001,0.622,0.201,0.837,0.785,1
		c1.998,0.559,3.995,1.136,5.956,1.813c7.285,2.516,13.872,6.178,19.185,11.884c3.683,3.957,6.512,8.387,7.53,13.795
		c0.231,1.227,0.373,2.47,0.556,3.706c0,0.79,0,1.58,0,2.37c-0.044,0.143-0.119,0.285-0.127,0.43
		c-0.24,4.118-1.428,7.958-3.443,11.539c-2.326,4.134-5.516,7.56-9.041,10.674c-7.821,6.909-16.965,10.579-27.398,11.012
		c-6.337,0.263-12.545-0.588-18.657-2.217c-8.443-2.251-16.072-6.027-22.529-12.014c-2.017-1.869-4.273-3.411-6.763-4.598
		c-5.827-2.776-11.927-3.103-18.119-1.76c-5.083,1.102-10.113,2.454-15.151,3.754c-1.473,0.38-2.858,0.415-4.329-0.047
		c-1.292-0.405-2.664-0.554-4-0.816C171.001,308.166,171.001,308.114,171.001,308.061z M273.446,283.518
		c-0.379-0.744-0.623-1.317-0.945-1.841c-2.324-3.788-4.689-7.552-6.982-11.359c-0.57-0.946-1.237-1.336-2.352-1.329
		c-8.029,0.047-16.059,0.044-24.089,0.045c-6.582,0.001-13.163-0.01-19.745-0.031c-0.821-0.003-1.491,0.189-1.946,0.937
		c-2.337,3.842-4.692,7.674-7.019,11.521c-0.317,0.523-0.515,1.118-0.819,1.794c0.633,0.131,1.112,0.299,1.597,0.319
		c1.682,0.07,3.365,0.123,5.048,0.123c18.324,0.008,36.648,0.007,54.972-0.002C271.842,283.696,272.517,283.594,273.446,283.518z
		 M273.426,185.519c-0.966-0.088-1.692-0.213-2.418-0.213c-20.061-0.002-40.123,0.008-60.184,0.026c-0.477,0-0.954,0.119-1.568,0.2
		c0.287,0.607,0.456,1.076,0.713,1.491c2.225,3.603,4.485,7.183,6.688,10.8c0.608,0.999,1.412,1.374,2.543,1.363
		c2.737-0.027,5.476,0.013,8.213,0.014c9.373,0.003,18.745,0.003,28.118,0c2.58-0.001,5.16-0.045,7.739-0.013
		c1.274,0.016,2.187-0.409,2.873-1.537c2.062-3.393,4.201-6.74,6.289-10.118C272.785,186.961,273.032,186.325,273.426,185.519z
		 M219.915,248.13c-0.289,1.772-0.214,1.928,1.443,2.201c3.761,0.619,7.53,1.196,11.295,1.794
		c8.127,1.291,16.254,2.586,24.382,3.876c1.834,0.291,3.671,0.568,5.578,0.863c0-0.532-0.022-0.978,0.006-1.42
		c0.028-0.435-0.15-0.577-0.575-0.643c-4.625-0.719-9.246-1.461-13.868-2.195c-7.479-1.187-14.958-2.373-22.437-3.558
		C223.798,248.74,221.856,248.436,219.915,248.13z M262.611,218.42c-14.171-2.272-28.329-4.542-42.475-6.81
		c-0.437,1.583-0.288,1.93,0.867,2.116c3.296,0.53,6.592,1.059,9.89,1.577c8.907,1.401,17.814,2.798,26.722,4.191
		c1.649,0.258,3.303,0.486,4.995,0.733C262.611,219.587,262.611,219.041,262.611,218.42z M262.561,247.8
		c0-0.53-0.034-0.874,0.008-1.208c0.074-0.587-0.156-0.826-0.743-0.917c-4.726-0.732-9.448-1.488-14.171-2.243
		c-6.721-1.074-13.441-2.153-20.161-3.228c-2.43-0.389-4.86-0.775-7.336-1.169c-0.063,0.457-0.103,0.846-0.173,1.23
		c-0.098,0.546,0.168,0.733,0.669,0.809c3.351,0.508,6.703,1.016,10.048,1.559c8.949,1.454,17.895,2.928,26.844,4.389
		C259.172,247.288,260.802,247.528,262.561,247.8z M262.604,227.565c-14.215-2.284-28.363-4.557-42.556-6.837
		c-0.032,0.301-0.053,0.454-0.064,0.607c-0.085,1.17-0.088,1.193,1.099,1.398c2.227,0.385,4.458,0.748,6.689,1.108
		c9.003,1.452,18.006,2.906,27.012,4.344c2.588,0.413,5.183,0.779,7.82,1.173C262.604,228.742,262.604,228.196,262.604,227.565z
		 M262.689,238.567c0.396-1.758,0.396-1.758-1.257-2.083c-0.026-0.005-0.052-0.009-0.078-0.013
		c-5.553-0.889-11.105-1.783-16.66-2.667c-6.878-1.094-13.757-2.179-20.636-3.267c-1.231-0.195-2.463-0.388-3.709-0.584
		c0,0.671,0,1.234,0,1.837C234.478,234.052,248.561,236.306,262.689,238.567z M262.604,209.315
		c-12.183-2.08-24.316-4.46-36.747-4.17c-0.009,0.069-0.018,0.137-0.027,0.206c12.239,1.93,24.479,3.861,36.774,5.8
		C262.604,210.468,262.604,209.924,262.604,209.315z M219.822,257.207c0,0.265-0.001,0.523,0,0.782
		c0.004,1.19,0.055,1.291,1.23,1.491c2.307,0.391,4.615,0.777,6.932,1.102c3.825,0.536,7.647,1.134,11.49,1.495
		c3.137,0.294,6.302,0.286,9.455,0.398c0.799,0.028,1.6,0.004,2.401,0.004c-0.005-0.045-0.01-0.09-0.016-0.135
		C240.842,260.636,230.369,258.927,219.822,257.207z"/>
</g>
</svg>
