<?xml version="1.0" encoding="utf-8"?>
<!-- Generator: Adobe Illustrator 17.0.0, SVG Export Plug-In . SVG Version: 6.00 Build 0)  -->
<!DOCTYPE svg PUBLIC "-//W3C//DTD SVG 1.1//EN" "http://www.w3.org/Graphics/SVG/1.1/DTD/svg11.dtd">
<svg version="1.1" id="Layer_1" xmlns="http://www.w3.org/2000/svg" xmlns:xlink="http://www.w3.org/1999/xlink" x="0px" y="0px"
	 width="500px" height="500px" viewBox="0 0 500 500" enable-background="new 0 0 500 500" xml:space="preserve">
<linearGradient id="SVGID_1_" gradientUnits="userSpaceOnUse" x1="104.6496" y1="249.7183" x2="393.6357" y2="249.7183">
	<stop  offset="0.0056" style="stop-color:#EBC17D"/>
	<stop  offset="0.1854" style="stop-color:#DFB77C"/>
	<stop  offset="0.5955" style="stop-color:#C08329"/>
	<stop  offset="0.8708" style="stop-color:#EABE81"/>
	<stop  offset="1" style="stop-color:#EEDCC3"/>
</linearGradient>
<path fill="#FFFFFF" stroke="url(#SVGID_1_)" stroke-width="10" stroke-miterlimit="10" d="M388.636,377.622
	c0,6.627-4.851,12-10.835,12H120.485c-5.984,0-10.835-5.373-10.835-12V121.814c0-6.627,4.851-12,10.835-12h257.316
	c5.984,0,10.835,5.373,10.835,12V377.622z"/>
<g>
	<linearGradient id="SVGID_2_" gradientUnits="userSpaceOnUse" x1="164.5137" y1="244.9154" x2="333.7715" y2="244.9154">
		<stop  offset="0.0056" style="stop-color:#EBC17D"/>
		<stop  offset="0.1854" style="stop-color:#DFB77C"/>
		<stop  offset="0.5955" style="stop-color:#C08329"/>
		<stop  offset="0.8708" style="stop-color:#EABE81"/>
		<stop  offset="1" style="stop-color:#EEDCC3"/>
	</linearGradient>
	<path fill="url(#SVGID_2_)" d="M333.65,278.354l-4.963-10.621l4.963-10.621l-4.963-10.62l5.084-10.877l-4.41-7.534V210.9h-15.677
		l-9.824-5.028l-10.863,4.398l-6.852-2.774l-2.634-6.232l5.132-10.979l-4.41-7.534v-17.182h-15.677l-9.826-5.027l-10.861,4.398
		l-10.621-4.3l-10.621,4.3l-10.621-4.301l-10.619,4.301l-11.105-4.498l-8.19,5.127h-16.44v17.086l-5.138,7.408l5.189,11.105
		l-4.963,10.621l4.963,10.621l-4.963,10.62l4.963,10.62l-5.004,10.709l4.593,9.054l-0.389,15.517h15.802l9.826,5.028l10.861-4.398
		l6.213,2.516l3.227,6.905l-5.005,10.709l4.595,9.054l-0.39,15.517h15.803l9.824,5.028l10.863-4.398l10.621,4.3l10.621-4.3
		l10.621,4.3l10.619-4.3l11.105,4.498l8.19-5.128h16.44v-15.375l4.996-9.11l-5.047-10.801L333.65,278.354z M274.616,185.969
		l2.829,4.833l-4.793,10.26l3.192,7.553l-4.088,1.655l-10.621-4.3l-10.619,4.3l-0.167-0.067L274.616,185.969z M271.058,175.495
		L239.34,207.17l-8.119,3.731h-10.726l38.92-38.859l6.749,3.453H271.058z M211.095,235.376l-31.972,31.928l0.154-6.148l-3.067-6.043
		l38.572-38.509v11.381L211.095,235.376z M243.519,173.887l-65.092,64.989l-2.731-5.845l4.935-10.562l47.522-47.44l9.095-3.682
		L243.519,173.887z M175.921,191.031l3.656-5.27v-10.266h9.366l6.309-3.95l10.134,4.104l10.62-4.3l1.271,0.515l-41.079,41.005
		l-0.504-1.078l4.963-10.623L175.921,191.031z M195.012,273.056l-5.027-2.572l24.582-24.55l0.265,0.564l-4.963,10.621l4.963,10.621
		l-1.94,4.149l-7.5-3.037L195.012,273.056z M322.694,278.354l-4.961,10.621l4.879,10.442l-3.799,6.927v7.991h-9.366l-6.309,3.951
		l-10.133-4.104l-10.62,4.3l-10.621-4.3l-10.621,4.3l-10.621-4.3l-10.38,4.203l-7.915-4.051h-8.018l0.198-7.847l-3.54-6.976
		l4.92-10.531l-4.963-10.62l4.963-10.62l-4.963-10.621l4.963-10.621l-4.737-10.137l3.656-5.271v-10.265h9.366l6.309-3.951
		l10.134,4.104l10.62-4.3l10.62,4.3l10.621-4.3l10.621,4.3l10.381-4.203l7.915,4.051h8.143v9.947l3.138,5.36l-4.841,10.36
		l4.963,10.62l-4.963,10.62L322.694,278.354z"/>
	<linearGradient id="SVGID_3_" gradientUnits="userSpaceOnUse" x1="231.9805" y1="234.83" x2="241.914" y2="234.83">
		<stop  offset="0.0056" style="stop-color:#EBC17D"/>
		<stop  offset="0.1854" style="stop-color:#DFB77C"/>
		<stop  offset="0.5955" style="stop-color:#C08329"/>
		<stop  offset="0.8708" style="stop-color:#EABE81"/>
		<stop  offset="1" style="stop-color:#EEDCC3"/>
	</linearGradient>
	<path fill="url(#SVGID_3_)" d="M236.947,229.867c-2.596,0-5.083,2.283-4.963,4.963c0.12,2.689,2.181,4.963,4.963,4.963
		c2.596,0,5.083-2.282,4.963-4.963C241.79,232.141,239.73,229.867,236.947,229.867z"/>
	<linearGradient id="SVGID_4_" gradientUnits="userSpaceOnUse" x1="255.0295" y1="234.83" x2="264.9631" y2="234.83">
		<stop  offset="0.0056" style="stop-color:#EBC17D"/>
		<stop  offset="0.1854" style="stop-color:#DFB77C"/>
		<stop  offset="0.5955" style="stop-color:#C08329"/>
		<stop  offset="0.8708" style="stop-color:#EABE81"/>
		<stop  offset="1" style="stop-color:#EEDCC3"/>
	</linearGradient>
	<path fill="url(#SVGID_4_)" d="M259.996,229.867c-2.596,0-5.083,2.283-4.963,4.963c0.12,2.689,2.18,4.963,4.963,4.963
		c2.596,0,5.083-2.282,4.963-4.963C264.838,232.141,262.778,229.867,259.996,229.867z"/>
	<linearGradient id="SVGID_5_" gradientUnits="userSpaceOnUse" x1="278.0773" y1="234.83" x2="288.0108" y2="234.83">
		<stop  offset="0.0056" style="stop-color:#EBC17D"/>
		<stop  offset="0.1854" style="stop-color:#DFB77C"/>
		<stop  offset="0.5955" style="stop-color:#C08329"/>
		<stop  offset="0.8708" style="stop-color:#EABE81"/>
		<stop  offset="1" style="stop-color:#EEDCC3"/>
	</linearGradient>
	<path fill="url(#SVGID_5_)" d="M283.044,229.867c-2.596,0-5.083,2.283-4.963,4.963c0.12,2.689,2.181,4.963,4.963,4.963
		c2.596,0,5.083-2.282,4.963-4.963C287.887,232.141,285.827,229.867,283.044,229.867z"/>
	<linearGradient id="SVGID_6_" gradientUnits="userSpaceOnUse" x1="301.1263" y1="234.83" x2="311.0598" y2="234.83">
		<stop  offset="0.0056" style="stop-color:#EBC17D"/>
		<stop  offset="0.1854" style="stop-color:#DFB77C"/>
		<stop  offset="0.5955" style="stop-color:#C08329"/>
		<stop  offset="0.8708" style="stop-color:#EABE81"/>
		<stop  offset="1" style="stop-color:#EEDCC3"/>
	</linearGradient>
	<path fill="url(#SVGID_6_)" d="M306.093,229.867c-2.596,0-5.083,2.283-4.963,4.963c0.12,2.689,2.18,4.963,4.963,4.963
		c2.596,0,5.083-2.282,4.963-4.963C310.936,232.141,308.875,229.867,306.093,229.867z"/>
	<linearGradient id="SVGID_7_" gradientUnits="userSpaceOnUse" x1="243.6697" y1="251.372" x2="253.6032" y2="251.372">
		<stop  offset="0.0056" style="stop-color:#EBC17D"/>
		<stop  offset="0.1854" style="stop-color:#DFB77C"/>
		<stop  offset="0.5955" style="stop-color:#C08329"/>
		<stop  offset="0.8708" style="stop-color:#EABE81"/>
		<stop  offset="1" style="stop-color:#EEDCC3"/>
	</linearGradient>
	<path fill="url(#SVGID_7_)" d="M248.636,246.409c-2.596,0-5.083,2.283-4.963,4.963c0.12,2.689,2.181,4.963,4.963,4.963
		c2.596,0,5.083-2.283,4.963-4.963C253.479,248.683,251.419,246.409,248.636,246.409z"/>
	<linearGradient id="SVGID_8_" gradientUnits="userSpaceOnUse" x1="266.7187" y1="251.372" x2="276.6523" y2="251.372">
		<stop  offset="0.0056" style="stop-color:#EBC17D"/>
		<stop  offset="0.1854" style="stop-color:#DFB77C"/>
		<stop  offset="0.5955" style="stop-color:#C08329"/>
		<stop  offset="0.8708" style="stop-color:#EABE81"/>
		<stop  offset="1" style="stop-color:#EEDCC3"/>
	</linearGradient>
	<path fill="url(#SVGID_8_)" d="M271.685,246.409c-2.596,0-5.083,2.283-4.963,4.963c0.12,2.689,2.18,4.963,4.963,4.963
		c2.596,0,5.083-2.283,4.963-4.963C276.528,248.683,274.467,246.409,271.685,246.409z"/>
	<linearGradient id="SVGID_9_" gradientUnits="userSpaceOnUse" x1="289.7664" y1="251.372" x2="299.7012" y2="251.372">
		<stop  offset="0.0056" style="stop-color:#EBC17D"/>
		<stop  offset="0.1854" style="stop-color:#DFB77C"/>
		<stop  offset="0.5955" style="stop-color:#C08329"/>
		<stop  offset="0.8708" style="stop-color:#EABE81"/>
		<stop  offset="1" style="stop-color:#EEDCC3"/>
	</linearGradient>
	<path fill="url(#SVGID_9_)" d="M294.733,246.409c-2.596,0-5.083,2.283-4.963,4.963c0.121,2.689,2.181,4.963,4.963,4.963
		c2.597,0,5.083-2.283,4.964-4.963C299.576,248.683,297.516,246.409,294.733,246.409z"/>
	<linearGradient id="SVGID_10_" gradientUnits="userSpaceOnUse" x1="231.9805" y1="267.914" x2="241.914" y2="267.914">
		<stop  offset="0.0056" style="stop-color:#EBC17D"/>
		<stop  offset="0.1854" style="stop-color:#DFB77C"/>
		<stop  offset="0.5955" style="stop-color:#C08329"/>
		<stop  offset="0.8708" style="stop-color:#EABE81"/>
		<stop  offset="1" style="stop-color:#EEDCC3"/>
	</linearGradient>
	<path fill="url(#SVGID_10_)" d="M236.947,262.951c-2.596,0-5.083,2.282-4.963,4.963c0.12,2.689,2.181,4.963,4.963,4.963
		c2.596,0,5.083-2.283,4.963-4.963C241.79,265.225,239.73,262.951,236.947,262.951z"/>
	<linearGradient id="SVGID_11_" gradientUnits="userSpaceOnUse" x1="255.0295" y1="267.914" x2="264.9631" y2="267.914">
		<stop  offset="0.0056" style="stop-color:#EBC17D"/>
		<stop  offset="0.1854" style="stop-color:#DFB77C"/>
		<stop  offset="0.5955" style="stop-color:#C08329"/>
		<stop  offset="0.8708" style="stop-color:#EABE81"/>
		<stop  offset="1" style="stop-color:#EEDCC3"/>
	</linearGradient>
	<path fill="url(#SVGID_11_)" d="M259.996,262.951c-2.596,0-5.083,2.282-4.963,4.963c0.12,2.689,2.18,4.963,4.963,4.963
		c2.596,0,5.083-2.283,4.963-4.963C264.838,265.225,262.778,262.951,259.996,262.951z"/>
	<linearGradient id="SVGID_12_" gradientUnits="userSpaceOnUse" x1="278.0773" y1="267.914" x2="288.0108" y2="267.914">
		<stop  offset="0.0056" style="stop-color:#EBC17D"/>
		<stop  offset="0.1854" style="stop-color:#DFB77C"/>
		<stop  offset="0.5955" style="stop-color:#C08329"/>
		<stop  offset="0.8708" style="stop-color:#EABE81"/>
		<stop  offset="1" style="stop-color:#EEDCC3"/>
	</linearGradient>
	<path fill="url(#SVGID_12_)" d="M283.044,262.951c-2.596,0-5.083,2.282-4.963,4.963c0.12,2.689,2.181,4.963,4.963,4.963
		c2.596,0,5.083-2.283,4.963-4.963C287.887,265.225,285.827,262.951,283.044,262.951z"/>
	<linearGradient id="SVGID_13_" gradientUnits="userSpaceOnUse" x1="301.1263" y1="267.914" x2="311.0598" y2="267.914">
		<stop  offset="0.0056" style="stop-color:#EBC17D"/>
		<stop  offset="0.1854" style="stop-color:#DFB77C"/>
		<stop  offset="0.5955" style="stop-color:#C08329"/>
		<stop  offset="0.8708" style="stop-color:#EABE81"/>
		<stop  offset="1" style="stop-color:#EEDCC3"/>
	</linearGradient>
	<path fill="url(#SVGID_13_)" d="M306.093,262.951c-2.596,0-5.083,2.282-4.963,4.963c0.12,2.689,2.18,4.963,4.963,4.963
		c2.596,0,5.083-2.283,4.963-4.963C310.936,265.225,308.875,262.951,306.093,262.951z"/>
	<linearGradient id="SVGID_14_" gradientUnits="userSpaceOnUse" x1="231.9805" y1="301.6598" x2="241.914" y2="301.6598">
		<stop  offset="0.0056" style="stop-color:#EBC17D"/>
		<stop  offset="0.1854" style="stop-color:#DFB77C"/>
		<stop  offset="0.5955" style="stop-color:#C08329"/>
		<stop  offset="0.8708" style="stop-color:#EABE81"/>
		<stop  offset="1" style="stop-color:#EEDCC3"/>
	</linearGradient>
	<path fill="url(#SVGID_14_)" d="M236.947,296.697c-2.596,0-5.083,2.283-4.963,4.964c0.12,2.689,2.181,4.963,4.963,4.963
		c2.596,0,5.083-2.283,4.963-4.963C241.79,298.971,239.73,296.697,236.947,296.697z"/>
	<linearGradient id="SVGID_15_" gradientUnits="userSpaceOnUse" x1="255.0295" y1="301.6598" x2="264.9631" y2="301.6598">
		<stop  offset="0.0056" style="stop-color:#EBC17D"/>
		<stop  offset="0.1854" style="stop-color:#DFB77C"/>
		<stop  offset="0.5955" style="stop-color:#C08329"/>
		<stop  offset="0.8708" style="stop-color:#EABE81"/>
		<stop  offset="1" style="stop-color:#EEDCC3"/>
	</linearGradient>
	<path fill="url(#SVGID_15_)" d="M259.996,296.697c-2.596,0-5.083,2.283-4.963,4.964c0.12,2.689,2.18,4.963,4.963,4.963
		c2.596,0,5.083-2.283,4.963-4.963C264.838,298.971,262.778,296.697,259.996,296.697z"/>
	<linearGradient id="SVGID_16_" gradientUnits="userSpaceOnUse" x1="278.0773" y1="301.6598" x2="288.0108" y2="301.6598">
		<stop  offset="0.0056" style="stop-color:#EBC17D"/>
		<stop  offset="0.1854" style="stop-color:#DFB77C"/>
		<stop  offset="0.5955" style="stop-color:#C08329"/>
		<stop  offset="0.8708" style="stop-color:#EABE81"/>
		<stop  offset="1" style="stop-color:#EEDCC3"/>
	</linearGradient>
	<path fill="url(#SVGID_16_)" d="M283.044,296.697c-2.596,0-5.083,2.283-4.963,4.964c0.12,2.689,2.181,4.963,4.963,4.963
		c2.596,0,5.083-2.283,4.963-4.963C287.887,298.971,285.827,296.697,283.044,296.697z"/>
	<linearGradient id="SVGID_17_" gradientUnits="userSpaceOnUse" x1="301.1263" y1="301.6598" x2="311.0598" y2="301.6598">
		<stop  offset="0.0056" style="stop-color:#EBC17D"/>
		<stop  offset="0.1854" style="stop-color:#DFB77C"/>
		<stop  offset="0.5955" style="stop-color:#C08329"/>
		<stop  offset="0.8708" style="stop-color:#EABE81"/>
		<stop  offset="1" style="stop-color:#EEDCC3"/>
	</linearGradient>
	<path fill="url(#SVGID_17_)" d="M306.093,296.697c-2.596,0-5.083,2.283-4.963,4.964c0.12,2.689,2.18,4.963,4.963,4.963
		c2.596,0,5.083-2.283,4.963-4.963C310.936,298.971,308.875,296.697,306.093,296.697z"/>
	<linearGradient id="SVGID_18_" gradientUnits="userSpaceOnUse" x1="243.6697" y1="284.456" x2="253.6032" y2="284.456">
		<stop  offset="0.0056" style="stop-color:#EBC17D"/>
		<stop  offset="0.1854" style="stop-color:#DFB77C"/>
		<stop  offset="0.5955" style="stop-color:#C08329"/>
		<stop  offset="0.8708" style="stop-color:#EABE81"/>
		<stop  offset="1" style="stop-color:#EEDCC3"/>
	</linearGradient>
	<path fill="url(#SVGID_18_)" d="M248.636,279.493c-2.596,0-5.083,2.282-4.963,4.963c0.12,2.689,2.181,4.963,4.963,4.963
		c2.596,0,5.083-2.283,4.963-4.963C253.479,281.767,251.419,279.493,248.636,279.493z"/>
	<linearGradient id="SVGID_19_" gradientUnits="userSpaceOnUse" x1="266.7187" y1="284.456" x2="276.6523" y2="284.456">
		<stop  offset="0.0056" style="stop-color:#EBC17D"/>
		<stop  offset="0.1854" style="stop-color:#DFB77C"/>
		<stop  offset="0.5955" style="stop-color:#C08329"/>
		<stop  offset="0.8708" style="stop-color:#EABE81"/>
		<stop  offset="1" style="stop-color:#EEDCC3"/>
	</linearGradient>
	<path fill="url(#SVGID_19_)" d="M271.685,279.493c-2.596,0-5.083,2.282-4.963,4.963c0.12,2.689,2.18,4.963,4.963,4.963
		c2.596,0,5.083-2.283,4.963-4.963C276.528,281.767,274.467,279.493,271.685,279.493z"/>
	<linearGradient id="SVGID_20_" gradientUnits="userSpaceOnUse" x1="289.7664" y1="284.456" x2="299.7012" y2="284.456">
		<stop  offset="0.0056" style="stop-color:#EBC17D"/>
		<stop  offset="0.1854" style="stop-color:#DFB77C"/>
		<stop  offset="0.5955" style="stop-color:#C08329"/>
		<stop  offset="0.8708" style="stop-color:#EABE81"/>
		<stop  offset="1" style="stop-color:#EEDCC3"/>
	</linearGradient>
	<path fill="url(#SVGID_20_)" d="M294.733,279.493c-2.596,0-5.083,2.282-4.963,4.963c0.121,2.689,2.181,4.963,4.963,4.963
		c2.597,0,5.083-2.283,4.964-4.963C299.576,281.767,297.516,279.493,294.733,279.493z"/>
</g>
</svg>
