<?xml version="1.0" encoding="utf-8"?>
<!-- Generator: Adobe Illustrator 17.0.0, SVG Export Plug-In . SVG Version: 6.00 Build 0)  -->
<!DOCTYPE svg PUBLIC "-//W3C//DTD SVG 1.1//EN" "http://www.w3.org/Graphics/SVG/1.1/DTD/svg11.dtd">
<svg version="1.1" id="Layer_1" xmlns="http://www.w3.org/2000/svg" xmlns:xlink="http://www.w3.org/1999/xlink" x="0px" y="0px"
	 width="500px" height="500px" viewBox="0 0 500 500" enable-background="new 0 0 500 500" xml:space="preserve">
<linearGradient id="SVGID_1_" gradientUnits="userSpaceOnUse" x1="104.6496" y1="249.7183" x2="393.6357" y2="249.7183">
	<stop  offset="0.0056" style="stop-color:#EBC17D"/>
	<stop  offset="0.1854" style="stop-color:#DFB77C"/>
	<stop  offset="0.5955" style="stop-color:#C08329"/>
	<stop  offset="0.8708" style="stop-color:#EABE81"/>
	<stop  offset="1" style="stop-color:#EEDCC3"/>
</linearGradient>
<path fill="#FFFFFF" stroke="url(#SVGID_1_)" stroke-width="10" stroke-miterlimit="10" d="M388.636,377.622
	c0,6.627-4.851,12-10.835,12H120.485c-5.984,0-10.835-5.373-10.835-12V121.814c0-6.627,4.851-12,10.835-12h257.316
	c5.984,0,10.835,5.373,10.835,12V377.622z"/>
<linearGradient id="SVGID_2_" gradientUnits="userSpaceOnUse" x1="216.7702" y1="246.2573" x2="289.2298" y2="246.2573">
	<stop  offset="0.0056" style="stop-color:#EBC17D"/>
	<stop  offset="0.1854" style="stop-color:#DFB77C"/>
	<stop  offset="0.5955" style="stop-color:#C08329"/>
	<stop  offset="0.8708" style="stop-color:#EABE81"/>
	<stop  offset="1" style="stop-color:#EEDCC3"/>
</linearGradient>
<linearGradient id="SVGID_3_" gradientUnits="userSpaceOnUse" x1="214.7702" y1="246.2573" x2="291.2298" y2="246.2573">
	<stop  offset="0.0056" style="stop-color:#EBC17D"/>
	<stop  offset="0.1854" style="stop-color:#DFB77C"/>
	<stop  offset="0.5955" style="stop-color:#C08329"/>
	<stop  offset="0.8708" style="stop-color:#EABE81"/>
	<stop  offset="1" style="stop-color:#EEDCC3"/>
</linearGradient>
<path fill="url(#SVGID_2_)" stroke="url(#SVGID_3_)" stroke-width="4" stroke-miterlimit="10" d="M216.771,246.364
	c-0.034-9.483,1.165-18.832,2.738-28.103c0.911-5.368,2.654-10.601,4.119-15.867c1.863-6.694,4.76-12.94,8.699-18.659
	c3.371-4.895,7.379-9.149,13-11.545c3.942-1.681,7.966-2.152,12.185-1.1c7.957,1.983,12.984,7.578,17.241,14.016
	c2.905,4.393,4.957,9.228,6.807,14.183c2.288,6.131,3.675,12.472,5.126,18.807c0.524,2.286,0.774,4.639,1.069,6.972
	c1.306,10.315,1.904,20.686,1.129,31.048c-0.583,7.802-1.41,15.616-3.227,23.269c-2.162,9.107-4.91,18.009-9.671,26.138
	c-3.087,5.271-6.867,9.932-12.134,13.294c-7.536,4.811-16.892,4.041-23.949-1.65c-5.242-4.227-8.895-9.64-11.823-15.608
	c-3.718-7.579-6.281-15.552-7.797-23.837c-0.938-5.13-1.691-10.305-2.265-15.489C217.435,256.962,217.174,251.655,216.771,246.364z
	 M277.246,290.612c-0.743-0.549-1.294-1.092-1.951-1.42c-7.342-3.66-14.682-7.322-22.062-10.902
	c-2.697-1.308-2.762-1.225-4.849,1.045c-5.086,5.531-10.118,11.111-15.257,16.592c-1.21,1.29-1.448,2.546-0.669,3.996
	c2.457,4.581,5.007,9.113,8.845,12.729c2.482,2.339,5.256,4.314,8.671,4.914c4.883,0.858,9.226-0.522,13.009-3.722
	c4.291-3.63,7.351-8.189,9.798-13.169C274.337,297.507,275.656,294.22,277.246,290.612z M282.793,239.524
	c-5.517-3.152-10.514-6.057-15.581-8.836c-0.612-0.336-1.746-0.269-2.382,0.079c-3.941,2.157-7.826,4.418-11.697,6.701
	c-7.719,4.552-15.408,9.158-23.139,13.69c-0.844,0.495-1.06,0.988-0.836,1.784c4.118,1.447,8.114,2.846,12.107,4.256
	c4.654,1.643,9.336,3.216,13.942,4.986c1.718,0.66,2.775,0.268,4.06-0.935c6.058-5.669,12.223-11.223,18.339-16.83
	C279.235,242.924,280.823,241.386,282.793,239.524z M273.671,192.16c-2.567-5.193-5.341-9.722-9.376-13.375
	c-6.274-5.68-13.131-6.698-20.177-1.526c-5.161,3.789-8.485,9.011-11.12,14.728c-0.13,0.282-0.055,0.658-0.084,1.115
	c4.091,2.119,8.133,4.223,12.192,6.295c0.359,0.183,0.852,0.293,1.233,0.21c1.432-0.312,2.845-0.711,4.261-1.09
	c3.499-0.936,6.983-1.929,10.497-2.805c3.531-0.88,7.098-1.618,10.632-2.485C272.351,193.076,272.893,192.6,273.671,192.16z
	 M250.289,221.286c-1.626-0.913-2.878-1.63-4.142-2.325c-5.279-2.901-10.554-5.812-15.847-8.687
	c-2.444-1.327-3.976-0.552-4.403,2.152c-0.108,0.686-0.195,1.376-0.318,2.059c-0.609,3.399-1.25,6.793-1.83,10.197
	c-0.291,1.709-0.499,3.433-0.704,5.154c-0.191,1.596-0.576,3.205,0.008,4.96c0.61-0.17,1.123-0.233,1.563-0.447
	c7.892-3.842,15.78-7.694,23.653-11.574C248.908,222.46,249.439,221.921,250.289,221.286z M283.653,244.766
	c-0.547,0-0.664-0.036-0.707,0.005c-6.499,6.198-13.002,12.394-19.465,18.63c-0.361,0.348-0.392,1.037-0.601,1.637
	c6.113,2.594,12.089,4.977,18.498,7.269C283.306,262.987,283.945,253.975,283.653,244.766z M223.709,264.684
	c0,1.473-0.118,2.344,0.02,3.172c0.598,3.585,1.189,7.174,1.938,10.73c0.73,3.463,1.61,6.897,2.517,10.319
	c0.171,0.646,0.778,1.177,1.307,1.938c5.493-5.457,10.906-10.445,15.738-16.366C237.968,271.123,231.201,267.723,223.709,264.684z
	 M261.541,227.559c-1.937-1.111-3.668-2.054-5.343-3.088c-0.759-0.468-1.303-0.453-2.117-0.008
	c-4.381,2.394-8.851,4.626-13.226,7.031c-5.655,3.109-11.255,6.318-16.858,9.521c-0.552,0.315-1.289,0.835-1.371,1.35
	c-0.337,2.12-0.6,4.283,0.287,6.622c12.712-6.838,25.292-13.601,37.86-20.386C261.044,228.455,261.181,228.062,261.541,227.559z
	 M267.244,213.628c-0.898-0.702-1.441-1.27-2.1-1.619c-5.49-2.91-10.983-5.816-16.529-8.616c-0.676-0.342-1.748-0.276-2.506-0.018
	c-4.256,1.45-8.472,3.017-13.073,4.678c0.704,0.63,1.171,1.263,1.798,1.576c6.257,3.132,12.534,6.224,18.825,9.286
	c0.572,0.279,1.422,0.578,1.906,0.354C259.384,217.511,263.147,215.628,267.244,213.628z M250.998,202.422
	c6.328,3.265,12.132,6.301,17.99,9.229c0.694,0.347,1.795,0.377,2.515,0.083c2.309-0.943,4.536-2.089,6.776-3.196
	c0.811-0.401,1.066-1.124,0.788-1.984c-0.767-2.377-1.494-4.769-2.355-7.111c-0.469-1.275-0.882-2.843-1.851-3.594
	c-1.263-0.979-2.764,0.292-4.158,0.662c-5.752,1.529-11.518,3.007-17.264,4.56C252.731,201.262,252.115,201.791,250.998,202.422z
	 M225.046,254.432c-1.189,0.061-2.339,1.164-2.402,2.212c-0.052,0.865,0.047,1.738,0.062,2.608c0.025,1.461,0.626,2.446,2.104,2.893
	c1.149,0.347,2.264,0.82,3.37,1.295c6.183,2.657,12.364,5.318,18.528,8.018c0.932,0.408,1.583,0.346,2.299-0.424
	c1.168-1.253,2.479-2.372,3.662-3.612c0.895-0.939,0.727-1.598-0.453-2.113c-1.651-0.721-3.304-1.442-4.979-2.106
	c-7.07-2.803-14.149-5.584-21.224-8.374C225.624,254.675,225.237,254.51,225.046,254.432z M280.533,277.739
	c-1.451-0.652-2.534-1.155-3.63-1.629c-4.429-1.916-8.906-3.729-13.283-5.757c-5.224-2.421-5.249-2.486-8.903,2.062
	c-1.078,1.341-0.905,2.066,0.63,2.737c3.066,1.341,6.116,2.718,9.194,4.033c4.202,1.795,8.438,3.515,12.626,5.341
	c0.937,0.408,1.658,0.233,1.902-0.594C279.65,281.968,280.027,279.942,280.533,277.739z M276.612,220.157
	c-0.407-0.634-0.583-1.177-0.956-1.438c-1.058-0.74-2.222-1.325-3.295-2.045c-0.98-0.658-1.89-0.639-2.915-0.099
	c-2.592,1.365-5.196,2.71-7.834,3.983c-0.84,0.405-1.248,0.862-0.964,1.815c1.514,0.776,2.981,1.697,4.573,2.279
	c0.892,0.326,2.15,0.434,2.963,0.048C270.958,223.383,273.608,221.804,276.612,220.157z M283.383,233.521
	c-0.064-1.397-0.056-2.247-0.15-3.086c-0.212-1.895-0.561-3.778-0.686-5.677c-0.088-1.338-0.563-2.282-1.965-2.974
	c-2.918,1.954-6.429,3.112-9.324,5.838C275.377,229.597,278.761,232.173,283.383,233.521z M228.202,203.679
	c2.227,0.622,8.908-1.096,13.376-3.403c-3.197-2.11-6.527-3.509-10.225-4.998C230.241,198.246,229.225,200.953,228.202,203.679z
	 M280.117,211.713c-2.123,0.412-3.879,1.124-5.263,2.825c4.713,2.864,4.713,2.864,6.548,2.361
	C280.995,215.256,280.587,213.607,280.117,211.713z"/>
</svg>
