<?xml version="1.0" encoding="utf-8"?>
<!-- Generator: Adobe Illustrator 17.0.0, SVG Export Plug-In . SVG Version: 6.00 Build 0)  -->
<!DOCTYPE svg PUBLIC "-//W3C//DTD SVG 1.1//EN" "http://www.w3.org/Graphics/SVG/1.1/DTD/svg11.dtd">
<svg version="1.1" id="Layer_1" xmlns="http://www.w3.org/2000/svg" xmlns:xlink="http://www.w3.org/1999/xlink" x="0px" y="0px"
	 width="500px" height="500px" viewBox="0 0 500 500" enable-background="new 0 0 500 500" xml:space="preserve">
<linearGradient id="SVGID_1_" gradientUnits="userSpaceOnUse" x1="104.6496" y1="249.7183" x2="393.6357" y2="249.7183">
	<stop  offset="0.0056" style="stop-color:#EBC17D"/>
	<stop  offset="0.1854" style="stop-color:#DFB77C"/>
	<stop  offset="0.5955" style="stop-color:#C08329"/>
	<stop  offset="0.8708" style="stop-color:#EABE81"/>
	<stop  offset="1" style="stop-color:#EEDCC3"/>
</linearGradient>
<path fill="#FFFFFF" stroke="url(#SVGID_1_)" stroke-width="10" stroke-miterlimit="10" d="M388.636,377.622
	c0,6.627-4.851,12-10.835,12H120.485c-5.984,0-10.835-5.373-10.835-12V121.814c0-6.627,4.851-12,10.835-12h257.316
	c5.984,0,10.835,5.373,10.835,12V377.622z"/>
<g>
	<g>
		<linearGradient id="SVGID_2_" gradientUnits="userSpaceOnUse" x1="178.1205" y1="199.5772" x2="183.943" y2="199.5772">
			<stop  offset="0.0056" style="stop-color:#EBC17D"/>
			<stop  offset="0.1854" style="stop-color:#DFB77C"/>
			<stop  offset="0.5955" style="stop-color:#C08329"/>
			<stop  offset="0.8708" style="stop-color:#EABE81"/>
			<stop  offset="1" style="stop-color:#EEDCC3"/>
		</linearGradient>
		<linearGradient id="SVGID_3_" gradientUnits="userSpaceOnUse" x1="177.6205" y1="199.5772" x2="184.443" y2="199.5772">
			<stop  offset="0.0056" style="stop-color:#EBC17D"/>
			<stop  offset="0.1854" style="stop-color:#DFB77C"/>
			<stop  offset="0.5955" style="stop-color:#C08329"/>
			<stop  offset="0.8708" style="stop-color:#EABE81"/>
			<stop  offset="1" style="stop-color:#EEDCC3"/>
		</linearGradient>
		<path fill="url(#SVGID_2_)" stroke="url(#SVGID_3_)" stroke-miterlimit="10" d="M181.032,192.809
			c-1.608,0-2.911,1.303-2.911,2.911v7.715c0,1.608,1.303,2.911,2.911,2.911c1.608,0,2.911-1.303,2.911-2.911v-7.715
			C183.943,194.112,182.64,192.809,181.032,192.809z"/>
	</g>
</g>
<g>
	<g>
		<linearGradient id="SVGID_4_" gradientUnits="userSpaceOnUse" x1="178.1205" y1="220.3475" x2="183.943" y2="220.3475">
			<stop  offset="0.0056" style="stop-color:#EBC17D"/>
			<stop  offset="0.1854" style="stop-color:#DFB77C"/>
			<stop  offset="0.5955" style="stop-color:#C08329"/>
			<stop  offset="0.8708" style="stop-color:#EABE81"/>
			<stop  offset="1" style="stop-color:#EEDCC3"/>
		</linearGradient>
		<linearGradient id="SVGID_5_" gradientUnits="userSpaceOnUse" x1="177.6205" y1="220.3475" x2="184.443" y2="220.3475">
			<stop  offset="0.0056" style="stop-color:#EBC17D"/>
			<stop  offset="0.1854" style="stop-color:#DFB77C"/>
			<stop  offset="0.5955" style="stop-color:#C08329"/>
			<stop  offset="0.8708" style="stop-color:#EABE81"/>
			<stop  offset="1" style="stop-color:#EEDCC3"/>
		</linearGradient>
		<path fill="url(#SVGID_4_)" stroke="url(#SVGID_5_)" stroke-miterlimit="10" d="M181.032,213.579
			c-1.608,0-2.911,1.303-2.911,2.911v7.715c0,1.608,1.303,2.911,2.911,2.911c1.608,0,2.911-1.303,2.911-2.911v-7.715
			C183.943,214.883,182.64,213.579,181.032,213.579z"/>
	</g>
</g>
<g>
	<g>
		<linearGradient id="SVGID_6_" gradientUnits="userSpaceOnUse" x1="184.6479" y1="209.9623" x2="198.1851" y2="209.9623">
			<stop  offset="0.0056" style="stop-color:#EBC17D"/>
			<stop  offset="0.1854" style="stop-color:#DFB77C"/>
			<stop  offset="0.5955" style="stop-color:#C08329"/>
			<stop  offset="0.8708" style="stop-color:#EABE81"/>
			<stop  offset="1" style="stop-color:#EEDCC3"/>
		</linearGradient>
		<linearGradient id="SVGID_7_" gradientUnits="userSpaceOnUse" x1="184.1479" y1="209.9623" x2="198.6851" y2="209.9623">
			<stop  offset="0.0056" style="stop-color:#EBC17D"/>
			<stop  offset="0.1854" style="stop-color:#DFB77C"/>
			<stop  offset="0.5955" style="stop-color:#C08329"/>
			<stop  offset="0.8708" style="stop-color:#EABE81"/>
			<stop  offset="1" style="stop-color:#EEDCC3"/>
		</linearGradient>
		<path fill="url(#SVGID_6_)" stroke="url(#SVGID_7_)" stroke-miterlimit="10" d="M195.274,207.051h-7.715
			c-1.608,0-2.911,1.303-2.911,2.911s1.303,2.911,2.911,2.911h7.715c1.608,0,2.911-1.303,2.911-2.911
			C198.185,208.355,196.882,207.051,195.274,207.051z"/>
	</g>
</g>
<g>
	<g>
		<linearGradient id="SVGID_8_" gradientUnits="userSpaceOnUse" x1="163.878" y1="209.9623" x2="177.4152" y2="209.9623">
			<stop  offset="0.0056" style="stop-color:#EBC17D"/>
			<stop  offset="0.1854" style="stop-color:#DFB77C"/>
			<stop  offset="0.5955" style="stop-color:#C08329"/>
			<stop  offset="0.8708" style="stop-color:#EABE81"/>
			<stop  offset="1" style="stop-color:#EEDCC3"/>
		</linearGradient>
		<linearGradient id="SVGID_9_" gradientUnits="userSpaceOnUse" x1="163.378" y1="209.9623" x2="177.9152" y2="209.9623">
			<stop  offset="0.0056" style="stop-color:#EBC17D"/>
			<stop  offset="0.1854" style="stop-color:#DFB77C"/>
			<stop  offset="0.5955" style="stop-color:#C08329"/>
			<stop  offset="0.8708" style="stop-color:#EABE81"/>
			<stop  offset="1" style="stop-color:#EEDCC3"/>
		</linearGradient>
		<path fill="url(#SVGID_8_)" stroke="url(#SVGID_9_)" stroke-miterlimit="10" d="M174.504,207.051h-7.715
			c-1.608,0-2.911,1.303-2.911,2.911s1.303,2.911,2.911,2.911h7.715c1.608,0,2.911-1.303,2.911-2.911
			C177.415,208.355,176.112,207.051,174.504,207.051z"/>
	</g>
</g>
<g>
	<g>
		<linearGradient id="SVGID_10_" gradientUnits="userSpaceOnUse" x1="169.6616" y1="275.5771" x2="328.9147" y2="275.5771">
			<stop  offset="0.0056" style="stop-color:#EBC17D"/>
			<stop  offset="0.1854" style="stop-color:#DFB77C"/>
			<stop  offset="0.5955" style="stop-color:#C08329"/>
			<stop  offset="0.8708" style="stop-color:#EABE81"/>
			<stop  offset="1" style="stop-color:#EEDCC3"/>
		</linearGradient>
		<linearGradient id="SVGID_11_" gradientUnits="userSpaceOnUse" x1="169.1616" y1="275.5771" x2="329.4147" y2="275.5771">
			<stop  offset="0.0056" style="stop-color:#EBC17D"/>
			<stop  offset="0.1854" style="stop-color:#DFB77C"/>
			<stop  offset="0.5955" style="stop-color:#C08329"/>
			<stop  offset="0.8708" style="stop-color:#EABE81"/>
			<stop  offset="1" style="stop-color:#EEDCC3"/>
		</linearGradient>
		<path fill="url(#SVGID_10_)" stroke="url(#SVGID_11_)" stroke-miterlimit="10" d="M328.098,276.766l-19.791-20.518h0l-0.003-0.004
			c-0.002-0.002-0.005-0.004-0.007-0.006c-0.304-0.313-0.68-0.561-1.11-0.715l-17.108-6.102c-1.514-0.541-3.18,0.25-3.72,1.764
			c-0.54,1.514,0.25,3.18,1.764,3.72l9.419,3.36l-48.254,17.21l-48.254-17.21l9.693-3.457c1.514-0.54,2.304-2.206,1.764-3.72
			c-0.54-1.514-2.206-2.304-3.72-1.764l-17.381,6.199c-0.43,0.153-0.806,0.402-1.11,0.715c-0.002,0.002-0.005,0.004-0.007,0.006
			l-0.003,0.004h0l-19.791,20.518c-0.687,0.712-0.965,1.723-0.739,2.686c0.226,0.963,0.925,1.745,1.856,2.077l34.847,12.429
			c0.323,0.115,0.653,0.17,0.978,0.17c1.196,0,2.317-0.743,2.742-1.934c0.54-1.514-0.25-3.18-1.764-3.72l-30.598-10.913
			l15.359-15.923l50.901,18.154l-15.359,15.923l-9.875-3.522c-1.514-0.541-3.18,0.25-3.72,1.764c-0.54,1.514,0.25,3.18,1.764,3.72
			l11.645,4.153c1.078,0.385,2.28,0.102,3.073-0.721l17.7-18.35l17.7,18.35c0.558,0.579,1.319,0.89,2.096,0.89
			c0.328,0,0.658-0.055,0.977-0.17l56.92-20.301c0.931-0.332,1.63-1.115,1.856-2.077S328.785,277.478,328.098,276.766z
			 M269.875,295.715l-15.359-15.923l50.901-18.154l15.359,15.923L269.875,295.715z"/>
	</g>
</g>
<g>
	<g>
		<linearGradient id="SVGID_12_" gradientUnits="userSpaceOnUse" x1="189.4579" y1="327.4413" x2="282.7083" y2="327.4413">
			<stop  offset="0.0056" style="stop-color:#EBC17D"/>
			<stop  offset="0.1854" style="stop-color:#DFB77C"/>
			<stop  offset="0.5955" style="stop-color:#C08329"/>
			<stop  offset="0.8708" style="stop-color:#EABE81"/>
			<stop  offset="1" style="stop-color:#EEDCC3"/>
		</linearGradient>
		<linearGradient id="SVGID_13_" gradientUnits="userSpaceOnUse" x1="188.9579" y1="327.4413" x2="283.2083" y2="327.4413">
			<stop  offset="0.0056" style="stop-color:#EBC17D"/>
			<stop  offset="0.1854" style="stop-color:#DFB77C"/>
			<stop  offset="0.5955" style="stop-color:#C08329"/>
			<stop  offset="0.8708" style="stop-color:#EABE81"/>
			<stop  offset="1" style="stop-color:#EEDCC3"/>
		</linearGradient>
		<path fill="url(#SVGID_12_)" stroke="url(#SVGID_13_)" stroke-miterlimit="10" d="M282.538,346.614
			c-0.54-1.514-2.206-2.303-3.72-1.764l-29.529,10.532l-54.009-19.263v-39.71c0-1.608-1.303-2.911-2.911-2.911
			s-2.911,1.303-2.911,2.911v41.763c0,1.231,0.774,2.329,1.933,2.742l56.92,20.301c0.317,0.113,0.647,0.169,0.978,0.169
			c0.331,0,0.662-0.057,0.978-0.169l30.507-10.88C282.289,349.794,283.079,348.129,282.538,346.614z"/>
	</g>
</g>
<g>
	<g>
		<linearGradient id="SVGID_14_" gradientUnits="userSpaceOnUse" x1="288.0987" y1="320.0014" x2="309.1206" y2="320.0014">
			<stop  offset="0.0056" style="stop-color:#EBC17D"/>
			<stop  offset="0.1854" style="stop-color:#DFB77C"/>
			<stop  offset="0.5955" style="stop-color:#C08329"/>
			<stop  offset="0.8708" style="stop-color:#EABE81"/>
			<stop  offset="1" style="stop-color:#EEDCC3"/>
		</linearGradient>
		<linearGradient id="SVGID_15_" gradientUnits="userSpaceOnUse" x1="287.5987" y1="320.0014" x2="309.6206" y2="320.0014">
			<stop  offset="0.0056" style="stop-color:#EBC17D"/>
			<stop  offset="0.1854" style="stop-color:#DFB77C"/>
			<stop  offset="0.5955" style="stop-color:#C08329"/>
			<stop  offset="0.8708" style="stop-color:#EABE81"/>
			<stop  offset="1" style="stop-color:#EEDCC3"/>
		</linearGradient>
		<path fill="url(#SVGID_14_)" stroke="url(#SVGID_15_)" stroke-miterlimit="10" d="M306.209,293.498
			c-1.608,0-2.911,1.303-2.911,2.911v39.71l-13.266,4.731c-1.514,0.54-2.304,2.206-1.764,3.72c0.425,1.191,1.546,1.934,2.742,1.934
			c0.325,0,0.655-0.055,0.978-0.17l15.199-5.421c1.159-0.413,1.933-1.511,1.933-2.742v-41.763
			C309.121,294.802,307.817,293.498,306.209,293.498z"/>
	</g>
</g>
<g>
	<g>
		<linearGradient id="SVGID_16_" gradientUnits="userSpaceOnUse" x1="246.3778" y1="320.9983" x2="252.2003" y2="320.9983">
			<stop  offset="0.0056" style="stop-color:#EBC17D"/>
			<stop  offset="0.1854" style="stop-color:#DFB77C"/>
			<stop  offset="0.5955" style="stop-color:#C08329"/>
			<stop  offset="0.8708" style="stop-color:#EABE81"/>
			<stop  offset="1" style="stop-color:#EEDCC3"/>
		</linearGradient>
		<linearGradient id="SVGID_17_" gradientUnits="userSpaceOnUse" x1="245.8778" y1="320.9983" x2="252.7003" y2="320.9983">
			<stop  offset="0.0056" style="stop-color:#EBC17D"/>
			<stop  offset="0.1854" style="stop-color:#DFB77C"/>
			<stop  offset="0.5955" style="stop-color:#C08329"/>
			<stop  offset="0.8708" style="stop-color:#EABE81"/>
			<stop  offset="1" style="stop-color:#EEDCC3"/>
		</linearGradient>
		<path fill="url(#SVGID_16_)" stroke="url(#SVGID_17_)" stroke-miterlimit="10" d="M249.289,293.343
			c-1.608,0-2.911,1.303-2.911,2.911v49.488c0,1.608,1.303,2.911,2.911,2.911s2.911-1.303,2.911-2.911v-49.488
			C252.2,294.646,250.897,293.343,249.289,293.343z"/>
	</g>
</g>
<g>
	<g>
		<linearGradient id="SVGID_18_" gradientUnits="userSpaceOnUse" x1="266.5282" y1="202.7521" x2="315.9042" y2="202.7521">
			<stop  offset="0.0056" style="stop-color:#EBC17D"/>
			<stop  offset="0.1854" style="stop-color:#DFB77C"/>
			<stop  offset="0.5955" style="stop-color:#C08329"/>
			<stop  offset="0.8708" style="stop-color:#EABE81"/>
			<stop  offset="1" style="stop-color:#EEDCC3"/>
		</linearGradient>
		<linearGradient id="SVGID_19_" gradientUnits="userSpaceOnUse" x1="266.0282" y1="202.7521" x2="316.4042" y2="202.7521">
			<stop  offset="0.0056" style="stop-color:#EBC17D"/>
			<stop  offset="0.1854" style="stop-color:#DFB77C"/>
			<stop  offset="0.5955" style="stop-color:#C08329"/>
			<stop  offset="0.8708" style="stop-color:#EABE81"/>
			<stop  offset="1" style="stop-color:#EEDCC3"/>
		</linearGradient>
		<path fill="url(#SVGID_18_)" stroke="url(#SVGID_19_)" stroke-miterlimit="10" d="M311.617,197.509l-5.52-1.119
			c-4.302-0.873-7.646-4.216-8.518-8.518l-1.119-5.52c-0.512-2.524-2.668-4.287-5.244-4.287c-2.576,0-4.732,1.763-5.244,4.287
			l-1.119,5.519c-0.872,4.302-4.216,7.646-8.518,8.518l-5.52,1.119c-2.524,0.511-4.287,2.668-4.287,5.243
			c0,2.576,1.763,4.732,4.287,5.244l5.52,1.119c4.302,0.872,7.646,4.216,8.518,8.518l1.119,5.52
			c0.512,2.524,2.668,4.287,5.244,4.287s4.732-1.763,5.244-4.287l1.119-5.519c0.872-4.302,4.216-7.646,8.518-8.518l5.52-1.119
			c2.524-0.511,4.287-2.668,4.287-5.244C315.904,200.176,314.141,198.02,311.617,197.509z M304.94,203.408
			c-6.6,1.338-11.73,6.467-13.068,13.068l-0.656,3.237l-0.656-3.237c-1.338-6.601-6.467-11.73-13.068-13.068l-3.237-0.656
			l3.237-0.656c6.6-1.338,11.73-6.468,13.068-13.068l0.656-3.237l0.656,3.237c1.338,6.6,6.467,11.73,13.068,13.068l3.237,0.656
			L304.94,203.408z"/>
	</g>
</g>
<g>
	<g>
		<linearGradient id="SVGID_20_" gradientUnits="userSpaceOnUse" x1="196.3161" y1="195.337" x2="258.0294" y2="195.337">
			<stop  offset="0.0056" style="stop-color:#EBC17D"/>
			<stop  offset="0.1854" style="stop-color:#DFB77C"/>
			<stop  offset="0.5955" style="stop-color:#C08329"/>
			<stop  offset="0.8708" style="stop-color:#EABE81"/>
			<stop  offset="1" style="stop-color:#EEDCC3"/>
		</linearGradient>
		<linearGradient id="SVGID_21_" gradientUnits="userSpaceOnUse" x1="195.8161" y1="195.337" x2="258.5294" y2="195.337">
			<stop  offset="0.0056" style="stop-color:#EBC17D"/>
			<stop  offset="0.1854" style="stop-color:#DFB77C"/>
			<stop  offset="0.5955" style="stop-color:#C08329"/>
			<stop  offset="0.8708" style="stop-color:#EABE81"/>
			<stop  offset="1" style="stop-color:#EEDCC3"/>
		</linearGradient>
		<path fill="url(#SVGID_20_)" stroke="url(#SVGID_21_)" stroke-miterlimit="10" d="M253.189,189.417l-7.083-1.436
			c-5.847-1.185-10.391-5.729-11.576-11.576l-1.436-7.083c-0.578-2.851-3.013-4.841-5.921-4.841c-2.908,0-5.343,1.991-5.921,4.841
			l-1.436,7.083c-1.185,5.847-5.729,10.391-11.576,11.576l-7.083,1.436c-2.85,0.578-4.841,3.012-4.841,5.921
			s1.991,5.343,4.841,5.921l7.083,1.436c5.847,1.185,10.391,5.729,11.576,11.576l1.436,7.083c0.578,2.85,3.012,4.841,5.921,4.841
			c2.908,0,5.343-1.991,5.921-4.841l1.436-7.083c1.186-5.847,5.729-10.391,11.576-11.576l7.083-1.436
			c2.85-0.578,4.841-3.012,4.841-5.921C258.029,192.429,256.039,189.995,253.189,189.417z M252.031,195.551l-7.083,1.436
			c-8.145,1.651-14.474,7.981-16.125,16.125l-1.436,7.083c-0.026,0.128-0.035,0.175-0.214,0.175s-0.189-0.048-0.214-0.175
			l-1.436-7.083c-1.651-8.145-7.981-14.474-16.125-16.125l-7.083-1.436c-0.128-0.026-0.175-0.035-0.175-0.214
			s0.048-0.189,0.175-0.214l7.083-1.436c8.145-1.651,14.474-7.981,16.125-16.125l1.436-7.083c0.026-0.128,0.035-0.175,0.214-0.175
			s0.189,0.048,0.214,0.175l1.436,7.083c1.651,8.145,7.981,14.474,16.125,16.125l7.083,1.436c0.128,0.026,0.175,0.035,0.175,0.214
			S252.159,195.526,252.031,195.551z"/>
	</g>
</g>
<g>
	<g>
		<linearGradient id="SVGID_22_" gradientUnits="userSpaceOnUse" x1="198.4984" y1="240.0706" x2="229.3567" y2="240.0706">
			<stop  offset="0.0056" style="stop-color:#EBC17D"/>
			<stop  offset="0.1854" style="stop-color:#DFB77C"/>
			<stop  offset="0.5955" style="stop-color:#C08329"/>
			<stop  offset="0.8708" style="stop-color:#EABE81"/>
			<stop  offset="1" style="stop-color:#EEDCC3"/>
		</linearGradient>
		<linearGradient id="SVGID_23_" gradientUnits="userSpaceOnUse" x1="197.9984" y1="240.0706" x2="229.8567" y2="240.0706">
			<stop  offset="0.0056" style="stop-color:#EBC17D"/>
			<stop  offset="0.1854" style="stop-color:#DFB77C"/>
			<stop  offset="0.5955" style="stop-color:#C08329"/>
			<stop  offset="0.8708" style="stop-color:#EABE81"/>
			<stop  offset="1" style="stop-color:#EEDCC3"/>
		</linearGradient>
		<path fill="url(#SVGID_22_)" stroke="url(#SVGID_23_)" stroke-miterlimit="10" d="M229.142,256.732
			c-7.712-18.982-24.978-35.806-25.709-36.513c-1.156-1.117-2.998-1.086-4.116,0.07c-1.118,1.156-1.087,2.998,0.068,4.116
			c0.17,0.165,17.121,16.694,24.362,34.518c0.46,1.131,1.549,1.816,2.698,1.816c0.365,0,0.736-0.069,1.094-0.215
			C229.03,259.919,229.747,258.221,229.142,256.732z"/>
	</g>
</g>
<g>
	<g>
		<linearGradient id="SVGID_24_" gradientUnits="userSpaceOnUse" x1="236.7299" y1="236.8678" x2="242.5524" y2="236.8678">
			<stop  offset="0.0056" style="stop-color:#EBC17D"/>
			<stop  offset="0.1854" style="stop-color:#DFB77C"/>
			<stop  offset="0.5955" style="stop-color:#C08329"/>
			<stop  offset="0.8708" style="stop-color:#EABE81"/>
			<stop  offset="1" style="stop-color:#EEDCC3"/>
		</linearGradient>
		<linearGradient id="SVGID_25_" gradientUnits="userSpaceOnUse" x1="236.2299" y1="236.8678" x2="243.0524" y2="236.8678">
			<stop  offset="0.0056" style="stop-color:#EBC17D"/>
			<stop  offset="0.1854" style="stop-color:#DFB77C"/>
			<stop  offset="0.5955" style="stop-color:#C08329"/>
			<stop  offset="0.8708" style="stop-color:#EABE81"/>
			<stop  offset="1" style="stop-color:#EEDCC3"/>
		</linearGradient>
		<path fill="url(#SVGID_24_)" stroke="url(#SVGID_25_)" stroke-miterlimit="10" d="M239.641,220.566
			c-1.608,0-2.911,1.303-2.911,2.911v26.782c0,1.608,1.303,2.911,2.911,2.911s2.911-1.303,2.911-2.911v-26.782
			C242.552,221.869,241.249,220.566,239.641,220.566z"/>
	</g>
</g>
<g>
	<g>
		<linearGradient id="SVGID_26_" gradientUnits="userSpaceOnUse" x1="269.8849" y1="245.4553" x2="291.0639" y2="245.4553">
			<stop  offset="0.0056" style="stop-color:#EBC17D"/>
			<stop  offset="0.1854" style="stop-color:#DFB77C"/>
			<stop  offset="0.5955" style="stop-color:#C08329"/>
			<stop  offset="0.8708" style="stop-color:#EABE81"/>
			<stop  offset="1" style="stop-color:#EEDCC3"/>
		</linearGradient>
		<linearGradient id="SVGID_27_" gradientUnits="userSpaceOnUse" x1="269.3849" y1="245.4553" x2="291.5639" y2="245.4553">
			<stop  offset="0.0056" style="stop-color:#EBC17D"/>
			<stop  offset="0.1854" style="stop-color:#DFB77C"/>
			<stop  offset="0.5955" style="stop-color:#C08329"/>
			<stop  offset="0.8708" style="stop-color:#EABE81"/>
			<stop  offset="1" style="stop-color:#EEDCC3"/>
		</linearGradient>
		<path fill="url(#SVGID_26_)" stroke="url(#SVGID_27_)" stroke-miterlimit="10" d="M289.987,230.822
			c-1.249-1.013-3.082-0.822-4.095,0.427c-7.232,8.915-12.545,17.489-15.792,25.483c-0.605,1.49,0.112,3.188,1.601,3.793
			c0.359,0.145,0.73,0.215,1.095,0.215c1.15,0,2.239-0.685,2.698-1.816c3.775-9.293,10.197-18.184,14.92-24.006
			C291.426,233.669,291.235,231.835,289.987,230.822z"/>
	</g>
</g>
<g>
	<g>
		<linearGradient id="SVGID_28_" gradientUnits="userSpaceOnUse" x1="256.6884" y1="232.2098" x2="267.2" y2="232.2098">
			<stop  offset="0.0056" style="stop-color:#EBC17D"/>
			<stop  offset="0.1854" style="stop-color:#DFB77C"/>
			<stop  offset="0.5955" style="stop-color:#C08329"/>
			<stop  offset="0.8708" style="stop-color:#EABE81"/>
			<stop  offset="1" style="stop-color:#EEDCC3"/>
		</linearGradient>
		<linearGradient id="SVGID_29_" gradientUnits="userSpaceOnUse" x1="256.1884" y1="232.2098" x2="267.7" y2="232.2098">
			<stop  offset="0.0056" style="stop-color:#EBC17D"/>
			<stop  offset="0.1854" style="stop-color:#DFB77C"/>
			<stop  offset="0.5955" style="stop-color:#C08329"/>
			<stop  offset="0.8708" style="stop-color:#EABE81"/>
			<stop  offset="1" style="stop-color:#EEDCC3"/>
		</linearGradient>
		<path fill="url(#SVGID_28_)" stroke="url(#SVGID_29_)" stroke-miterlimit="10" d="M264.663,211.274
			c-1.595-0.208-3.055,0.918-3.262,2.512l-4.689,36.098c-0.207,1.594,0.918,3.055,2.512,3.262c0.127,0.016,0.253,0.025,0.378,0.025
			c1.441,0,2.693-1.07,2.883-2.537l4.689-36.098C267.383,212.942,266.258,211.481,264.663,211.274z"/>
	</g>
</g>
</svg>
