<?xml version="1.0" encoding="utf-8"?>
<!-- Generator: Adobe Illustrator 17.0.0, SVG Export Plug-In . SVG Version: 6.00 Build 0)  -->
<!DOCTYPE svg PUBLIC "-//W3C//DTD SVG 1.1//EN" "http://www.w3.org/Graphics/SVG/1.1/DTD/svg11.dtd">
<svg version="1.1" id="Layer_1" xmlns="http://www.w3.org/2000/svg" xmlns:xlink="http://www.w3.org/1999/xlink" x="0px" y="0px"
	 width="500px" height="500px" viewBox="0 0 500 500" enable-background="new 0 0 500 500" xml:space="preserve">
<linearGradient id="SVGID_1_" gradientUnits="userSpaceOnUse" x1="104.6496" y1="249.7183" x2="393.6357" y2="249.7183">
	<stop  offset="0.0056" style="stop-color:#EBC17D"/>
	<stop  offset="0.1854" style="stop-color:#DFB77C"/>
	<stop  offset="0.5955" style="stop-color:#C08329"/>
	<stop  offset="0.8708" style="stop-color:#EABE81"/>
	<stop  offset="1" style="stop-color:#EEDCC3"/>
</linearGradient>
<path fill="#FFFFFF" stroke="url(#SVGID_1_)" stroke-width="10" stroke-miterlimit="10" d="M388.636,377.622
	c0,6.627-4.851,12-10.835,12H120.485c-5.984,0-10.835-5.373-10.835-12V121.814c0-6.627,4.851-12,10.835-12h257.316
	c5.984,0,10.835,5.373,10.835,12V377.622z"/>
<linearGradient id="SVGID_2_" gradientUnits="userSpaceOnUse" x1="163.3183" y1="244.5038" x2="327.6451" y2="244.5038">
	<stop  offset="0.0056" style="stop-color:#EBC17D"/>
	<stop  offset="0.1854" style="stop-color:#DFB77C"/>
	<stop  offset="0.5955" style="stop-color:#C08329"/>
	<stop  offset="0.8708" style="stop-color:#EABE81"/>
	<stop  offset="1" style="stop-color:#EEDCC3"/>
</linearGradient>
<path fill="url(#SVGID_2_)" d="M314.354,167.803c-0.327-1.063-1.169-1.888-2.238-2.193l-36.954-10.561l-3.735-7.469
	c-0.558-1.111-1.696-1.811-2.939-1.808v-0.008h-46.012v0.009c-1.244-0.006-2.383,0.695-2.939,1.808l-3.735,7.468l-36.955,10.561
	c-1.069,0.305-1.911,1.131-2.238,2.193c-0.137,0.447-3.404,11.218-6.689,35.444c-5.456,40.25-6.602,85.678-6.602,116.703
	c0,1.815,1.471,3.287,3.287,3.287h20.089l-0.347,2.895c-0.133,1.106,0.304,2.204,1.159,2.917
	c20.558,17.131,50.501,14.029,51.763,13.888c1.274-0.142,2.35-1.011,2.755-2.227l3.458-10.365l3.455,10.366
	c0.405,1.216,1.481,2.085,2.755,2.227c2.279,0.22,4.567,0.322,6.856,0.306c10.293,0,30.053-1.813,44.909-14.193
	c0.856-0.713,1.292-1.811,1.159-2.917l-0.346-2.895h20.089c1.815,0,3.287-1.471,3.287-3.287c0-31.025-1.145-76.453-6.603-116.703
	C317.758,179.021,314.491,168.249,314.354,167.803z M269.35,158.124l10.799,21.597l-9.172,2.293
	c-1.761,0.44-2.832,2.224-2.392,3.985c0.091,0.366,0.245,0.713,0.454,1.027l5.357,8.036l-26.701,40.051L269.35,158.124z
	 M262.301,158.91h-33.638l-1.849-6.573h37.335L262.301,158.91z M260.452,165.483l-14.97,53.226l-14.97-53.226H260.452z
	 M221.613,158.124l20.455,72.725l-0.488,1.736l-25.013-37.522l5.357-8.036c1.007-1.51,0.599-3.551-0.911-4.558
	c-0.314-0.209-0.661-0.363-1.027-0.454l-9.171-2.293L221.613,158.124z M169.895,316.664c0.181-72.112,6.286-114.618,10.065-134.074
	l16.173,61.997l-8.65,72.077H169.895z M197.259,290.371h18.644v6.573h-19.432L197.259,290.371z M236.485,336.547
	c-6.655,0.333-27.989,0.352-43.393-11.448l0.571-4.757l2.02-16.825h23.508c1.815,0,3.287-1.471,3.287-3.287v-13.146
	c0-1.815-1.471-3.287-3.287-3.287h-21.141l4.685-39.047c0.049-0.409,0.021-0.823-0.082-1.221l-18.91-72.483l28.072-8.022
	l-8.709,17.419c-0.812,1.623-0.154,3.598,1.47,4.409c0.214,0.107,0.44,0.191,0.673,0.249l8.622,2.156l-3.985,5.979
	c-0.736,1.104-0.736,2.542,0,3.646l29.353,44.034l-3.492,12.412c-0.082,0.29-0.123,0.589-0.123,0.89l0,0v49.298
	c0,0.418,0.08,0.832,0.235,1.221l6.126,15.314L236.485,336.547z M254.479,336.547l-5.879-17.636
	c-0.021-0.062-0.051-0.117-0.075-0.177l0.009-0.004l-6.338-15.845v-47.67l20.383-30.574h22.342c1.815,0,3.287-1.471,3.287-3.287
	c0-1.815-1.471-3.287-3.287-3.287H266.96l14.122-21.183c0.736-1.104,0.736-2.542,0-3.646l-3.985-5.979l8.622-2.156
	c1.761-0.44,2.832-2.225,2.391-3.986c-0.058-0.233-0.142-0.458-0.249-0.673l-8.709-17.419l28.072,8.022l-18.911,72.481
	c-0.104,0.398-0.131,0.813-0.082,1.221l4.685,39.047h-21.141c-1.815,0-3.287,1.471-3.287,3.287v13.146
	c0,1.815,1.471,3.287,3.287,3.287h23.508l2.019,16.824l0.571,4.757C282.466,336.9,261.127,336.879,254.479,336.547z
	 M294.492,296.944h-19.432v-6.573h18.644L294.492,296.944z M303.479,316.664l-8.649-72.077l16.178-62.017
	c3.777,19.413,9.879,61.852,10.059,134.094H303.479z"/>
</svg>
