<?xml version="1.0" encoding="utf-8"?>
<!-- Generator: Adobe Illustrator 17.0.0, SVG Export Plug-In . SVG Version: 6.00 Build 0)  -->
<!DOCTYPE svg PUBLIC "-//W3C//DTD SVG 1.1//EN" "http://www.w3.org/Graphics/SVG/1.1/DTD/svg11.dtd">
<svg version="1.1" id="Layer_1" xmlns="http://www.w3.org/2000/svg" xmlns:xlink="http://www.w3.org/1999/xlink" x="0px" y="0px"
	 width="500px" height="500px" viewBox="0 0 500 500" enable-background="new 0 0 500 500" xml:space="preserve">
<linearGradient id="SVGID_1_" gradientUnits="userSpaceOnUse" x1="104.6496" y1="249.7183" x2="393.6357" y2="249.7183">
	<stop  offset="0.0056" style="stop-color:#EBC17D"/>
	<stop  offset="0.1854" style="stop-color:#DFB77C"/>
	<stop  offset="0.5955" style="stop-color:#C08329"/>
	<stop  offset="0.8708" style="stop-color:#EABE81"/>
	<stop  offset="1" style="stop-color:#EEDCC3"/>
</linearGradient>
<path fill="#FFFFFF" stroke="url(#SVGID_1_)" stroke-width="10" stroke-miterlimit="10" d="M388.636,377.622
	c0,6.627-4.851,12-10.835,12H120.485c-5.984,0-10.835-5.373-10.835-12V121.814c0-6.627,4.851-12,10.835-12h257.316
	c5.984,0,10.835,5.373,10.835,12V377.622z"/>
<g>
	<path fill="none" stroke="#FFFFFF" stroke-width="0.7636" stroke-miterlimit="10" d="M238.437,325.134
		c-10.822-5.08-39.975-4.786-52.192-36.855c-2.238-5.875-3.322-33.129,7.697-48.104c5.408-7.351,14.656-23.976,14.616-30.2
		c3.488,15.94,21.129,29.263,9.728,45.696c2.727-0.685,17.873-20.196,19.881-31.149c1.603-8.744,5.003-34.247,6.162-42.854
		c0.684-5.081,1.743-10,3.354-15.022c2.173-6.774,5.588-19.778,13.323-21.2c-5.737,8.666-3.073,41.526,4.649,48.152
		c35.294,30.287,14.874,57.268,12.476,62.894c7.614-0.991,15.012-2.572,18.448-16.316c4.078-16.314-4.695-22.55-8.968-27.636
		c8.211,7.655,15.398,13.58,23.222,24.78c35.406,50.688-19.966,84.01-44.107,92.116c-2.854,0.959-6.134,2.005-9.207,2.461
		c2.412-4.722,17.31-21.928,19.728-27.06c4.195-8.9,4.843-19.971-0.524-28.506c-4.738-7.535-14.332-11.591-17.567-19.859
		c-3.296-8.424-2.697-20.065-1.345-28.797c-8.494,8.578-10.298,14.796-21.553,33.117c-10.61,17.272,3.673,30.306,6.229,33.24
		c-12.49-4.392-21.38-15.416-15.914-29.353c-1.735,12.433-10.797,27.274-1.938,38.693c5.106,6.581,16.04,14.385,16.241,22.984
		c-1.431-0.224-2.932-1.255-4.122-2.062"/>
	<linearGradient id="SVGID_2_" gradientUnits="userSpaceOnUse" x1="183.6591" y1="238.6703" x2="321.2129" y2="238.6703">
		<stop  offset="0.0056" style="stop-color:#EBC17D"/>
		<stop  offset="0.1854" style="stop-color:#DFB77C"/>
		<stop  offset="0.5955" style="stop-color:#C08329"/>
		<stop  offset="0.8708" style="stop-color:#EABE81"/>
		<stop  offset="1" style="stop-color:#EEDCC3"/>
	</linearGradient>
	<path fill="url(#SVGID_2_)" d="M237.309,325.134c-10.822-5.08-39.975-4.786-52.192-36.855c-2.238-5.875-3.322-33.129,7.697-48.104
		c5.408-7.351,14.656-23.976,14.616-30.2c3.488,15.94,21.129,29.263,9.728,45.696c2.727-0.685,17.873-20.196,19.881-31.149
		c1.603-8.744,5.003-34.247,6.162-42.854c0.684-5.081,1.743-10,3.354-15.022c2.173-6.774,5.588-19.778,13.323-21.2
		c-5.737,8.666-3.073,41.526,4.649,48.152c35.294,30.287,14.874,57.268,12.476,62.894c7.614-0.991,15.012-2.572,18.448-16.316
		c4.078-16.314-4.695-22.55-8.968-27.636c8.211,7.655,15.398,13.58,23.222,24.78c35.406,50.688-19.966,84.01-44.107,92.116
		c-2.854,0.959-6.134,2.005-9.207,2.461c2.412-4.722,17.31-21.928,19.728-27.06c4.195-8.9,4.843-19.971-0.524-28.506
		c-4.738-7.535-14.332-11.591-17.567-19.859c-3.296-8.424-2.697-20.065-1.345-28.797c-8.494,8.578-10.298,14.796-21.553,33.117
		c-10.61,17.272,3.673,30.306,6.229,33.24c-12.49-4.392-21.38-15.416-15.914-29.353c-1.735,12.433-10.797,27.274-1.938,38.693
		c5.106,6.581,16.04,14.385,16.241,22.984c-1.431-0.224-2.932-1.255-4.122-2.062"/>
</g>
</svg>
