<?xml version="1.0" encoding="utf-8"?>
<!-- Generator: Adobe Illustrator 17.0.0, SVG Export Plug-In . SVG Version: 6.00 Build 0)  -->
<!DOCTYPE svg PUBLIC "-//W3C//DTD SVG 1.1//EN" "http://www.w3.org/Graphics/SVG/1.1/DTD/svg11.dtd">
<svg version="1.1" id="Layer_1" xmlns="http://www.w3.org/2000/svg" xmlns:xlink="http://www.w3.org/1999/xlink" x="0px" y="0px"
	 width="500px" height="500px" viewBox="0 0 500 500" enable-background="new 0 0 500 500" xml:space="preserve">
<linearGradient id="SVGID_1_" gradientUnits="userSpaceOnUse" x1="104.6496" y1="249.7183" x2="393.6357" y2="249.7183">
	<stop  offset="0.0056" style="stop-color:#EBC17D"/>
	<stop  offset="0.1854" style="stop-color:#DFB77C"/>
	<stop  offset="0.5955" style="stop-color:#C08329"/>
	<stop  offset="0.8708" style="stop-color:#EABE81"/>
	<stop  offset="1" style="stop-color:#EEDCC3"/>
</linearGradient>
<path fill="#FFFFFF" stroke="url(#SVGID_1_)" stroke-width="10" stroke-miterlimit="10" d="M388.636,377.622
	c0,6.627-4.851,12-10.835,12H120.485c-5.984,0-10.835-5.373-10.835-12V121.814c0-6.627,4.851-12,10.835-12h257.316
	c5.984,0,10.835,5.373,10.835,12V377.622z"/>
<g>
	<linearGradient id="SVGID_2_" gradientUnits="userSpaceOnUse" x1="177.7965" y1="255" x2="303.4752" y2="255">
		<stop  offset="0.0056" style="stop-color:#EBC17D"/>
		<stop  offset="0.1854" style="stop-color:#DFB77C"/>
		<stop  offset="0.5955" style="stop-color:#C08329"/>
		<stop  offset="0.8708" style="stop-color:#EABE81"/>
		<stop  offset="1" style="stop-color:#EEDCC3"/>
	</linearGradient>
	<linearGradient id="SVGID_3_" gradientUnits="userSpaceOnUse" x1="176.2965" y1="255" x2="304.9752" y2="255">
		<stop  offset="0.0056" style="stop-color:#EBC17D"/>
		<stop  offset="0.1854" style="stop-color:#DFB77C"/>
		<stop  offset="0.5955" style="stop-color:#C08329"/>
		<stop  offset="0.8708" style="stop-color:#EABE81"/>
		<stop  offset="1" style="stop-color:#EEDCC3"/>
	</linearGradient>
	<path fill="url(#SVGID_2_)" stroke="url(#SVGID_3_)" stroke-width="3" stroke-miterlimit="10" d="M299.283,235.822
		c-0.013,2.933,1.482,12.171,2.511,13.771c3.171,4.933,1.395,9.296-1.522,13.387c-1.523,2.137-2.032,3.95-1.424,6.661
		c1.579,7.041-0.364,12.765-7.244,16.333c-1.228,0.637-2.298,2.479-2.561,3.924c-1.445,7.935-5.887,12.466-13.966,13.623
		c-1.356,0.194-2.904,1.577-3.686,2.833c-3.86,6.195-8.592,8.576-15.95,6.942c-2.659-0.59-4.421-0.153-6.669,1.251
		c-6.719,4.197-8.704,4.997-16.71-0.145c-2.164-1.39-3.72-1.986-6.519-1.13c-6.371,1.948-11.535-0.392-15.234-6.175
		c-1.523-2.382-3.264-3.489-6.143-4.006c-6.962-1.25-10.906-5.906-12.073-12.801c-0.326-1.927-0.555-3.536-2.609-4.497
		c-6.286-2.939-8.352-8.233-7.148-14.687c0.672-3.602,0.019-6.354-2.159-9.24c-2.94-3.894-3.136-8.288-0.707-12.591
		c1.523-2.697,1.485-5.103-0.051-7.867c-2.111-3.799-1.887-3.868,1.57-7.342c0.739-0.743,1.088-1.864,1.668-2.778
		c0.985-1.554,1.66-3.754,3.085-4.499c4.498-2.351,6.319-6.085,7.556-10.738c1.548-5.823,6.176-8.694,11.841-9.459
		c2.407-0.325,3.789-1.353,4.772-3.199c3.197-5.999,8.403-7.583,14.628-6.566c3.063,0.5,5.418,0.334,8.168-1.767
		c5.582-4.264,10.513-3.982,16.379,0.454c1.829,1.383,3.347,2.049,5.512,1.606c7.417-1.52,13.625-0.342,17.221,7.358
		c0.472,1.011,2.359,1.706,3.689,1.915c7.003,1.103,11.637,4.933,13.001,11.855c0.647,3.285,2.129,5.227,4.832,6.923
		C297.346,227.683,299.721,231.314,299.283,235.822z M251.377,308.456c1.391,0.517,2.938,1.083,4.478,1.666
		c5.268,1.993,11.126-0.678,13.118-5.987c1.602-4.27,1.602-4.27,6.243-4.432c6.573-0.229,10.375-3.896,10.137-10.541
		c-0.125-3.487,1.004-4.869,4.287-5.893c5.904-1.841,8.121-8.042,5.547-13.893c-0.575-1.308-0.876-2.736-1.239-3.902
		c7.842-8.698,7.836-11.85,0.105-21.251c0.249-0.952,0.405-2.076,0.83-3.086c2.883-6.846,1.063-11.585-5.672-14.714
		c-1.317-0.612-2.564-1.378-3.712-2.002c-0.076-0.906-0.169-1.458-0.162-2.009c0.115-8.988-2.359-11.761-11.316-11.978
		c-3.068-0.074-4.134-1.57-4.992-4.13c-1.822-5.441-8.283-9.59-14.792-5.664c-0.909,0.548-2.041,0.727-3.053,1.072
		c-0.559-0.485-1.014-0.796-1.366-1.198c-5.867-6.719-12.452-6.675-18.09-0.405c-1.918,2.133-3.306,1.337-5.297,0.32
		c-5.59-2.857-11.035-0.825-13.872,4.89c-0.888,1.789-1.897,3.517-2.724,5.04c-4.452,0.055-8.291-0.518-11.57,2.733
		c-3.444,3.415-1.76,7.749-2.752,11.622c-4.174,1.985-8.943,3.218-10.103,9.025c4.643,1.151,9.015,1.817,13.046-1.638
		c1.108-0.95,2.416-1.71,3.724-2.377c10.235-5.218,21.177-5.576,32.171-3.937c4.848,0.723,9.914,1.927,13.872,5.233
		c3.516,2.938,7.376,4,11.844,3.545c1.847-0.188,3.733,0.049,5.595-0.041c2.571-0.124,4.241,0.955,5.06,3.301
		c-2.302,7.981-7.962,10.778-15.317,10.09c-3.46,8.507-6.372,16.685-10.079,24.485c-3.488,7.34-7.583,14.411-15.24,18.537
		c-3.975,2.142-7.693,2.172-11.602,0.104c-7.458-3.946-11.646-10.814-15.1-17.944c-3.919-8.091-6.923-16.625-10.464-25.308
		c-1.497,0-3.159,0.022-4.819-0.004c-4.66-0.074-7.907,3.373-7.08,8.051c0.372,2.106,1.554,4.162,2.742,5.999
		c0.87,1.345,2.35,2.296,3.743,3.595c-0.572,1.326-1.025,2.496-1.57,3.622c-2.604,5.374-0.64,12.165,4.876,13.939
		c4.337,1.395,5.171,3.672,5.151,7.729c-0.027,5.432,3.752,8.733,9.298,8.965c1.471,0.062,2.946,0.009,4.453,0.009
		c2.795,3.272,3.393,7.762,7.606,10.134c4.892,2.755,8.558-0.901,12.645-1.253C237.548,315.847,242.512,316.647,251.377,308.456z
		 M222.935,227.138c-5.87,1.556-12.829,2.865-19.377,5.285c-6.711,2.48-9.241,8.553-6.857,15.484
		c2.699,7.85,5.684,15.634,9.104,23.193c2.669,5.898,6.102,11.527,11.434,15.52c3.25,2.434,6.461,4.493,11.078,1.914
		c4.269-2.384,7.263-5.722,9.791-9.561c6.562-9.963,10.732-21.015,13.857-32.452c1.679-6.145-0.051-9.608-5.537-13.142
		C239.581,228.97,231.664,228.95,222.935,227.138z M266.404,238.976c-1.343-0.236-2.228-0.483-3.124-0.528
		c-1.487-0.076-2.985-0.098-4.47-0.004c-1.94,0.122-3.906,0.426-3.647,3.092c0.168,1.731,2.786,3.729,4.542,3.245
		C262.507,244.007,265.423,243.13,266.404,238.976z M182.296,239.273c0.518,4.173,3.7,4.554,6.176,5.466
		c2.025,0.746,4.047-1.084,4.154-3.34c0.101-2.148-1.137-3.093-3.14-2.947C187.171,238.621,184.7,237.67,182.296,239.273z"/>
	<linearGradient id="SVGID_4_" gradientUnits="userSpaceOnUse" x1="211.0986" y1="250.3036" x2="214.4218" y2="250.3036">
		<stop  offset="0.0056" style="stop-color:#EBC17D"/>
		<stop  offset="0.1854" style="stop-color:#DFB77C"/>
		<stop  offset="0.5955" style="stop-color:#C08329"/>
		<stop  offset="0.8708" style="stop-color:#EABE81"/>
		<stop  offset="1" style="stop-color:#EEDCC3"/>
	</linearGradient>
	<linearGradient id="SVGID_5_" gradientUnits="userSpaceOnUse" x1="209.5986" y1="250.373" x2="215.9218" y2="250.373">
		<stop  offset="0.0056" style="stop-color:#EBC17D"/>
		<stop  offset="0.1854" style="stop-color:#DFB77C"/>
		<stop  offset="0.5955" style="stop-color:#C08329"/>
		<stop  offset="0.8708" style="stop-color:#EABE81"/>
		<stop  offset="1" style="stop-color:#EEDCC3"/>
	</linearGradient>
	<path fill="url(#SVGID_4_)" stroke="url(#SVGID_5_)" stroke-width="3" stroke-miterlimit="10" d="M214.422,254.224
		c-4.229-0.375-3.122-3.096-3.297-5.035c-0.18-1.989,0.546-3.226,3.297-2.674C214.422,248.9,214.422,251.324,214.422,254.224z"/>
	<linearGradient id="SVGID_6_" gradientUnits="userSpaceOnUse" x1="234.532" y1="250.2334" x2="236.7397" y2="250.2334">
		<stop  offset="0.0056" style="stop-color:#EBC17D"/>
		<stop  offset="0.1854" style="stop-color:#DFB77C"/>
		<stop  offset="0.5955" style="stop-color:#C08329"/>
		<stop  offset="0.8708" style="stop-color:#EABE81"/>
		<stop  offset="1" style="stop-color:#EEDCC3"/>
	</linearGradient>
	<linearGradient id="SVGID_7_" gradientUnits="userSpaceOnUse" x1="233.032" y1="249.2511" x2="238.2397" y2="249.2511">
		<stop  offset="0.0056" style="stop-color:#EBC17D"/>
		<stop  offset="0.1854" style="stop-color:#DFB77C"/>
		<stop  offset="0.5955" style="stop-color:#C08329"/>
		<stop  offset="0.8708" style="stop-color:#EABE81"/>
		<stop  offset="1" style="stop-color:#EEDCC3"/>
	</linearGradient>
	<path fill="url(#SVGID_6_)" stroke="url(#SVGID_7_)" stroke-width="3" stroke-miterlimit="10" d="M234.532,246.219
		c2.956,2.786,2.435,5.417,1.355,8.029c-0.452-0.005-0.903-0.009-1.355-0.014C234.532,251.562,234.532,248.891,234.532,246.219z"/>
</g>
</svg>
