<?xml version="1.0" encoding="utf-8"?>
<!-- Generator: Adobe Illustrator 17.0.0, SVG Export Plug-In . SVG Version: 6.00 Build 0)  -->
<!DOCTYPE svg PUBLIC "-//W3C//DTD SVG 1.1//EN" "http://www.w3.org/Graphics/SVG/1.1/DTD/svg11.dtd">
<svg version="1.1" id="Layer_1" xmlns="http://www.w3.org/2000/svg" xmlns:xlink="http://www.w3.org/1999/xlink" x="0px" y="0px"
	 width="500px" height="500px" viewBox="0 0 500 500" enable-background="new 0 0 500 500" xml:space="preserve">
<linearGradient id="SVGID_1_" gradientUnits="userSpaceOnUse" x1="173.6854" y1="209.3266" x2="334.7978" y2="209.3266">
	<stop  offset="0.0056" style="stop-color:#EABF7C"/>
	<stop  offset="0.1854" style="stop-color:#DEB67C"/>
	<stop  offset="0.5955" style="stop-color:#BE822B"/>
	<stop  offset="0.8708" style="stop-color:#E9BD80"/>
	<stop  offset="1" style="stop-color:#EDDBC3"/>
</linearGradient>
<path fill="url(#SVGID_1_)" d="M334.004,180.574l-4.188-5.824c-0.128-6.614-2.25-13.594-6.734-19.809
	c-3.765-5.233-8.551-9.135-13.682-11.576c-2.911-2.019-7.443-3.542-12.693-3.917c-0.185-0.01-2.619-0.021-6.54-0.032v2.871
	c0,11.155-5.484,21.597-14.668,27.929c-4.192,2.89-9.641,3.217-14.149,0.85c-3.47-1.823-5.936-5.014-6.89-8.708
	c-0.079-0.304-0.147-0.612-0.205-0.923c13.643-0.132,24.193-11.591,24.193-21.462h-10.104c0,4.488-6.418,11.364-14.326,11.364
	h-0.001c-7.909,0-14.327-6.877-14.327-11.364h-10.104c0,9.928,10.672,21.468,24.43,21.468c0.071,0,0.14-0.005,0.212-0.005
	c-0.058,0.311-0.126,0.618-0.204,0.923c-0.954,3.694-3.42,6.885-6.89,8.708c-4.508,2.368-9.957,2.04-14.149-0.85
	c-9.182-6.331-14.667-16.774-14.667-27.929v-2.874c-3.887,0.011-6.314,0.025-6.546,0.035c-5.249,0.375-9.781,1.899-12.693,3.917
	c-5.129,2.441-9.916,6.343-13.682,11.576c-4.475,6.215-6.606,13.195-6.734,19.809l-4.18,5.824c-0.654,0.894-0.926,2.019-0.742,3.119
	c0.183,1.109,0.79,2.082,1.691,2.737l25.203,18.126c1.875,1.363,4.499,0.941,5.856-0.942l3.821-5.322
	c6.372,15.919,1.734,50.264-3.83,71.648c-0.579,2.227-0.094,4.596,1.314,6.416c1.408,1.82,3.579,2.885,5.881,2.885h81.152
	c2.3,0,4.469-1.066,5.876-2.884c1.407-1.819,1.896-4.189,1.318-6.415c-5.558-21.382-10.199-55.72-3.841-71.625l3.813,5.297
	c1.356,1.883,3.973,2.305,5.847,0.942l25.21-18.126c0.902-0.654,1.508-1.627,1.692-2.737
	C334.921,182.592,334.657,181.468,334.004,180.574z M254.019,230.609c-2.443,0-4.421-1.979-4.421-4.424
	c0-2.44,1.979-4.419,4.421-4.419c2.44,0,4.419,1.979,4.419,4.419C258.438,228.63,256.459,230.609,254.019,230.609z M254.019,209.39
	c-2.443,0-4.421-1.979-4.421-4.424c0-2.44,1.979-4.419,4.421-4.419c2.44,0,4.419,1.979,4.419,4.419
	C258.438,207.411,256.459,209.39,254.019,209.39z M254.019,188.171c-2.443,0-4.421-1.979-4.421-4.424
	c0-2.44,1.979-4.419,4.421-4.419c2.44,0,4.419,1.979,4.419,4.419C258.438,186.192,256.459,188.171,254.019,188.171z"/>
<linearGradient id="SVGID_2_" gradientUnits="userSpaceOnUse" x1="71.5882" y1="218.2157" x2="428.6471" y2="218.2157">
	<stop  offset="0.0056" style="stop-color:#EABF7C"/>
	<stop  offset="0.1854" style="stop-color:#DEB67C"/>
	<stop  offset="0.5955" style="stop-color:#BE822B"/>
	<stop  offset="0.8708" style="stop-color:#E9BD80"/>
	<stop  offset="1" style="stop-color:#EDDBC3"/>
</linearGradient>
<path fill="none" stroke="url(#SVGID_2_)" stroke-width="10" stroke-miterlimit="10" d="M423.647,365.039c0,6.627-5.373,12-12,12
	H88.588c-6.627,0-12-5.373-12-12V71.392c0-6.627,5.373-12,12-12h323.059c6.627,0,12,5.373,12,12V365.039z"/>
</svg>
