<?xml version="1.0" encoding="utf-8"?>
<!-- Generator: Adobe Illustrator 17.0.0, SVG Export Plug-In . SVG Version: 6.00 Build 0)  -->
<!DOCTYPE svg PUBLIC "-//W3C//DTD SVG 1.1//EN" "http://www.w3.org/Graphics/SVG/1.1/DTD/svg11.dtd">
<svg version="1.1" id="Layer_1" xmlns="http://www.w3.org/2000/svg" xmlns:xlink="http://www.w3.org/1999/xlink" x="0px" y="0px"
	 width="500px" height="500px" viewBox="0 0 500 500" enable-background="new 0 0 500 500" xml:space="preserve">
<g>
	<linearGradient id="SVGID_1_" gradientUnits="userSpaceOnUse" x1="164.5499" y1="211.3363" x2="329.6506" y2="211.3363">
		<stop  offset="0.0056" style="stop-color:#EABF7C"/>
		<stop  offset="0.1854" style="stop-color:#DEB67C"/>
		<stop  offset="0.5955" style="stop-color:#BE822B"/>
		<stop  offset="0.8708" style="stop-color:#E9BD80"/>
		<stop  offset="1" style="stop-color:#EDDBC3"/>
	</linearGradient>
	<path fill="url(#SVGID_1_)" d="M329.19,270.984l-14.051-37.35c-1.174-3.12-2.36-8.567-2.59-11.894l-3.712-53.678
		c-0.27-3.907-3.013-8.701-6.246-10.913l-17.771-12.163c-1.464-1.002-3.352-1.554-5.314-1.554c-2.39,0-4.695,0.812-6.323,2.228
		l-3.7,3.218c-2.799,2.434-5.944,7.304-7.013,10.856l-15.15,50.386c-0.075,0.25-0.149,0.514-0.222,0.786
		c-0.073-0.272-0.146-0.537-0.222-0.786l-15.15-50.386c-1.069-3.552-4.214-8.422-7.013-10.856l-3.7-3.218
		c-1.627-1.416-3.933-2.228-6.323-2.228c-1.962,0-3.849,0.552-5.314,1.554l-17.771,12.163c-3.232,2.212-5.976,7.005-6.246,10.913
		l-3.712,53.678c-0.231,3.327-1.416,8.773-2.59,11.894l-14.051,37.35c-0.738,1.96-0.584,3.949,0.422,5.459
		c1.005,1.509,2.782,2.419,4.874,2.494l8.241,0.298c0.097,0.003,0.194,0.005,0.292,0.005c3.99,0,8.125-2.927,9.413-6.664
		l13.093-37.987c1.176-3.411,2.224-9.121,2.336-12.73l0.662-21.3l2.909,23.46c0.406,3.265-0.038,8.69-0.967,11.847l-8.212,27.901
		c-0.595,2.023-0.311,3.974,0.799,5.495c1.11,1.521,2.882,2.386,4.99,2.435l20.673,0.483l0.208,0.002
		c3.919,0,8.598-2.571,10.652-5.852l9.837-15.715c0.686-1.097,1.325-2.493,1.87-3.999c0.544,1.506,1.183,2.902,1.87,4l9.837,15.715
		c2.055,3.282,6.733,5.852,10.652,5.852l20.881-0.485c2.107-0.049,3.88-0.914,4.99-2.435s1.394-3.472,0.799-5.495l-8.212-27.901
		c-0.929-3.156-1.373-8.582-0.967-11.847l2.909-23.46l0.662,21.3c0.113,3.608,1.16,9.319,2.336,12.729l13.093,37.987
		c1.288,3.737,5.422,6.664,9.413,6.664c0.001,0,0.001,0,0.002,0c0.098,0,0.194-0.002,0.291-0.005l8.239-0.298
		c2.093-0.076,3.869-0.985,4.874-2.494C329.774,274.933,329.927,272.944,329.19,270.984z M246.724,231.21
		c-3.254,0-5.892-2.638-5.892-5.892s2.638-5.892,5.892-5.892s5.892,2.638,5.892,5.892S249.978,231.21,246.724,231.21z"/>
</g>
<linearGradient id="SVGID_2_" gradientUnits="userSpaceOnUse" x1="71.5882" y1="218.2157" x2="428.6471" y2="218.2157">
	<stop  offset="0.0056" style="stop-color:#EABF7C"/>
	<stop  offset="0.1854" style="stop-color:#DEB67C"/>
	<stop  offset="0.5955" style="stop-color:#BE822B"/>
	<stop  offset="0.8708" style="stop-color:#E9BD80"/>
	<stop  offset="1" style="stop-color:#EDDBC3"/>
</linearGradient>
<path fill="none" stroke="url(#SVGID_2_)" stroke-width="10" stroke-miterlimit="10" d="M423.647,365.039c0,6.627-5.373,12-12,12
	H88.588c-6.627,0-12-5.373-12-12V71.392c0-6.627,5.373-12,12-12h323.059c6.627,0,12,5.373,12,12V365.039z"/>
</svg>
