<?xml version="1.0" encoding="utf-8"?>
<!-- Generator: Adobe Illustrator 17.0.0, SVG Export Plug-In . SVG Version: 6.00 Build 0)  -->
<!DOCTYPE svg PUBLIC "-//W3C//DTD SVG 1.1//EN" "http://www.w3.org/Graphics/SVG/1.1/DTD/svg11.dtd">
<svg version="1.1" id="Layer_1" xmlns="http://www.w3.org/2000/svg" xmlns:xlink="http://www.w3.org/1999/xlink" x="0px" y="0px"
	 width="500px" height="500px" viewBox="0 0 500 500" enable-background="new 0 0 500 500" xml:space="preserve">
<g>
	<g>
		<linearGradient id="SVGID_1_" gradientUnits="userSpaceOnUse" x1="240.3514" y1="141.9618" x2="259.8637" y2="141.9618">
			<stop  offset="0.0056" style="stop-color:#EABF7C"/>
			<stop  offset="0.1854" style="stop-color:#DEB67C"/>
			<stop  offset="0.5955" style="stop-color:#BE822B"/>
			<stop  offset="0.8708" style="stop-color:#E9BD80"/>
			<stop  offset="1" style="stop-color:#EDDBC3"/>
		</linearGradient>
		<polygon fill="url(#SVGID_1_)" points="250.109,178.552 259.864,123.873 252.038,113.075 255.878,105.372 244.341,105.372 
			248.189,113.075 240.351,123.873 		"/>
		<linearGradient id="SVGID_2_" gradientUnits="userSpaceOnUse" x1="178.8561" y1="195.1802" x2="321.3792" y2="195.1802">
			<stop  offset="0.0056" style="stop-color:#EABF7C"/>
			<stop  offset="0.1854" style="stop-color:#DEB67C"/>
			<stop  offset="0.5955" style="stop-color:#BE822B"/>
			<stop  offset="0.8708" style="stop-color:#E9BD80"/>
			<stop  offset="1" style="stop-color:#EDDBC3"/>
		</linearGradient>
		<path fill="url(#SVGID_2_)" d="M305.968,273.535h15.411l-3.846-65.495l-7.719-86.654l-36.588-15.405l-3.852-7.703l-3.848,15.405
			l-15.415,88.587l-15.405-88.593l-3.858-15.405l-3.848,7.703l-36.59,15.403l-7.707,86.662l-3.846,65.495h15.407l14.058-84.997
			l5.193,19.492l-15.411,64.802l44.296,19.257l7.703-37.902l7.699,37.902l44.305-19.257l-15.419-64.802l5.197-19.492
			L305.968,273.535z M290.716,153.395l-15.654,2.17l10.352-12.764l5.302,4.097V153.395z"/>
	</g>
</g>
<linearGradient id="SVGID_3_" gradientUnits="userSpaceOnUse" x1="71.5882" y1="218.2157" x2="428.6471" y2="218.2157">
	<stop  offset="0.0056" style="stop-color:#EABF7C"/>
	<stop  offset="0.1854" style="stop-color:#DEB67C"/>
	<stop  offset="0.5955" style="stop-color:#BE822B"/>
	<stop  offset="0.8708" style="stop-color:#E9BD80"/>
	<stop  offset="1" style="stop-color:#EDDBC3"/>
</linearGradient>
<path fill="none" stroke="url(#SVGID_3_)" stroke-width="10" stroke-miterlimit="10" d="M423.647,365.039c0,6.627-5.373,12-12,12
	H88.588c-6.627,0-12-5.373-12-12V71.392c0-6.627,5.373-12,12-12h323.059c6.627,0,12,5.373,12,12V365.039z"/>
</svg>
