<?xml version="1.0" encoding="utf-8"?>
<!-- Generator: Adobe Illustrator 17.0.0, SVG Export Plug-In . SVG Version: 6.00 Build 0)  -->
<!DOCTYPE svg PUBLIC "-//W3C//DTD SVG 1.1//EN" "http://www.w3.org/Graphics/SVG/1.1/DTD/svg11.dtd">
<svg version="1.1" id="Layer_1" xmlns="http://www.w3.org/2000/svg" xmlns:xlink="http://www.w3.org/1999/xlink" x="0px" y="0px"
	 width="500px" height="500px" viewBox="0 0 500 500" enable-background="new 0 0 500 500" xml:space="preserve">
<g>
	<linearGradient id="SVGID_1_" gradientUnits="userSpaceOnUse" x1="199.5925" y1="230.8712" x2="300.6429" y2="230.8712">
		<stop  offset="0.0056" style="stop-color:#EABF7C"/>
		<stop  offset="0.1854" style="stop-color:#DEB67C"/>
		<stop  offset="0.5955" style="stop-color:#BE822B"/>
		<stop  offset="0.8708" style="stop-color:#E9BD80"/>
		<stop  offset="1" style="stop-color:#EDDBC3"/>
	</linearGradient>
	<path fill="url(#SVGID_1_)" d="M199.592,331.922h35.267l11.371-147.989c0.158-2.023,1.845-3.585,3.875-3.585
		c2.029,0,3.718,1.562,3.875,3.585l11.394,147.989h35.267V152.829c-11.916-1.733-21.275-11.092-23.008-23.008h-8.084v19.433
		c0,6.439-5.221,11.66-11.66,11.66h-7.773c-2.146,0-3.887-1.74-3.887-3.887v-27.206h-23.631
		c-1.733,11.916-11.092,21.275-23.008,23.008V331.922z"/>
	<linearGradient id="SVGID_2_" gradientUnits="userSpaceOnUse" x1="199.5925" y1="118.1611" x2="246.2311" y2="118.1611">
		<stop  offset="0.0056" style="stop-color:#EABF7C"/>
		<stop  offset="0.1854" style="stop-color:#DEB67C"/>
		<stop  offset="0.5955" style="stop-color:#BE822B"/>
		<stop  offset="0.8708" style="stop-color:#E9BD80"/>
		<stop  offset="1" style="stop-color:#EDDBC3"/>
	</linearGradient>
	<path fill="url(#SVGID_2_)" d="M199.592,114.275h46.639v7.773h-46.639V114.275z"/>
	<linearGradient id="SVGID_3_" gradientUnits="userSpaceOnUse" x1="199.5925" y1="137.3993" x2="214.7496" y2="137.3993">
		<stop  offset="0.0056" style="stop-color:#EABF7C"/>
		<stop  offset="0.1854" style="stop-color:#DEB67C"/>
		<stop  offset="0.5955" style="stop-color:#BE822B"/>
		<stop  offset="0.8708" style="stop-color:#E9BD80"/>
		<stop  offset="1" style="stop-color:#EDDBC3"/>
	</linearGradient>
	<path fill="url(#SVGID_3_)" d="M199.592,144.978c7.627-1.571,13.586-7.53,15.157-15.157h-15.157V144.978z"/>
	<linearGradient id="SVGID_4_" gradientUnits="userSpaceOnUse" x1="269.5504" y1="118.1611" x2="300.6429" y2="118.1611">
		<stop  offset="0.0056" style="stop-color:#EABF7C"/>
		<stop  offset="0.1854" style="stop-color:#DEB67C"/>
		<stop  offset="0.5955" style="stop-color:#BE822B"/>
		<stop  offset="0.8708" style="stop-color:#E9BD80"/>
		<stop  offset="1" style="stop-color:#EDDBC3"/>
	</linearGradient>
	<path fill="url(#SVGID_4_)" d="M269.55,114.275h31.092v7.773H269.55V114.275z"/>
	<linearGradient id="SVGID_5_" gradientUnits="userSpaceOnUse" x1="285.4857" y1="137.3993" x2="300.6429" y2="137.3993">
		<stop  offset="0.0056" style="stop-color:#EABF7C"/>
		<stop  offset="0.1854" style="stop-color:#DEB67C"/>
		<stop  offset="0.5955" style="stop-color:#BE822B"/>
		<stop  offset="0.8708" style="stop-color:#E9BD80"/>
		<stop  offset="1" style="stop-color:#EDDBC3"/>
	</linearGradient>
	<path fill="url(#SVGID_5_)" d="M300.643,129.821h-15.157c1.571,7.627,7.53,13.586,15.157,15.157V129.821z"/>
	<linearGradient id="SVGID_6_" gradientUnits="userSpaceOnUse" x1="254.0042" y1="118.1611" x2="261.7773" y2="118.1611">
		<stop  offset="0.0056" style="stop-color:#EABF7C"/>
		<stop  offset="0.1854" style="stop-color:#DEB67C"/>
		<stop  offset="0.5955" style="stop-color:#BE822B"/>
		<stop  offset="0.8708" style="stop-color:#E9BD80"/>
		<stop  offset="1" style="stop-color:#EDDBC3"/>
	</linearGradient>
	<path fill="url(#SVGID_6_)" d="M254.004,114.275h7.773v7.773h-7.773V114.275z"/>
	<linearGradient id="SVGID_7_" gradientUnits="userSpaceOnUse" x1="254.0042" y1="141.4804" x2="261.7773" y2="141.4804">
		<stop  offset="0.0056" style="stop-color:#EABF7C"/>
		<stop  offset="0.1854" style="stop-color:#DEB67C"/>
		<stop  offset="0.5955" style="stop-color:#BE822B"/>
		<stop  offset="0.8708" style="stop-color:#E9BD80"/>
		<stop  offset="1" style="stop-color:#EDDBC3"/>
	</linearGradient>
	<path fill="url(#SVGID_7_)" d="M261.777,149.253v-19.433h-7.773v23.319h3.887C260.037,153.14,261.777,151.4,261.777,149.253z"/>
</g>
<linearGradient id="SVGID_8_" gradientUnits="userSpaceOnUse" x1="71.5882" y1="218.2157" x2="428.6471" y2="218.2157">
	<stop  offset="0.0056" style="stop-color:#EABF7C"/>
	<stop  offset="0.1854" style="stop-color:#DEB67C"/>
	<stop  offset="0.5955" style="stop-color:#BE822B"/>
	<stop  offset="0.8708" style="stop-color:#E9BD80"/>
	<stop  offset="1" style="stop-color:#EDDBC3"/>
</linearGradient>
<path fill="none" stroke="url(#SVGID_8_)" stroke-width="10" stroke-miterlimit="10" d="M423.647,365.039c0,6.627-5.373,12-12,12
	H88.588c-6.627,0-12-5.373-12-12V71.392c0-6.627,5.373-12,12-12h323.059c6.627,0,12,5.373,12,12V365.039z"/>
</svg>
