<?xml version="1.0" encoding="utf-8"?>
<!-- Generator: Adobe Illustrator 17.0.0, SVG Export Plug-In . SVG Version: 6.00 Build 0)  -->
<!DOCTYPE svg PUBLIC "-//W3C//DTD SVG 1.1//EN" "http://www.w3.org/Graphics/SVG/1.1/DTD/svg11.dtd">
<svg version="1.1" id="Layer_1" xmlns="http://www.w3.org/2000/svg" xmlns:xlink="http://www.w3.org/1999/xlink" x="0px" y="0px"
	 width="500px" height="500px" viewBox="0 0 500 500" enable-background="new 0 0 500 500" xml:space="preserve">
<linearGradient id="SVGID_1_" gradientUnits="userSpaceOnUse" x1="162.6506" y1="210.9412" x2="337.5847" y2="210.9412">
	<stop  offset="0.0056" style="stop-color:#EABF7C"/>
	<stop  offset="0.1854" style="stop-color:#DEB67C"/>
	<stop  offset="0.5955" style="stop-color:#BE822B"/>
	<stop  offset="0.8708" style="stop-color:#E9BD80"/>
	<stop  offset="1" style="stop-color:#EDDBC3"/>
</linearGradient>
<path fill="url(#SVGID_1_)" d="M330.848,271.142l-9.078,9.078c2.526,5.182,3.868,10.909,3.868,16.844v22.03
	c0,2.06-1.67,3.729-3.729,3.729c-2.06,0-3.729-1.67-3.729-3.729v-22.03c0-16.323-12.549-29.632-28.479-30.922l-15.486,53.981
	c-0.469,1.636-1.962,2.702-3.583,2.702c-2.48,0-4.27-2.378-3.587-4.759l15.086-52.586c-6.068-1.33-11.358-5.046-14.686-10.51
	c-1.072-1.759-0.514-4.053,1.245-5.125c1.758-1.072,4.053-0.514,5.125,1.245c2.713,4.453,7.35,7.196,12.519,7.456
	c0.463-0.077,0.946-0.068,1.428,0.041c11.644,0.182,22.615,5.521,29.975,15.119l7.837-7.837c3.043-3.043,3.327-7.886,0.66-11.264
	c-5.914-7.486-4.41-16.542,1.26-21.888c3.184-3.002,3.545-8.037,0.82-11.462l-5.368-6.749c-3.232-4.063-4.285-9.462-2.815-14.442
	l3.471-11.762c1.237-4.191-0.88-8.602-4.924-10.259l-4.581-1.877c-6.015-2.465-9.902-8.256-9.902-14.755v-12.004
	c0-23.65-19.239-42.89-42.888-42.89H238.93c-23.649,0-42.888,19.24-42.888,42.89v12.004c0,6.498-3.887,12.29-9.902,14.755
	l-4.581,1.877c-4.044,1.657-6.16,6.067-4.924,10.259l3.471,11.762c1.469,4.98,0.417,10.379-2.815,14.442l-5.368,6.749
	c-2.724,3.425-2.364,8.459,0.82,11.462c5.68,5.355,7.167,14.409,1.259,21.889c-2.667,3.377-2.383,8.22,0.661,11.263l7.837,7.837
	c7.215-9.41,18.277-15.134,30.591-15.134c8.607,0,15.584-6.935,15.584-15.543v-0.98c-15.415-7.34-25.724-21.881-27.968-38.169
	c-0.281-2.04,1.145-3.922,3.185-4.203c2.04-0.282,3.922,1.145,4.203,3.185c2.872,20.851,20.938,36.575,42.023,36.575
	c23.392,0,42.422-19.03,42.422-42.422v-22.99c-8.719-3.16-16.324-9.239-21.292-17.735c-17.985,20.894-43.664,33.049-70.861,34.137
	c-2.053,0.083-3.793-1.516-3.875-3.577c-0.083-2.058,1.519-3.793,3.577-3.875c26.857-1.074,52.162-13.791,68.975-35.83
	c1.757-2.303,5.363-1.805,6.431,0.886c3.915,9.863,12.136,16.954,21.794,19.699c1.421,0.398,2.573,1.68,2.696,3.304
	c0.023,0.306,0.018,26.213,0.013,26.372c-0.255,32.865-31.989,56.842-63.943,47.457c-0.485,6.179-3.426,11.997-8.55,16.112
	l22.613,17.507l13.3-10.296c1.63-1.261,3.971-0.962,5.232,0.666c1.261,1.629,0.963,3.971-0.666,5.232l-14.137,10.944v26.608
	c0,2.06-1.67,3.729-3.729,3.729c-2.06,0-3.729-1.67-3.729-3.729v-26.607l-26.042-20.162c-4.045,1.334-7.61,1.164-7.255,1.164
	c-17.152,0-31.035,13.879-31.035,31.034v22.03c0,2.06-1.67,3.729-3.729,3.729s-3.729-1.67-3.729-3.729v-22.03
	c0-5.935,1.342-11.661,3.868-16.844l-9.078-9.078c-5.312-5.312-6.715-14.229-0.923-21.562c2.746-3.479,2.385-8.396-0.84-11.437
	c-5.982-5.64-6.658-15.098-1.54-21.532l5.368-6.749c1.721-2.163,2.281-5.037,1.498-7.688l-3.471-11.762
	c-2.323-7.874,1.653-16.159,9.249-19.272l4.581-1.877c3.202-1.312,5.271-4.395,5.271-7.853v-12.004
	c0.002-27.762,22.588-50.348,50.349-50.348h22.376c27.761,0,50.347,22.586,50.347,50.347v12.005c0,3.458,2.069,6.541,5.271,7.853
	l4.581,1.876c7.597,3.113,11.573,11.398,9.25,19.272l-3.471,11.762c-0.782,2.651-0.222,5.525,1.498,7.688l5.368,6.749
	c5.118,6.434,4.441,15.892-1.54,21.532c-3.225,3.041-3.586,7.958-0.84,11.438C337.467,256.79,336.26,265.73,330.848,271.142
	L330.848,271.142z M222.008,278.455c-0.56-1.982-2.62-3.136-4.603-2.576c-1.982,0.56-3.135,2.62-2.576,4.603l11.188,39.625
	c0.56,1.983,2.621,3.135,4.603,2.576c1.982-0.56,3.135-2.62,2.576-4.603L222.008,278.455z"/>
<linearGradient id="SVGID_2_" gradientUnits="userSpaceOnUse" x1="71.5882" y1="218.2157" x2="428.6471" y2="218.2157">
	<stop  offset="0.0056" style="stop-color:#EABF7C"/>
	<stop  offset="0.1854" style="stop-color:#DEB67C"/>
	<stop  offset="0.5955" style="stop-color:#BE822B"/>
	<stop  offset="0.8708" style="stop-color:#E9BD80"/>
	<stop  offset="1" style="stop-color:#EDDBC3"/>
</linearGradient>
<path fill="none" stroke="url(#SVGID_2_)" stroke-width="10" stroke-miterlimit="10" d="M423.647,365.039c0,6.627-5.373,12-12,12
	H88.588c-6.627,0-12-5.373-12-12V71.392c0-6.627,5.373-12,12-12h323.059c6.627,0,12,5.373,12,12V365.039z"/>
</svg>
